{
	"asset":{
		"generator":"Khronos glTF Blender I/O v3.6.27",
		"version":"2.0"
	},
	"extensionsUsed":[
		"KHR_materials_specular",
		"KHR_materials_ior"
	],
	"scene":0,
	"scenes":[
		{
			"name":"Scene",
			"nodes":[
				0
			]
		}
	],
	"nodes":[
		{
			"mesh":0,
			"name":"Trunk-col",
			"scale":[
				2.946503162384033,
				2.946503162384033,
				2.946503162384033
			],
			"translation":[
				-0.003935158718377352,
				8.56859016418457,
				-0.03574781119823456
			]
		}
	],
	"materials":[
		{
			"doubleSided":true,
			"name":"Wood",
			"pbrMetallicRoughness":{
				"baseColorFactor":[
					0.017641950398683548,
					0.010329813696444035,
					0.0056053944863379,
					1
				],
				"metallicFactor":0
			}
		},
		{
			"doubleSided":true,
			"extensions":{
				"KHR_materials_specular":{
					"specularColorFactor":[
						0,
						0,
						0
					]
				},
				"KHR_materials_ior":{
					"ior":1.4500000476837158
				}
			},
			"name":"Stump",
			"pbrMetallicRoughness":{
				"baseColorFactor":[
					0.800000011920929,
					0.800000011920929,
					0.800000011920929,
					1
				],
				"metallicFactor":0,
				"roughnessFactor":0.5
			}
		}
	],
	"meshes":[
		{
			"name":"Cylinder",
			"primitives":[
				{
					"attributes":{
						"POSITION":0,
						"NORMAL":1,
						"TEXCOORD_0":2
					},
					"indices":3,
					"material":0
				},
				{
					"attributes":{
						"POSITION":4,
						"NORMAL":5,
						"TEXCOORD_0":6
					},
					"indices":7,
					"material":1
				}
			]
		}
	],
	"accessors":[
		{
			"bufferView":0,
			"componentType":5126,
			"count":248,
			"max":[
				0.49728158116340637,
				-2.6397705078125,
				0.5732505917549133
			],
			"min":[
				-0.6690161824226379,
				-2.9962878227233887,
				-0.6547946929931641
			],
			"type":"VEC3"
		},
		{
			"bufferView":1,
			"componentType":5126,
			"count":248,
			"type":"VEC3"
		},
		{
			"bufferView":2,
			"componentType":5126,
			"count":248,
			"type":"VEC2"
		},
		{
			"bufferView":3,
			"componentType":5123,
			"count":372,
			"type":"SCALAR"
		},
		{
			"bufferView":4,
			"componentType":5126,
			"count":11,
			"max":[
				0.2040959894657135,
				-2.6397705078125,
				0.21622489392757416
			],
			"min":[
				-0.19341951608657837,
				-2.6804254055023193,
				-0.17951072752475739
			],
			"type":"VEC3"
		},
		{
			"bufferView":5,
			"componentType":5126,
			"count":11,
			"type":"VEC3"
		},
		{
			"bufferView":6,
			"componentType":5126,
			"count":11,
			"type":"VEC2"
		},
		{
			"bufferView":7,
			"componentType":5123,
			"count":27,
			"type":"SCALAR"
		}
	],
	"bufferViews":[
		{
			"buffer":0,
			"byteLength":2976,
			"byteOffset":0,
			"target":34962
		},
		{
			"buffer":0,
			"byteLength":2976,
			"byteOffset":2976,
			"target":34962
		},
		{
			"buffer":0,
			"byteLength":1984,
			"byteOffset":5952,
			"target":34962
		},
		{
			"buffer":0,
			"byteLength":744,
			"byteOffset":7936,
			"target":34963
		},
		{
			"buffer":0,
			"byteLength":132,
			"byteOffset":8680,
			"target":34962
		},
		{
			"buffer":0,
			"byteLength":132,
			"byteOffset":8812,
			"target":34962
		},
		{
			"buffer":0,
			"byteLength":88,
			"byteOffset":8944,
			"target":34962
		},
		{
			"buffer":0,
			"byteLength":54,
			"byteOffset":9032,
			"target":34963
		}
	],
	"buffers":[
		{
			"byteLength":9088,
			"uri":"data:application/octet-stream;base64,"
		}
	]
}
