{
	"asset":{
		"generator":"Khronos glTF Blender I/O v3.6.27",
		"version":"2.0"
	},
	"extensionsUsed":[
		"KHR_materials_specular",
		"KHR_materials_ior"
	],
	"scene":0,
	"scenes":[
		{
			"name":"Scene",
			"nodes":[
				0,
				1,
				2,
				3
			]
		}
	],
	"nodes":[
		{
			"mesh":0,
			"name":"Trunk-col",
			"rotation":[
				0,
				0,
				-0.3035222887992859,
				0.9528243541717529
			],
			"scale":[
				1.3709975481033325,
				1.3709975481033325,
				1.3709975481033325
			],
			"translation":[
				1.5312191247940063,
				2.1913256645202637,
				-0.15406998991966248
			]
		},
		{
			"mesh":1,
			"name":"Leaves",
			"rotation":[
				0,
				-0.5601674318313599,
				0,
				0.8283793926239014
			],
			"scale":[
				1.8431564569473267,
				1.4283055067062378,
				1.8431564569473267
			],
			"translation":[
				2.0710983276367188,
				4.679864406585693,
				2.3854289054870605
			]
		},
		{
			"mesh":2,
			"name":"Branch",
			"rotation":[
				0.05165177211165428,
				0.3323986828327179,
				-0.17789234220981598,
				0.9247689247131348
			],
			"scale":[
				0.6929047703742981,
				0.6929047703742981,
				0.6929047107696533
			],
			"translation":[
				0.4366140365600586,
				2.849785089492798,
				-1.0535334348678589
			]
		},
		{
			"mesh":3,
			"name":"Branch.001",
			"rotation":[
				-0.11288561671972275,
				0.9422637224197388,
				-0.1468687653541565,
				0.2789722979068756
			],
			"scale":[
				1.1105949878692627,
				1.1105952262878418,
				1.1105951070785522
			],
			"translation":[
				-1.4961155652999878,
				2.0547218322753906,
				0.03802812099456787
			]
		}
	],
	"materials":[
		{
			"doubleSided":true,
			"extensions":{
				"KHR_materials_specular":{
					"specularColorFactor":[
						0,
						0,
						0
					]
				},
				"KHR_materials_ior":{
					"ior":1.4500000476837158
				}
			},
			"name":"Wood",
			"pbrMetallicRoughness":{
				"baseColorTexture":{
					"index":0
				},
				"metallicFactor":0
			}
		},
		{
			"doubleSided":true,
			"extensions":{
				"KHR_materials_specular":{
					"specularColorFactor":[
						0,
						0,
						0
					]
				},
				"KHR_materials_ior":{
					"ior":1.4500000476837158
				}
			},
			"name":"Leaves",
			"pbrMetallicRoughness":{
				"baseColorTexture":{
					"index":1
				},
				"metallicFactor":0
			}
		}
	],
	"meshes":[
		{
			"name":"Cylinder.002",
			"primitives":[
				{
					"attributes":{
						"POSITION":0,
						"NORMAL":1,
						"TEXCOORD_0":2
					},
					"indices":3,
					"material":0
				}
			]
		},
		{
			"name":"Sphere.001",
			"primitives":[
				{
					"attributes":{
						"POSITION":4,
						"NORMAL":5,
						"TEXCOORD_0":6
					},
					"indices":7,
					"material":1
				}
			]
		},
		{
			"name":"Cylinder.005",
			"primitives":[
				{
					"attributes":{
						"POSITION":8,
						"NORMAL":9,
						"TEXCOORD_0":10
					},
					"indices":11,
					"material":0
				}
			]
		},
		{
			"name":"Cylinder.006",
			"primitives":[
				{
					"attributes":{
						"POSITION":12,
						"NORMAL":13,
						"TEXCOORD_0":14
					},
					"indices":15,
					"material":0
				}
			]
		}
	],
	"textures":[
		{
			"sampler":0,
			"source":0
		},
		{
			"sampler":0,
			"source":1
		}
	],
	"images":[
		{
			"bufferView":4,
			"mimeType":"image/png",
			"name":"brown_bark_1"
		},
		{
			"bufferView":9,
			"mimeType":"image/png",
			"name":"leaves_1"
		}
	],
	"accessors":[
		{
			"bufferView":0,
			"componentType":5126,
			"count":369,
			"max":[
				0.4098590612411499,
				0.43064212799072266,
				0.4543391764163971
			],
			"min":[
				-2.6925601959228516,
				-2.1279666423797607,
				-0.3671988546848297
			],
			"type":"VEC3"
		},
		{
			"bufferView":1,
			"componentType":5126,
			"count":369,
			"type":"VEC3"
		},
		{
			"bufferView":2,
			"componentType":5126,
			"count":369,
			"type":"VEC2"
		},
		{
			"bufferView":3,
			"componentType":5123,
			"count":561,
			"type":"SCALAR"
		},
		{
			"bufferView":5,
			"componentType":5126,
			"count":420,
			"max":[
				0.13426926732063293,
				1.244737982749939,
				2.181765556335449
			],
			"min":[
				-2.906944990158081,
				-0.6932674050331116,
				-0.9414640665054321
			],
			"type":"VEC3"
		},
		{
			"bufferView":6,
			"componentType":5126,
			"count":420,
			"type":"VEC3"
		},
		{
			"bufferView":7,
			"componentType":5126,
			"count":420,
			"type":"VEC2"
		},
		{
			"bufferView":8,
			"componentType":5123,
			"count":588,
			"type":"SCALAR"
		},
		{
			"bufferView":10,
			"componentType":5126,
			"count":153,
			"max":[
				-1.7615238428115845,
				2.198190450668335,
				1.8942759037017822
			],
			"min":[
				-3.067469358444214,
				0.22086307406425476,
				0.9442128539085388
			],
			"type":"VEC3"
		},
		{
			"bufferView":11,
			"componentType":5126,
			"count":153,
			"type":"VEC3"
		},
		{
			"bufferView":12,
			"componentType":5126,
			"count":153,
			"type":"VEC2"
		},
		{
			"bufferView":13,
			"componentType":5123,
			"count":237,
			"type":"SCALAR"
		},
		{
			"bufferView":14,
			"componentType":5126,
			"count":117,
			"max":[
				-1.4230506420135498,
				1.8519667387008667,
				1.166500210762024
			],
			"min":[
				-2.8509268760681152,
				0.5908827781677246,
				0.3804693818092346
			],
			"type":"VEC3"
		},
		{
			"bufferView":15,
			"componentType":5126,
			"count":117,
			"type":"VEC3"
		},
		{
			"bufferView":16,
			"componentType":5126,
			"count":117,
			"type":"VEC2"
		},
		{
			"bufferView":17,
			"componentType":5123,
			"count":183,
			"type":"SCALAR"
		}
	],
	"bufferViews":[
		{
			"buffer":0,
			"byteLength":4428,
			"byteOffset":0,
			"target":34962
		},
		{
			"buffer":0,
			"byteLength":4428,
			"byteOffset":4428,
			"target":34962
		},
		{
			"buffer":0,
			"byteLength":2952,
			"byteOffset":8856,
			"target":34962
		},
		{
			"buffer":0,
			"byteLength":1122,
			"byteOffset":11808,
			"target":34963
		},
		{
			"buffer":0,
			"byteLength":212003,
			"byteOffset":12932
		},
		{
			"buffer":0,
			"byteLength":5040,
			"byteOffset":224936,
			"target":34962
		},
		{
			"buffer":0,
			"byteLength":5040,
			"byteOffset":229976,
			"target":34962
		},
		{
			"buffer":0,
			"byteLength":3360,
			"byteOffset":235016,
			"target":34962
		},
		{
			"buffer":0,
			"byteLength":1176,
			"byteOffset":238376,
			"target":34963
		},
		{
			"buffer":0,
			"byteLength":32428,
			"byteOffset":239552
		},
		{
			"buffer":0,
			"byteLength":1836,
			"byteOffset":271980,
			"target":34962
		},
		{
			"buffer":0,
			"byteLength":1836,
			"byteOffset":273816,
			"target":34962
		},
		{
			"buffer":0,
			"byteLength":1224,
			"byteOffset":275652,
			"target":34962
		},
		{
			"buffer":0,
			"byteLength":474,
			"byteOffset":276876,
			"target":34963
		},
		{
			"buffer":0,
			"byteLength":1404,
			"byteOffset":277352,
			"target":34962
		},
		{
			"buffer":0,
			"byteLength":1404,
			"byteOffset":278756,
			"target":34962
		},
		{
			"buffer":0,
			"byteLength":936,
			"byteOffset":280160,
			"target":34962
		},
		{
			"buffer":0,
			"byteLength":366,
			"byteOffset":281096,
			"target":34963
		}
	],
	"samplers":[
		{
			"magFilter":9728,
			"minFilter":9984
		}
	],
	"buffers":[
		{
			"byteLength":281464,
			"uri":"data:application/octet-stream;base64,"
		}
	]
}
