{
	"asset":{
		"generator":"Khronos glTF Blender I/O v5.0.21",
		"version":"2.0"
	},
	"scene":0,
	"scenes":[
		{
			"name":"Scene",
			"nodes":[
				0,
				1
			]
		}
	],
	"nodes":[
		{
			"mesh":0,
			"name":"Cylinder-col",
			"rotation":[
				0,
				0.7071068286895752,
				0.7071068286895752,
				3.090862321641907e-08
			],
			"scale":[
				1,
				2.0313594341278076,
				1
			]
		},
		{
			"mesh":1,
			"name":"Cylinder.001",
			"scale":[
				0.6233272552490234,
				0.7844512462615967,
				0.6233272552490234
			],
			"translation":[
				0,
				-0.8644874095916748,
				1.9662165641784668
			]
		}
	],
	"materials":[
		{
			"doubleSided":true,
			"name":"Poles",
			"pbrMetallicRoughness":{
				"baseColorTexture":{
					"index":0
				},
				"metallicFactor":0,
				"roughnessFactor":0.5
			}
		},
		{
			"alphaMode":"BLEND",
			"doubleSided":true,
			"name":"Chainlink",
			"pbrMetallicRoughness":{
				"baseColorTexture":{
					"index":1
				},
				"metallicFactor":0,
				"roughnessFactor":0.5
			}
		}
	],
	"meshes":[
		{
			"name":"Cylinder",
			"primitives":[
				{
					"attributes":{
						"POSITION":0,
						"NORMAL":1,
						"TEXCOORD_0":2
					},
					"indices":3,
					"material":0
				},
				{
					"attributes":{
						"POSITION":4,
						"NORMAL":5,
						"TEXCOORD_0":6
					},
					"indices":7,
					"material":1
				}
			]
		},
		{
			"name":"Cylinder.001",
			"primitives":[
				{
					"attributes":{
						"POSITION":8,
						"NORMAL":9,
						"TEXCOORD_0":10
					},
					"indices":11,
					"material":0
				}
			]
		}
	],
	"textures":[
		{
			"sampler":0,
			"source":0
		},
		{
			"sampler":0,
			"source":1
		}
	],
	"images":[
		{
			"mimeType":"image/png",
			"name":"RustyMetal03",
			"uri":"RustyMetal03.png"
		},
		{
			"mimeType":"image/png",
			"name":"chain_link_2",
			"uri":"chain_link_2.png"
		}
	],
	"accessors":[
		{
			"bufferView":0,
			"componentType":5126,
			"count":150,
			"max":[
				0.10836448520421982,
				1.0031018257141113,
				0.14960458874702454
			],
			"min":[
				-0.10836448520421982,
				-1,
				-0.11003618687391281
			],
			"type":"VEC3"
		},
		{
			"bufferView":1,
			"componentType":5126,
			"count":150,
			"type":"VEC3"
		},
		{
			"bufferView":2,
			"componentType":5126,
			"count":150,
			"type":"VEC2"
		},
		{
			"bufferView":3,
			"componentType":5123,
			"count":234,
			"type":"SCALAR"
		},
		{
			"bufferView":4,
			"componentType":5126,
			"count":4,
			"max":[
				0,
				0.938186764717102,
				-0.10000000149011612
			],
			"min":[
				-1.3257201203487057e-07,
				-1,
				-1.6164470911026
			],
			"type":"VEC3"
		},
		{
			"bufferView":5,
			"componentType":5126,
			"count":4,
			"type":"VEC3"
		},
		{
			"bufferView":6,
			"componentType":5126,
			"count":4,
			"type":"VEC2"
		},
		{
			"bufferView":7,
			"componentType":5123,
			"count":6,
			"type":"SCALAR"
		},
		{
			"bufferView":8,
			"componentType":5126,
			"count":54,
			"max":[
				0.09848077595233917,
				1,
				0.09396926313638687
			],
			"min":[
				-0.09848077595233917,
				-1,
				-0.10000000149011612
			],
			"type":"VEC3"
		},
		{
			"bufferView":9,
			"componentType":5126,
			"count":54,
			"type":"VEC3"
		},
		{
			"bufferView":10,
			"componentType":5126,
			"count":54,
			"type":"VEC2"
		},
		{
			"bufferView":11,
			"componentType":5123,
			"count":96,
			"type":"SCALAR"
		}
	],
	"bufferViews":[
		{
			"buffer":0,
			"byteLength":1800,
			"byteOffset":0,
			"target":34962
		},
		{
			"buffer":0,
			"byteLength":1800,
			"byteOffset":1800,
			"target":34962
		},
		{
			"buffer":0,
			"byteLength":1200,
			"byteOffset":3600,
			"target":34962
		},
		{
			"buffer":0,
			"byteLength":468,
			"byteOffset":4800,
			"target":34963
		},
		{
			"buffer":0,
			"byteLength":48,
			"byteOffset":5268,
			"target":34962
		},
		{
			"buffer":0,
			"byteLength":48,
			"byteOffset":5316,
			"target":34962
		},
		{
			"buffer":0,
			"byteLength":32,
			"byteOffset":5364,
			"target":34962
		},
		{
			"buffer":0,
			"byteLength":12,
			"byteOffset":5396,
			"target":34963
		},
		{
			"buffer":0,
			"byteLength":648,
			"byteOffset":5408,
			"target":34962
		},
		{
			"buffer":0,
			"byteLength":648,
			"byteOffset":6056,
			"target":34962
		},
		{
			"buffer":0,
			"byteLength":432,
			"byteOffset":6704,
			"target":34962
		},
		{
			"buffer":0,
			"byteLength":192,
			"byteOffset":7136,
			"target":34963
		}
	],
	"samplers":[
		{
			"magFilter":9728,
			"minFilter":9984
		}
	],
	"buffers":[
		{
			"byteLength":7328,
			"uri":"chainlink_fence.bin"
		}
	]
}
