{
	"asset":{
		"generator":"Khronos glTF Blender I/O v3.6.27",
		"version":"2.0"
	},
	"extensionsUsed":[
		"KHR_materials_specular",
		"KHR_materials_ior"
	],
	"scene":0,
	"scenes":[
		{
			"name":"Scene",
			"nodes":[
				0,
				1,
				2
			]
		}
	],
	"nodes":[
		{
			"mesh":0,
			"name":"UpperBeam-col",
			"scale":[
				0.15510335564613342,
				0.18890118598937988,
				1.9760972261428833
			],
			"translation":[
				0,
				1.519986629486084,
				0
			]
		},
		{
			"mesh":1,
			"name":"Post",
			"translation":[
				0,
				0.9529449939727783,
				0.01663029193878174
			]
		},
		{
			"mesh":2,
			"name":"LowerBeam-col",
			"scale":[
				0.15510335564613342,
				0.18890118598937988,
				1.9760972261428833
			],
			"translation":[
				0,
				0.7543625235557556,
				0
			]
		}
	],
	"materials":[
		{
			"doubleSided":true,
			"extensions":{
				"KHR_materials_specular":{
					"specularColorFactor":[
						0,
						0,
						0
					]
				},
				"KHR_materials_ior":{
					"ior":1.4500000476837158
				}
			},
			"name":"Wood",
			"pbrMetallicRoughness":{
				"baseColorTexture":{
					"index":0
				},
				"metallicFactor":0,
				"roughnessFactor":0.9700000286102295
			}
		}
	],
	"meshes":[
		{
			"name":"Cube.001",
			"primitives":[
				{
					"attributes":{
						"POSITION":0,
						"NORMAL":1,
						"TEXCOORD_0":2
					},
					"indices":3,
					"material":0
				}
			]
		},
		{
			"name":"Cylinder",
			"primitives":[
				{
					"attributes":{
						"POSITION":4,
						"NORMAL":5,
						"TEXCOORD_0":6
					},
					"indices":7,
					"material":0
				}
			]
		},
		{
			"name":"Cube.002",
			"primitives":[
				{
					"attributes":{
						"POSITION":8,
						"NORMAL":9,
						"TEXCOORD_0":10
					},
					"indices":3,
					"material":0
				}
			]
		}
	],
	"textures":[
		{
			"sampler":0,
			"source":0
		}
	],
	"images":[
		{
			"bufferView":4,
			"mimeType":"image/png",
			"name":"wood_planks_1"
		}
	],
	"accessors":[
		{
			"bufferView":0,
			"componentType":5126,
			"count":56,
			"max":[
				0.914188027381897,
				0.9999999403953552,
				1
			],
			"min":[
				-0.914188027381897,
				-0.9999999403953552,
				-1
			],
			"type":"VEC3"
		},
		{
			"bufferView":1,
			"componentType":5126,
			"count":56,
			"type":"VEC3"
		},
		{
			"bufferView":2,
			"componentType":5126,
			"count":56,
			"type":"VEC2"
		},
		{
			"bufferView":3,
			"componentType":5123,
			"count":84,
			"type":"SCALAR"
		},
		{
			"bufferView":5,
			"componentType":5126,
			"count":42,
			"max":[
				0.24373197555541992,
				1,
				0.22524221241474152
			],
			"min":[
				-0.24373197555541992,
				-1,
				-0.25
			],
			"type":"VEC3"
		},
		{
			"bufferView":6,
			"componentType":5126,
			"count":42,
			"type":"VEC3"
		},
		{
			"bufferView":7,
			"componentType":5126,
			"count":42,
			"type":"VEC2"
		},
		{
			"bufferView":8,
			"componentType":5123,
			"count":72,
			"type":"SCALAR"
		},
		{
			"bufferView":9,
			"componentType":5126,
			"count":56,
			"max":[
				0.914188027381897,
				0.9999999403953552,
				1
			],
			"min":[
				-0.914188027381897,
				-0.9999999403953552,
				-1
			],
			"type":"VEC3"
		},
		{
			"bufferView":10,
			"componentType":5126,
			"count":56,
			"type":"VEC3"
		},
		{
			"bufferView":11,
			"componentType":5126,
			"count":56,
			"type":"VEC2"
		}
	],
	"bufferViews":[
		{
			"buffer":0,
			"byteLength":672,
			"byteOffset":0,
			"target":34962
		},
		{
			"buffer":0,
			"byteLength":672,
			"byteOffset":672,
			"target":34962
		},
		{
			"buffer":0,
			"byteLength":448,
			"byteOffset":1344,
			"target":34962
		},
		{
			"buffer":0,
			"byteLength":168,
			"byteOffset":1792,
			"target":34963
		},
		{
			"buffer":0,
			"byteLength":126755,
			"byteOffset":1960
		},
		{
			"buffer":0,
			"byteLength":504,
			"byteOffset":128716,
			"target":34962
		},
		{
			"buffer":0,
			"byteLength":504,
			"byteOffset":129220,
			"target":34962
		},
		{
			"buffer":0,
			"byteLength":336,
			"byteOffset":129724,
			"target":34962
		},
		{
			"buffer":0,
			"byteLength":144,
			"byteOffset":130060,
			"target":34963
		},
		{
			"buffer":0,
			"byteLength":672,
			"byteOffset":130204,
			"target":34962
		},
		{
			"buffer":0,
			"byteLength":672,
			"byteOffset":130876,
			"target":34962
		},
		{
			"buffer":0,
			"byteLength":448,
			"byteOffset":131548,
			"target":34962
		}
	],
	"samplers":[
		{
			"magFilter":9728,
			"minFilter":9984
		}
	],
	"buffers":[
		{
			"byteLength":131996,
			"uri":"data:application/octet-stream;base64,"
		}
	]
}
