{
	"asset":{
		"generator":"Khronos glTF Blender I/O v3.6.27",
		"version":"2.0"
	},
	"extensionsUsed":[
		"KHR_materials_specular",
		"KHR_materials_ior"
	],
	"scene":0,
	"scenes":[
		{
			"name":"Scene",
			"nodes":[
				0,
				1,
				2,
				3,
				4,
				5
			]
		}
	],
	"nodes":[
		{
			"mesh":0,
			"name":"Plank2",
			"rotation":[
				0.06191214174032211,
				0,
				0,
				0.9980816841125488
			],
			"scale":[
				0.04660331830382347,
				1,
				0.21310298144817352
			],
			"translation":[
				0,
				2.6042633056640625,
				-0.13821923732757568
			]
		},
		{
			"mesh":1,
			"name":"Plank3",
			"scale":[
				0.04660331830382347,
				1,
				0.21310298144817352
			],
			"translation":[
				0,
				2.6042633056640625,
				0.45892778038978577
			]
		},
		{
			"mesh":2,
			"name":"Plank4",
			"scale":[
				0.04660331830382347,
				1,
				0.21310298144817352
			],
			"translation":[
				0,
				2.6042633056640625,
				0.9178555607795715
			]
		},
		{
			"mesh":3,
			"name":"Plank5",
			"scale":[
				0.04660331830382347,
				1,
				0.21310298144817352
			],
			"translation":[
				0,
				2.6042633056640625,
				-0.9146904349327087
			]
		},
		{
			"mesh":4,
			"name":"CrossBoard",
			"rotation":[
				0.2968650460243225,
				0,
				0,
				0.9549194574356079
			],
			"scale":[
				0.03722019121050835,
				0.17381852865219116,
				1.126047134399414
			],
			"translation":[
				-0.08710481971502304,
				2.197129487991333,
				-0.10206755995750427
			]
		},
		{
			"mesh":5,
			"name":"CrossBoard.001",
			"rotation":[
				-0.058899521827697754,
				-0.05820959433913231,
				0.7088178992271423,
				0.7005138993263245
			],
			"scale":[
				0.03722018748521805,
				0.17381852865219116,
				1.126047134399414
			],
			"translation":[
				-0.5365864634513855,
				0.03958779573440552,
				0
			]
		}
	],
	"materials":[
		{
			"doubleSided":true,
			"extensions":{
				"KHR_materials_specular":{
					"specularColorFactor":[
						0,
						0,
						0
					]
				},
				"KHR_materials_ior":{
					"ior":1.4500000476837158
				}
			},
			"name":"Wood",
			"pbrMetallicRoughness":{
				"baseColorFactor":[
					0.1901775300502777,
					0.11401450634002686,
					0.06387865543365479,
					1
				],
				"metallicFactor":0
			}
		}
	],
	"meshes":[
		{
			"name":"Cube.002",
			"primitives":[
				{
					"attributes":{
						"POSITION":0,
						"NORMAL":1,
						"TEXCOORD_0":2
					},
					"indices":3,
					"material":0
				}
			]
		},
		{
			"name":"Cube.003",
			"primitives":[
				{
					"attributes":{
						"POSITION":4,
						"NORMAL":5,
						"TEXCOORD_0":6
					},
					"indices":3,
					"material":0
				}
			]
		},
		{
			"name":"Cube.004",
			"primitives":[
				{
					"attributes":{
						"POSITION":7,
						"NORMAL":8,
						"TEXCOORD_0":9
					},
					"indices":10,
					"material":0
				}
			]
		},
		{
			"name":"Cube.005",
			"primitives":[
				{
					"attributes":{
						"POSITION":11,
						"NORMAL":12,
						"TEXCOORD_0":13
					},
					"indices":3,
					"material":0
				}
			]
		},
		{
			"name":"Cube.006",
			"primitives":[
				{
					"attributes":{
						"POSITION":14,
						"NORMAL":15,
						"TEXCOORD_0":16
					},
					"indices":17,
					"material":0
				}
			]
		},
		{
			"name":"Cube.007",
			"primitives":[
				{
					"attributes":{
						"POSITION":18,
						"NORMAL":19,
						"TEXCOORD_0":20
					},
					"indices":17,
					"material":0
				}
			]
		}
	],
	"accessors":[
		{
			"bufferView":0,
			"componentType":5126,
			"count":30,
			"max":[
				1,
				1.1962056159973145,
				1
			],
			"min":[
				-1,
				-2.6144940853118896,
				-1
			],
			"type":"VEC3"
		},
		{
			"bufferView":1,
			"componentType":5126,
			"count":30,
			"type":"VEC3"
		},
		{
			"bufferView":2,
			"componentType":5126,
			"count":30,
			"type":"VEC2"
		},
		{
			"bufferView":3,
			"componentType":5123,
			"count":48,
			"type":"SCALAR"
		},
		{
			"bufferView":4,
			"componentType":5126,
			"count":30,
			"max":[
				1,
				1.1962056159973145,
				1
			],
			"min":[
				-1,
				-2.6144940853118896,
				-1
			],
			"type":"VEC3"
		},
		{
			"bufferView":5,
			"componentType":5126,
			"count":30,
			"type":"VEC3"
		},
		{
			"bufferView":6,
			"componentType":5126,
			"count":30,
			"type":"VEC2"
		},
		{
			"bufferView":7,
			"componentType":5126,
			"count":50,
			"max":[
				1,
				0.28901195526123047,
				1
			],
			"min":[
				-1,
				-2.6144940853118896,
				-1
			],
			"type":"VEC3"
		},
		{
			"bufferView":8,
			"componentType":5126,
			"count":50,
			"type":"VEC3"
		},
		{
			"bufferView":9,
			"componentType":5126,
			"count":50,
			"type":"VEC2"
		},
		{
			"bufferView":10,
			"componentType":5123,
			"count":90,
			"type":"SCALAR"
		},
		{
			"bufferView":11,
			"componentType":5126,
			"count":30,
			"max":[
				1,
				1.1962056159973145,
				1
			],
			"min":[
				-1,
				-2.6144940853118896,
				-1
			],
			"type":"VEC3"
		},
		{
			"bufferView":12,
			"componentType":5126,
			"count":30,
			"type":"VEC3"
		},
		{
			"bufferView":13,
			"componentType":5126,
			"count":30,
			"type":"VEC2"
		},
		{
			"bufferView":14,
			"componentType":5126,
			"count":24,
			"max":[
				1,
				1,
				1
			],
			"min":[
				-1,
				-1,
				-1
			],
			"type":"VEC3"
		},
		{
			"bufferView":15,
			"componentType":5126,
			"count":24,
			"type":"VEC3"
		},
		{
			"bufferView":16,
			"componentType":5126,
			"count":24,
			"type":"VEC2"
		},
		{
			"bufferView":17,
			"componentType":5123,
			"count":36,
			"type":"SCALAR"
		},
		{
			"bufferView":18,
			"componentType":5126,
			"count":24,
			"max":[
				1,
				1,
				1
			],
			"min":[
				-1,
				-1,
				-1
			],
			"type":"VEC3"
		},
		{
			"bufferView":19,
			"componentType":5126,
			"count":24,
			"type":"VEC3"
		},
		{
			"bufferView":20,
			"componentType":5126,
			"count":24,
			"type":"VEC2"
		}
	],
	"bufferViews":[
		{
			"buffer":0,
			"byteLength":360,
			"byteOffset":0,
			"target":34962
		},
		{
			"buffer":0,
			"byteLength":360,
			"byteOffset":360,
			"target":34962
		},
		{
			"buffer":0,
			"byteLength":240,
			"byteOffset":720,
			"target":34962
		},
		{
			"buffer":0,
			"byteLength":96,
			"byteOffset":960,
			"target":34963
		},
		{
			"buffer":0,
			"byteLength":360,
			"byteOffset":1056,
			"target":34962
		},
		{
			"buffer":0,
			"byteLength":360,
			"byteOffset":1416,
			"target":34962
		},
		{
			"buffer":0,
			"byteLength":240,
			"byteOffset":1776,
			"target":34962
		},
		{
			"buffer":0,
			"byteLength":600,
			"byteOffset":2016,
			"target":34962
		},
		{
			"buffer":0,
			"byteLength":600,
			"byteOffset":2616,
			"target":34962
		},
		{
			"buffer":0,
			"byteLength":400,
			"byteOffset":3216,
			"target":34962
		},
		{
			"buffer":0,
			"byteLength":180,
			"byteOffset":3616,
			"target":34963
		},
		{
			"buffer":0,
			"byteLength":360,
			"byteOffset":3796,
			"target":34962
		},
		{
			"buffer":0,
			"byteLength":360,
			"byteOffset":4156,
			"target":34962
		},
		{
			"buffer":0,
			"byteLength":240,
			"byteOffset":4516,
			"target":34962
		},
		{
			"buffer":0,
			"byteLength":288,
			"byteOffset":4756,
			"target":34962
		},
		{
			"buffer":0,
			"byteLength":288,
			"byteOffset":5044,
			"target":34962
		},
		{
			"buffer":0,
			"byteLength":192,
			"byteOffset":5332,
			"target":34962
		},
		{
			"buffer":0,
			"byteLength":72,
			"byteOffset":5524,
			"target":34963
		},
		{
			"buffer":0,
			"byteLength":288,
			"byteOffset":5596,
			"target":34962
		},
		{
			"buffer":0,
			"byteLength":288,
			"byteOffset":5884,
			"target":34962
		},
		{
			"buffer":0,
			"byteLength":192,
			"byteOffset":6172,
			"target":34962
		}
	],
	"buffers":[
		{
			"byteLength":6364,
			"uri":"data:application/octet-stream;base64,"
		}
	]
}
