{
	"asset":{
		"generator":"Khronos glTF Blender I/O v3.6.27",
		"version":"2.0"
	},
	"scene":0,
	"scenes":[
		{
			"name":"Scene",
			"nodes":[
				0,
				1,
				2,
				3,
				4
			]
		}
	],
	"nodes":[
		{
			"mesh":0,
			"name":"Plank2",
			"rotation":[
				-0.045704107731580734,
				0,
				0,
				0.9989551305770874
			],
			"scale":[
				0.04660331830382347,
				1,
				0.21310298144817352
			],
			"translation":[
				0,
				2.6042633056640625,
				-0.45576274394989014
			]
		},
		{
			"mesh":1,
			"name":"Plank3",
			"scale":[
				0.04660331830382347,
				1,
				0.21310298144817352
			],
			"translation":[
				0,
				2.6042633056640625,
				0.45892778038978577
			]
		},
		{
			"mesh":2,
			"name":"Plank5",
			"rotation":[
				-0.04135340824723244,
				0,
				0,
				0.9991446733474731
			],
			"scale":[
				0.04660331830382347,
				1,
				0.21310298144817352
			],
			"translation":[
				0,
				2.632615327835083,
				-1.0470001697540283
			]
		},
		{
			"mesh":3,
			"name":"CrossBoard",
			"scale":[
				0.03722019121050835,
				0.17381852865219116,
				1.126047134399414
			],
			"translation":[
				-0.08710481971502304,
				2.85489821434021,
				0
			]
		},
		{
			"mesh":4,
			"name":"CrossBoard.001",
			"rotation":[
				-0.16160328686237335,
				0,
				0,
				0.9868558049201965
			],
			"scale":[
				0.03722019121050835,
				0.17381852865219116,
				1.1260470151901245
			],
			"translation":[
				-0.08710481971502304,
				0.5045621991157532,
				0
			]
		}
	],
	"materials":[
		{
			"doubleSided":true,
			"name":"Wood",
			"pbrMetallicRoughness":{
				"baseColorFactor":[
					0.1901775300502777,
					0.11401450634002686,
					0.06387865543365479,
					1
				],
				"metallicFactor":0,
				"roughnessFactor":0.5
			}
		}
	],
	"meshes":[
		{
			"name":"Cube.002",
			"primitives":[
				{
					"attributes":{
						"POSITION":0,
						"NORMAL":1,
						"TEXCOORD_0":2
					},
					"indices":3,
					"material":0
				}
			]
		},
		{
			"name":"Cube.003",
			"primitives":[
				{
					"attributes":{
						"POSITION":4,
						"NORMAL":5,
						"TEXCOORD_0":6
					},
					"indices":7,
					"material":0
				}
			]
		},
		{
			"name":"Cube.005",
			"primitives":[
				{
					"attributes":{
						"POSITION":8,
						"NORMAL":9,
						"TEXCOORD_0":10
					},
					"indices":7,
					"material":0
				}
			]
		},
		{
			"name":"Cube.006",
			"primitives":[
				{
					"attributes":{
						"POSITION":11,
						"NORMAL":12,
						"TEXCOORD_0":13
					},
					"indices":14,
					"material":0
				}
			]
		},
		{
			"name":"Cube.007",
			"primitives":[
				{
					"attributes":{
						"POSITION":15,
						"NORMAL":16,
						"TEXCOORD_0":17
					},
					"indices":14,
					"material":0
				}
			]
		}
	],
	"accessors":[
		{
			"bufferView":0,
			"componentType":5126,
			"count":59,
			"max":[
				1,
				1.1962056159973145,
				1
			],
			"min":[
				-1,
				-1.8246593475341797,
				-1
			],
			"type":"VEC3"
		},
		{
			"bufferView":1,
			"componentType":5126,
			"count":59,
			"type":"VEC3"
		},
		{
			"bufferView":2,
			"componentType":5126,
			"count":59,
			"type":"VEC2"
		},
		{
			"bufferView":3,
			"componentType":5123,
			"count":105,
			"type":"SCALAR"
		},
		{
			"bufferView":4,
			"componentType":5126,
			"count":30,
			"max":[
				1,
				1.1962056159973145,
				1
			],
			"min":[
				-1,
				-2.6144940853118896,
				-1
			],
			"type":"VEC3"
		},
		{
			"bufferView":5,
			"componentType":5126,
			"count":30,
			"type":"VEC3"
		},
		{
			"bufferView":6,
			"componentType":5126,
			"count":30,
			"type":"VEC2"
		},
		{
			"bufferView":7,
			"componentType":5123,
			"count":48,
			"type":"SCALAR"
		},
		{
			"bufferView":8,
			"componentType":5126,
			"count":30,
			"max":[
				1,
				1.1962056159973145,
				1
			],
			"min":[
				-1,
				-2.6144940853118896,
				-1
			],
			"type":"VEC3"
		},
		{
			"bufferView":9,
			"componentType":5126,
			"count":30,
			"type":"VEC3"
		},
		{
			"bufferView":10,
			"componentType":5126,
			"count":30,
			"type":"VEC2"
		},
		{
			"bufferView":11,
			"componentType":5126,
			"count":24,
			"max":[
				1,
				1,
				1
			],
			"min":[
				-1,
				-1,
				-1
			],
			"type":"VEC3"
		},
		{
			"bufferView":12,
			"componentType":5126,
			"count":24,
			"type":"VEC3"
		},
		{
			"bufferView":13,
			"componentType":5126,
			"count":24,
			"type":"VEC2"
		},
		{
			"bufferView":14,
			"componentType":5123,
			"count":36,
			"type":"SCALAR"
		},
		{
			"bufferView":15,
			"componentType":5126,
			"count":24,
			"max":[
				1,
				1,
				1
			],
			"min":[
				-1,
				-1,
				-1
			],
			"type":"VEC3"
		},
		{
			"bufferView":16,
			"componentType":5126,
			"count":24,
			"type":"VEC3"
		},
		{
			"bufferView":17,
			"componentType":5126,
			"count":24,
			"type":"VEC2"
		}
	],
	"bufferViews":[
		{
			"buffer":0,
			"byteLength":708,
			"byteOffset":0,
			"target":34962
		},
		{
			"buffer":0,
			"byteLength":708,
			"byteOffset":708,
			"target":34962
		},
		{
			"buffer":0,
			"byteLength":472,
			"byteOffset":1416,
			"target":34962
		},
		{
			"buffer":0,
			"byteLength":210,
			"byteOffset":1888,
			"target":34963
		},
		{
			"buffer":0,
			"byteLength":360,
			"byteOffset":2100,
			"target":34962
		},
		{
			"buffer":0,
			"byteLength":360,
			"byteOffset":2460,
			"target":34962
		},
		{
			"buffer":0,
			"byteLength":240,
			"byteOffset":2820,
			"target":34962
		},
		{
			"buffer":0,
			"byteLength":96,
			"byteOffset":3060,
			"target":34963
		},
		{
			"buffer":0,
			"byteLength":360,
			"byteOffset":3156,
			"target":34962
		},
		{
			"buffer":0,
			"byteLength":360,
			"byteOffset":3516,
			"target":34962
		},
		{
			"buffer":0,
			"byteLength":240,
			"byteOffset":3876,
			"target":34962
		},
		{
			"buffer":0,
			"byteLength":288,
			"byteOffset":4116,
			"target":34962
		},
		{
			"buffer":0,
			"byteLength":288,
			"byteOffset":4404,
			"target":34962
		},
		{
			"buffer":0,
			"byteLength":192,
			"byteOffset":4692,
			"target":34962
		},
		{
			"buffer":0,
			"byteLength":72,
			"byteOffset":4884,
			"target":34963
		},
		{
			"buffer":0,
			"byteLength":288,
			"byteOffset":4956,
			"target":34962
		},
		{
			"buffer":0,
			"byteLength":288,
			"byteOffset":5244,
			"target":34962
		},
		{
			"buffer":0,
			"byteLength":192,
			"byteOffset":5532,
			"target":34962
		}
	],
	"buffers":[
		{
			"byteLength":5724,
			"uri":"data:application/octet-stream;base64,"
		}
	]
}
