{
	"asset":{
		"generator":"Khronos glTF Blender I/O v3.6.27",
		"version":"2.0"
	},
	"scene":0,
	"scenes":[
		{
			"name":"Scene",
			"nodes":[
				0,
				1,
				2,
				3,
				4
			]
		}
	],
	"nodes":[
		{
			"mesh":0,
			"name":"Plank1",
			"rotation":[
				0.0629739835858345,
				0,
				0,
				0.9980151653289795
			],
			"scale":[
				0.04660331830382347,
				1,
				0.21310296654701233
			],
			"translation":[
				0,
				0.9635173082351685,
				0.21657848358154297
			]
		},
		{
			"mesh":1,
			"name":"Plank2",
			"rotation":[
				0.03168660029768944,
				0,
				0,
				0.9994978904724121
			],
			"scale":[
				0.04660331830382347,
				1,
				0.21310298144817352
			],
			"translation":[
				0,
				0.9635173082351685,
				-0.29168814420700073
			]
		},
		{
			"mesh":2,
			"name":"Plank4",
			"rotation":[
				0,
				0,
				-0.044586461037397385,
				0.9990055561065674
			],
			"scale":[
				0.04660331830382347,
				1,
				0.21310298144817352
			],
			"translation":[
				0.06562983989715576,
				0.9635173082351685,
				0.9178555607795715
			]
		},
		{
			"mesh":3,
			"name":"Plank5",
			"rotation":[
				-0.05398618429899216,
				0,
				0,
				0.9985417127609253
			],
			"scale":[
				0.04660331830382347,
				1,
				0.21310296654701233
			],
			"translation":[
				0,
				0.9635173082351685,
				-0.9146904349327087
			]
		},
		{
			"mesh":4,
			"name":"CrossBoard",
			"rotation":[
				0.26507866382598877,
				0,
				0,
				0.9642269015312195
			],
			"scale":[
				0.03722019121050835,
				0.17381851375102997,
				1.1260470151901245
			],
			"translation":[
				-0.08710481971502304,
				0.6891133189201355,
				-0.04594089090824127
			]
		}
	],
	"materials":[
		{
			"doubleSided":true,
			"name":"Wood",
			"pbrMetallicRoughness":{
				"baseColorFactor":[
					0.1901775300502777,
					0.11401450634002686,
					0.06387865543365479,
					1
				],
				"metallicFactor":0,
				"roughnessFactor":0.5
			}
		}
	],
	"meshes":[
		{
			"name":"Cube.001",
			"primitives":[
				{
					"attributes":{
						"POSITION":0,
						"NORMAL":1,
						"TEXCOORD_0":2
					},
					"indices":3,
					"material":0
				}
			]
		},
		{
			"name":"Cube.002",
			"primitives":[
				{
					"attributes":{
						"POSITION":4,
						"NORMAL":5,
						"TEXCOORD_0":6
					},
					"indices":3,
					"material":0
				}
			]
		},
		{
			"name":"Cube.004",
			"primitives":[
				{
					"attributes":{
						"POSITION":7,
						"NORMAL":8,
						"TEXCOORD_0":9
					},
					"indices":3,
					"material":0
				}
			]
		},
		{
			"name":"Cube.005",
			"primitives":[
				{
					"attributes":{
						"POSITION":10,
						"NORMAL":11,
						"TEXCOORD_0":12
					},
					"indices":3,
					"material":0
				}
			]
		},
		{
			"name":"Cube.006",
			"primitives":[
				{
					"attributes":{
						"POSITION":13,
						"NORMAL":14,
						"TEXCOORD_0":15
					},
					"indices":16,
					"material":0
				}
			]
		}
	],
	"accessors":[
		{
			"bufferView":0,
			"componentType":5126,
			"count":30,
			"max":[
				1,
				1.1962056159973145,
				1
			],
			"min":[
				-1,
				-1,
				-1
			],
			"type":"VEC3"
		},
		{
			"bufferView":1,
			"componentType":5126,
			"count":30,
			"type":"VEC3"
		},
		{
			"bufferView":2,
			"componentType":5126,
			"count":30,
			"type":"VEC2"
		},
		{
			"bufferView":3,
			"componentType":5123,
			"count":48,
			"type":"SCALAR"
		},
		{
			"bufferView":4,
			"componentType":5126,
			"count":30,
			"max":[
				1,
				1.1962056159973145,
				1
			],
			"min":[
				-1,
				-1,
				-1
			],
			"type":"VEC3"
		},
		{
			"bufferView":5,
			"componentType":5126,
			"count":30,
			"type":"VEC3"
		},
		{
			"bufferView":6,
			"componentType":5126,
			"count":30,
			"type":"VEC2"
		},
		{
			"bufferView":7,
			"componentType":5126,
			"count":30,
			"max":[
				1,
				1.1962056159973145,
				1
			],
			"min":[
				-1,
				-1,
				-1
			],
			"type":"VEC3"
		},
		{
			"bufferView":8,
			"componentType":5126,
			"count":30,
			"type":"VEC3"
		},
		{
			"bufferView":9,
			"componentType":5126,
			"count":30,
			"type":"VEC2"
		},
		{
			"bufferView":10,
			"componentType":5126,
			"count":30,
			"max":[
				1,
				1.1962056159973145,
				1
			],
			"min":[
				-1,
				-1,
				-1
			],
			"type":"VEC3"
		},
		{
			"bufferView":11,
			"componentType":5126,
			"count":30,
			"type":"VEC3"
		},
		{
			"bufferView":12,
			"componentType":5126,
			"count":30,
			"type":"VEC2"
		},
		{
			"bufferView":13,
			"componentType":5126,
			"count":24,
			"max":[
				1,
				1,
				1
			],
			"min":[
				-1,
				-1,
				-1
			],
			"type":"VEC3"
		},
		{
			"bufferView":14,
			"componentType":5126,
			"count":24,
			"type":"VEC3"
		},
		{
			"bufferView":15,
			"componentType":5126,
			"count":24,
			"type":"VEC2"
		},
		{
			"bufferView":16,
			"componentType":5123,
			"count":36,
			"type":"SCALAR"
		}
	],
	"bufferViews":[
		{
			"buffer":0,
			"byteLength":360,
			"byteOffset":0,
			"target":34962
		},
		{
			"buffer":0,
			"byteLength":360,
			"byteOffset":360,
			"target":34962
		},
		{
			"buffer":0,
			"byteLength":240,
			"byteOffset":720,
			"target":34962
		},
		{
			"buffer":0,
			"byteLength":96,
			"byteOffset":960,
			"target":34963
		},
		{
			"buffer":0,
			"byteLength":360,
			"byteOffset":1056,
			"target":34962
		},
		{
			"buffer":0,
			"byteLength":360,
			"byteOffset":1416,
			"target":34962
		},
		{
			"buffer":0,
			"byteLength":240,
			"byteOffset":1776,
			"target":34962
		},
		{
			"buffer":0,
			"byteLength":360,
			"byteOffset":2016,
			"target":34962
		},
		{
			"buffer":0,
			"byteLength":360,
			"byteOffset":2376,
			"target":34962
		},
		{
			"buffer":0,
			"byteLength":240,
			"byteOffset":2736,
			"target":34962
		},
		{
			"buffer":0,
			"byteLength":360,
			"byteOffset":2976,
			"target":34962
		},
		{
			"buffer":0,
			"byteLength":360,
			"byteOffset":3336,
			"target":34962
		},
		{
			"buffer":0,
			"byteLength":240,
			"byteOffset":3696,
			"target":34962
		},
		{
			"buffer":0,
			"byteLength":288,
			"byteOffset":3936,
			"target":34962
		},
		{
			"buffer":0,
			"byteLength":288,
			"byteOffset":4224,
			"target":34962
		},
		{
			"buffer":0,
			"byteLength":192,
			"byteOffset":4512,
			"target":34962
		},
		{
			"buffer":0,
			"byteLength":72,
			"byteOffset":4704,
			"target":34963
		}
	],
	"buffers":[
		{
			"byteLength":4776,
			"uri":"data:application/octet-stream;base64,"
		}
	]
}
