{
	"asset":{
		"generator":"Khronos glTF Blender I/O v5.0.21",
		"version":"2.0"
	},
	"scene":0,
	"scenes":[
		{
			"name":"Scene",
			"nodes":[
				0,
				1,
				2,
				3,
				4,
				5,
				6,
				7,
				8
			]
		}
	],
	"nodes":[
		{
			"mesh":0,
			"name":"Cube-col",
			"translation":[
				-0.40303850173950195,
				2.540921688079834,
				-0.02797865867614746
			]
		},
		{
			"mesh":1,
			"name":"L Leg",
			"rotation":[
				0,
				0,
				1,
				4.371138828673793e-08
			],
			"translation":[
				-0.3284494876861572,
				1.1781673431396484,
				4.126285552978516
			]
		},
		{
			"mesh":2,
			"name":"R Leg",
			"rotation":[
				0,
				0,
				1,
				4.371138828673793e-08
			],
			"translation":[
				-0.3284494876861572,
				1.1781673431396484,
				-4.20921516418457
			]
		},
		{
			"mesh":3,
			"name":"Drawer",
			"scale":[
				1.5686700344085693,
				0.543444037437439,
				1
			],
			"translation":[
				0,
				1.8580117225646973,
				2.6613686084747314
			]
		},
		{
			"mesh":4,
			"name":"Inner Drawer",
			"scale":[
				1.5686700344085693,
				0.37560999393463135,
				0.8378459811210632
			],
			"translation":[
				-0.005792975425720215,
				1.8507680892944336,
				2.696761131286621
			]
		},
		{
			"mesh":5,
			"name":"Handle",
			"rotation":[
				0.5,
				0.5,
				-0.5,
				0.5
			],
			"translation":[
				1.6383094787597656,
				1.8754009008407593,
				2.7157504558563232
			]
		},
		{
			"mesh":6,
			"name":"Inner Drawer.001",
			"scale":[
				1.5686700344085693,
				0.37560999393463135,
				0.8378459811210632
			],
			"translation":[
				-0.005792975425720215,
				1.8507680892944336,
				-2.7231979370117188
			]
		},
		{
			"mesh":7,
			"name":"Handle.001",
			"rotation":[
				0.5,
				0.5,
				-0.5,
				0.5
			],
			"translation":[
				1.6383094787597656,
				1.8754009008407593,
				-2.7042083740234375
			]
		},
		{
			"mesh":8,
			"name":"Drawer.001",
			"scale":[
				1.5686700344085693,
				0.543444037437439,
				1
			],
			"translation":[
				0,
				1.8580117225646973,
				-2.7585902214050293
			]
		}
	],
	"materials":[
		{
			"doubleSided":true,
			"name":"Wood",
			"pbrMetallicRoughness":{
				"baseColorTexture":{
					"index":0
				},
				"metallicFactor":0,
				"roughnessFactor":0.5
			}
		},
		{
			"doubleSided":true,
			"name":"GreyPlastic",
			"pbrMetallicRoughness":{
				"baseColorTexture":{
					"index":1
				},
				"metallicFactor":0,
				"roughnessFactor":0.5
			}
		},
		{
			"doubleSided":true,
			"name":"ShinyMetal",
			"pbrMetallicRoughness":{
				"baseColorTexture":{
					"index":2
				},
				"metallicFactor":0,
				"roughnessFactor":0.5
			}
		}
	],
	"meshes":[
		{
			"name":"Cube.001",
			"primitives":[
				{
					"attributes":{
						"POSITION":0,
						"NORMAL":1,
						"TEXCOORD_0":2
					},
					"indices":3,
					"material":0
				}
			]
		},
		{
			"name":"Cube.002",
			"primitives":[
				{
					"attributes":{
						"POSITION":4,
						"NORMAL":5,
						"TEXCOORD_0":6
					},
					"indices":3,
					"material":1
				}
			]
		},
		{
			"name":"Cube.003",
			"primitives":[
				{
					"attributes":{
						"POSITION":7,
						"NORMAL":8,
						"TEXCOORD_0":9
					},
					"indices":3,
					"material":1
				}
			]
		},
		{
			"name":"Cube.004",
			"primitives":[
				{
					"attributes":{
						"POSITION":10,
						"NORMAL":11,
						"TEXCOORD_0":12
					},
					"indices":13,
					"material":0
				}
			]
		},
		{
			"name":"Cube.005",
			"primitives":[
				{
					"attributes":{
						"POSITION":14,
						"NORMAL":15,
						"TEXCOORD_0":16
					},
					"indices":17,
					"material":0
				}
			]
		},
		{
			"name":"Cube.007",
			"primitives":[
				{
					"attributes":{
						"POSITION":18,
						"NORMAL":19,
						"TEXCOORD_0":20
					},
					"indices":3,
					"material":2
				}
			]
		},
		{
			"name":"Cube.009",
			"primitives":[
				{
					"attributes":{
						"POSITION":21,
						"NORMAL":22,
						"TEXCOORD_0":23
					},
					"indices":17,
					"material":0
				}
			]
		},
		{
			"name":"Cube.008",
			"primitives":[
				{
					"attributes":{
						"POSITION":24,
						"NORMAL":25,
						"TEXCOORD_0":26
					},
					"indices":3,
					"material":2
				}
			]
		},
		{
			"name":"Cube.010",
			"primitives":[
				{
					"attributes":{
						"POSITION":27,
						"NORMAL":28,
						"TEXCOORD_0":29
					},
					"indices":13,
					"material":0
				}
			]
		}
	],
	"textures":[
		{
			"sampler":0,
			"source":0
		},
		{
			"sampler":0,
			"source":1
		},
		{
			"sampler":0,
			"source":2
		}
	],
	"images":[
		{
			"mimeType":"image/jpeg",
			"name":"wood_material",
			"uri":"wood_material.jpg"
		},
		{
			"mimeType":"image/png",
			"name":"BatteredMetal01",
			"uri":"BatteredMetal01.png"
		},
		{
			"mimeType":"image/jpeg",
			"name":"shiny_metal_material",
			"uri":"shiny_metal_material.jpg"
		}
	],
	"accessors":[
		{
			"bufferView":0,
			"componentType":5126,
			"count":24,
			"max":[
				2.560117244720459,
				0.15555500984191895,
				4.9979143142700195
			],
			"min":[
				-2.560117244720459,
				-0.15555500984191895,
				-4.9979143142700195
			],
			"type":"VEC3"
		},
		{
			"bufferView":1,
			"componentType":5126,
			"count":24,
			"type":"VEC3"
		},
		{
			"bufferView":2,
			"componentType":5126,
			"count":24,
			"type":"VEC2"
		},
		{
			"bufferView":3,
			"componentType":5123,
			"count":36,
			"type":"SCALAR"
		},
		{
			"bufferView":4,
			"componentType":5126,
			"count":24,
			"max":[
				1.958726167678833,
				1.2071988582611084,
				0.36872780323028564
			],
			"min":[
				-1.958726167678833,
				-1.2071988582611084,
				-0.36872780323028564
			],
			"type":"VEC3"
		},
		{
			"bufferView":5,
			"componentType":5126,
			"count":24,
			"type":"VEC3"
		},
		{
			"bufferView":6,
			"componentType":5126,
			"count":24,
			"type":"VEC2"
		},
		{
			"bufferView":7,
			"componentType":5126,
			"count":24,
			"max":[
				1.958726167678833,
				1.2071988582611084,
				0.36872780323028564
			],
			"min":[
				-1.958726167678833,
				-1.2071988582611084,
				-0.36872780323028564
			],
			"type":"VEC3"
		},
		{
			"bufferView":8,
			"componentType":5126,
			"count":24,
			"type":"VEC3"
		},
		{
			"bufferView":9,
			"componentType":5126,
			"count":24,
			"type":"VEC2"
		},
		{
			"bufferView":10,
			"componentType":5126,
			"count":48,
			"max":[
				1,
				1.000000238418579,
				0.9999997615814209
			],
			"min":[
				-1,
				-0.9999997615814209,
				-1.000000238418579
			],
			"type":"VEC3"
		},
		{
			"bufferView":11,
			"componentType":5126,
			"count":48,
			"type":"VEC3"
		},
		{
			"bufferView":12,
			"componentType":5126,
			"count":48,
			"type":"VEC2"
		},
		{
			"bufferView":13,
			"componentType":5123,
			"count":84,
			"type":"SCALAR"
		},
		{
			"bufferView":14,
			"componentType":5126,
			"count":48,
			"max":[
				1,
				0.999999463558197,
				0.9999997615814209
			],
			"min":[
				-1,
				-1.0000004768371582,
				-1.000000238418579
			],
			"type":"VEC3"
		},
		{
			"bufferView":15,
			"componentType":5126,
			"count":48,
			"type":"VEC3"
		},
		{
			"bufferView":16,
			"componentType":5126,
			"count":48,
			"type":"VEC2"
		},
		{
			"bufferView":17,
			"componentType":5123,
			"count":84,
			"type":"SCALAR"
		},
		{
			"bufferView":18,
			"componentType":5126,
			"count":24,
			"max":[
				0.3457326889038086,
				0.07543236017227173,
				0.05325019359588623
			],
			"min":[
				-0.3457326889038086,
				-0.07543236017227173,
				-0.05325019359588623
			],
			"type":"VEC3"
		},
		{
			"bufferView":19,
			"componentType":5126,
			"count":24,
			"type":"VEC3"
		},
		{
			"bufferView":20,
			"componentType":5126,
			"count":24,
			"type":"VEC2"
		},
		{
			"bufferView":21,
			"componentType":5126,
			"count":48,
			"max":[
				1,
				0.999999463558197,
				0.9999997615814209
			],
			"min":[
				-1,
				-1.0000004768371582,
				-1.000000238418579
			],
			"type":"VEC3"
		},
		{
			"bufferView":22,
			"componentType":5126,
			"count":48,
			"type":"VEC3"
		},
		{
			"bufferView":23,
			"componentType":5126,
			"count":48,
			"type":"VEC2"
		},
		{
			"bufferView":24,
			"componentType":5126,
			"count":24,
			"max":[
				0.3457326889038086,
				0.07543236017227173,
				0.05325019359588623
			],
			"min":[
				-0.3457326889038086,
				-0.07543236017227173,
				-0.05325019359588623
			],
			"type":"VEC3"
		},
		{
			"bufferView":25,
			"componentType":5126,
			"count":24,
			"type":"VEC3"
		},
		{
			"bufferView":26,
			"componentType":5126,
			"count":24,
			"type":"VEC2"
		},
		{
			"bufferView":27,
			"componentType":5126,
			"count":48,
			"max":[
				1,
				1.000000238418579,
				0.9999997615814209
			],
			"min":[
				-1,
				-0.9999997615814209,
				-1.000000238418579
			],
			"type":"VEC3"
		},
		{
			"bufferView":28,
			"componentType":5126,
			"count":48,
			"type":"VEC3"
		},
		{
			"bufferView":29,
			"componentType":5126,
			"count":48,
			"type":"VEC2"
		}
	],
	"bufferViews":[
		{
			"buffer":0,
			"byteLength":288,
			"byteOffset":0,
			"target":34962
		},
		{
			"buffer":0,
			"byteLength":288,
			"byteOffset":288,
			"target":34962
		},
		{
			"buffer":0,
			"byteLength":192,
			"byteOffset":576,
			"target":34962
		},
		{
			"buffer":0,
			"byteLength":72,
			"byteOffset":768,
			"target":34963
		},
		{
			"buffer":0,
			"byteLength":288,
			"byteOffset":840,
			"target":34962
		},
		{
			"buffer":0,
			"byteLength":288,
			"byteOffset":1128,
			"target":34962
		},
		{
			"buffer":0,
			"byteLength":192,
			"byteOffset":1416,
			"target":34962
		},
		{
			"buffer":0,
			"byteLength":288,
			"byteOffset":1608,
			"target":34962
		},
		{
			"buffer":0,
			"byteLength":288,
			"byteOffset":1896,
			"target":34962
		},
		{
			"buffer":0,
			"byteLength":192,
			"byteOffset":2184,
			"target":34962
		},
		{
			"buffer":0,
			"byteLength":576,
			"byteOffset":2376,
			"target":34962
		},
		{
			"buffer":0,
			"byteLength":576,
			"byteOffset":2952,
			"target":34962
		},
		{
			"buffer":0,
			"byteLength":384,
			"byteOffset":3528,
			"target":34962
		},
		{
			"buffer":0,
			"byteLength":168,
			"byteOffset":3912,
			"target":34963
		},
		{
			"buffer":0,
			"byteLength":576,
			"byteOffset":4080,
			"target":34962
		},
		{
			"buffer":0,
			"byteLength":576,
			"byteOffset":4656,
			"target":34962
		},
		{
			"buffer":0,
			"byteLength":384,
			"byteOffset":5232,
			"target":34962
		},
		{
			"buffer":0,
			"byteLength":168,
			"byteOffset":5616,
			"target":34963
		},
		{
			"buffer":0,
			"byteLength":288,
			"byteOffset":5784,
			"target":34962
		},
		{
			"buffer":0,
			"byteLength":288,
			"byteOffset":6072,
			"target":34962
		},
		{
			"buffer":0,
			"byteLength":192,
			"byteOffset":6360,
			"target":34962
		},
		{
			"buffer":0,
			"byteLength":576,
			"byteOffset":6552,
			"target":34962
		},
		{
			"buffer":0,
			"byteLength":576,
			"byteOffset":7128,
			"target":34962
		},
		{
			"buffer":0,
			"byteLength":384,
			"byteOffset":7704,
			"target":34962
		},
		{
			"buffer":0,
			"byteLength":288,
			"byteOffset":8088,
			"target":34962
		},
		{
			"buffer":0,
			"byteLength":288,
			"byteOffset":8376,
			"target":34962
		},
		{
			"buffer":0,
			"byteLength":192,
			"byteOffset":8664,
			"target":34962
		},
		{
			"buffer":0,
			"byteLength":576,
			"byteOffset":8856,
			"target":34962
		},
		{
			"buffer":0,
			"byteLength":576,
			"byteOffset":9432,
			"target":34962
		},
		{
			"buffer":0,
			"byteLength":384,
			"byteOffset":10008,
			"target":34962
		}
	],
	"samplers":[
		{
			"magFilter":9729,
			"minFilter":9987
		}
	],
	"buffers":[
		{
			"byteLength":10392,
			"uri":"basic_wood_desk.bin"
		}
	]
}
