{
	"asset":{
		"generator":"Khronos glTF Blender I/O v5.0.21",
		"version":"2.0"
	},
	"extensionsUsed":[
		"KHR_materials_specular",
		"KHR_materials_ior"
	],
	"scene":0,
	"scenes":[
		{
			"name":"Scene",
			"nodes":[
				0,
				1,
				2,
				3,
				4,
				5,
				6,
				7
			]
		}
	],
	"nodes":[
		{
			"mesh":0,
			"name":"Top",
			"scale":[
				0.49212944507598877,
				1,
				0.8171290755271912
			],
			"translation":[
				0.5042287111282349,
				2.540921688079834,
				-0.9664856195449829
			]
		},
		{
			"mesh":1,
			"name":"Body-col",
			"rotation":[
				0,
				0,
				1,
				4.371138828673793e-08
			],
			"scale":[
				0.6029120087623596,
				1,
				4.743978500366211
			],
			"translation":[
				0.499431848526001,
				1.1781673431396484,
				-2.942558765411377
			]
		},
		{
			"mesh":2,
			"name":"Drawer",
			"scale":[
				1.5686700344085693,
				0.543444037437439,
				1.3747079372406006
			],
			"translation":[
				0.17282533645629883,
				0.61996990442276,
				-3.0057003498077393
			]
		},
		{
			"mesh":3,
			"name":"Inner Drawer",
			"scale":[
				1.5686700344085693,
				0.37560996413230896,
				1.1517934799194336
			],
			"translation":[
				0.1670323610305786,
				0.6127262711524963,
				-2.957045793533325
			]
		},
		{
			"mesh":4,
			"name":"Handle",
			"rotation":[
				0.5,
				0.5,
				-0.5,
				0.5
			],
			"scale":[
				1.3747079372406006,
				1,
				1
			],
			"translation":[
				1.8111348152160645,
				0.637359082698822,
				-2.930941104888916
			]
		},
		{
			"mesh":5,
			"name":"Inner Drawer.001",
			"scale":[
				1.5686700344085693,
				0.37560996413230896,
				1.1517934799194336
			],
			"translation":[
				0.16156315803527832,
				1.7846131324768066,
				-2.957475185394287
			]
		},
		{
			"mesh":6,
			"name":"Handle.001",
			"rotation":[
				0.5,
				0.5,
				-0.5,
				0.5
			],
			"scale":[
				1.3747079372406006,
				1,
				1
			],
			"translation":[
				1.8111348152160645,
				1.8092459440231323,
				-2.931370258331299
			]
		},
		{
			"mesh":7,
			"name":"Drawer.001",
			"scale":[
				1.5686700344085693,
				0.543444037437439,
				1.3747079372406006
			],
			"translation":[
				0.17282533645629883,
				1.7918567657470703,
				-3.006129264831543
			]
		}
	],
	"materials":[
		{
			"doubleSided":true,
			"extensions":{
				"KHR_materials_specular":{
					"specularFactor":0
				},
				"KHR_materials_ior":{
					"ior":1.4500000476837158
				}
			},
			"name":"Wood",
			"pbrMetallicRoughness":{
				"baseColorTexture":{
					"index":0
				},
				"metallicFactor":0,
				"roughnessFactor":0.4055117964744568
			}
		},
		{
			"doubleSided":true,
			"extensions":{
				"KHR_materials_specular":{
					"specularFactor":0
				},
				"KHR_materials_ior":{
					"ior":1.4500000476837158
				}
			},
			"name":"BodyWood",
			"pbrMetallicRoughness":{
				"metallicFactor":0,
				"roughnessFactor":0.5
			}
		},
		{
			"doubleSided":true,
			"extensions":{
				"KHR_materials_specular":{
					"specularFactor":0
				},
				"KHR_materials_ior":{
					"ior":1.4500000476837158
				}
			},
			"name":"ShinyMetal",
			"pbrMetallicRoughness":{
				"baseColorTexture":{
					"index":1
				},
				"roughnessFactor":0.5
			}
		}
	],
	"meshes":[
		{
			"name":"Cube.001",
			"primitives":[
				{
					"attributes":{
						"POSITION":0,
						"NORMAL":1,
						"TEXCOORD_0":2
					},
					"indices":3,
					"material":0
				}
			]
		},
		{
			"name":"Cube.003",
			"primitives":[
				{
					"attributes":{
						"POSITION":4,
						"NORMAL":5,
						"TEXCOORD_0":6
					},
					"indices":7,
					"material":1
				}
			]
		},
		{
			"name":"Cube.004",
			"primitives":[
				{
					"attributes":{
						"POSITION":8,
						"NORMAL":9,
						"TEXCOORD_0":10
					},
					"indices":11,
					"material":0
				}
			]
		},
		{
			"name":"Cube.005",
			"primitives":[
				{
					"attributes":{
						"POSITION":12,
						"NORMAL":13,
						"TEXCOORD_0":14
					},
					"indices":15,
					"material":0
				}
			]
		},
		{
			"name":"Cube.007",
			"primitives":[
				{
					"attributes":{
						"POSITION":16,
						"NORMAL":17,
						"TEXCOORD_0":18
					},
					"indices":3,
					"material":2
				}
			]
		},
		{
			"name":"Cube.009",
			"primitives":[
				{
					"attributes":{
						"POSITION":19,
						"NORMAL":20,
						"TEXCOORD_0":21
					},
					"indices":15,
					"material":0
				}
			]
		},
		{
			"name":"Cube.008",
			"primitives":[
				{
					"attributes":{
						"POSITION":22,
						"NORMAL":23,
						"TEXCOORD_0":24
					},
					"indices":3,
					"material":2
				}
			]
		},
		{
			"name":"Cube.010",
			"primitives":[
				{
					"attributes":{
						"POSITION":25,
						"NORMAL":26,
						"TEXCOORD_0":27
					},
					"indices":11,
					"material":0
				}
			]
		}
	],
	"textures":[
		{
			"sampler":0,
			"source":0
		},
		{
			"sampler":1,
			"source":1
		}
	],
	"images":[
		{
			"mimeType":"image/jpeg",
			"name":"wood_material",
			"uri":"wood_material.jpg"
		},
		{
			"mimeType":"image/jpeg",
			"name":"shiny_metal_material",
			"uri":"shiny_metal_material.jpg"
		}
	],
	"accessors":[
		{
			"bufferView":0,
			"componentType":5126,
			"count":24,
			"max":[
				2.560117244720459,
				0.15555500984191895,
				-0.1476609706878662
			],
			"min":[
				-2.560117244720459,
				-0.15555500984191895,
				-4.6862592697143555
			],
			"type":"VEC3"
		},
		{
			"bufferView":1,
			"componentType":5126,
			"count":24,
			"type":"VEC3"
		},
		{
			"bufferView":2,
			"componentType":5126,
			"count":24,
			"type":"VEC2"
		},
		{
			"bufferView":3,
			"componentType":5123,
			"count":36,
			"type":"SCALAR"
		},
		{
			"bufferView":4,
			"componentType":5126,
			"count":24,
			"max":[
				1.958726167678833,
				1.2071988582611084,
				0.36872780323028564
			],
			"min":[
				-1.958726167678833,
				-1.2071988582611084,
				-0.36872780323028564
			],
			"type":"VEC3"
		},
		{
			"bufferView":5,
			"componentType":5126,
			"count":24,
			"type":"VEC3"
		},
		{
			"bufferView":6,
			"componentType":5126,
			"count":24,
			"type":"VEC2"
		},
		{
			"bufferView":7,
			"componentType":5123,
			"count":36,
			"type":"SCALAR"
		},
		{
			"bufferView":8,
			"componentType":5126,
			"count":48,
			"max":[
				1,
				1.000000238418579,
				0.9999997615814209
			],
			"min":[
				-0.48187947273254395,
				-0.9999997615814209,
				-1.000000238418579
			],
			"type":"VEC3"
		},
		{
			"bufferView":9,
			"componentType":5126,
			"count":48,
			"type":"VEC3"
		},
		{
			"bufferView":10,
			"componentType":5126,
			"count":48,
			"type":"VEC2"
		},
		{
			"bufferView":11,
			"componentType":5123,
			"count":84,
			"type":"SCALAR"
		},
		{
			"bufferView":12,
			"componentType":5126,
			"count":48,
			"max":[
				1,
				0.999999463558197,
				0.9999997615814209
			],
			"min":[
				-0.48187947273254395,
				-1.0000004768371582,
				-1.000000238418579
			],
			"type":"VEC3"
		},
		{
			"bufferView":13,
			"componentType":5126,
			"count":48,
			"type":"VEC3"
		},
		{
			"bufferView":14,
			"componentType":5126,
			"count":48,
			"type":"VEC2"
		},
		{
			"bufferView":15,
			"componentType":5123,
			"count":84,
			"type":"SCALAR"
		},
		{
			"bufferView":16,
			"componentType":5126,
			"count":24,
			"max":[
				0.3457326889038086,
				0.07543236017227173,
				0.05325019359588623
			],
			"min":[
				-0.3457326889038086,
				-0.07543236017227173,
				-0.05325019359588623
			],
			"type":"VEC3"
		},
		{
			"bufferView":17,
			"componentType":5126,
			"count":24,
			"type":"VEC3"
		},
		{
			"bufferView":18,
			"componentType":5126,
			"count":24,
			"type":"VEC2"
		},
		{
			"bufferView":19,
			"componentType":5126,
			"count":48,
			"max":[
				1,
				0.999999463558197,
				0.9999997615814209
			],
			"min":[
				-0.48187947273254395,
				-1.0000004768371582,
				-1.000000238418579
			],
			"type":"VEC3"
		},
		{
			"bufferView":20,
			"componentType":5126,
			"count":48,
			"type":"VEC3"
		},
		{
			"bufferView":21,
			"componentType":5126,
			"count":48,
			"type":"VEC2"
		},
		{
			"bufferView":22,
			"componentType":5126,
			"count":24,
			"max":[
				0.3457326889038086,
				0.07543236017227173,
				0.05325019359588623
			],
			"min":[
				-0.3457326889038086,
				-0.07543236017227173,
				-0.05325019359588623
			],
			"type":"VEC3"
		},
		{
			"bufferView":23,
			"componentType":5126,
			"count":24,
			"type":"VEC3"
		},
		{
			"bufferView":24,
			"componentType":5126,
			"count":24,
			"type":"VEC2"
		},
		{
			"bufferView":25,
			"componentType":5126,
			"count":48,
			"max":[
				1,
				1.000000238418579,
				0.9999997615814209
			],
			"min":[
				-0.48187947273254395,
				-0.9999997615814209,
				-1.000000238418579
			],
			"type":"VEC3"
		},
		{
			"bufferView":26,
			"componentType":5126,
			"count":48,
			"type":"VEC3"
		},
		{
			"bufferView":27,
			"componentType":5126,
			"count":48,
			"type":"VEC2"
		}
	],
	"bufferViews":[
		{
			"buffer":0,
			"byteLength":288,
			"byteOffset":0,
			"target":34962
		},
		{
			"buffer":0,
			"byteLength":288,
			"byteOffset":288,
			"target":34962
		},
		{
			"buffer":0,
			"byteLength":192,
			"byteOffset":576,
			"target":34962
		},
		{
			"buffer":0,
			"byteLength":72,
			"byteOffset":768,
			"target":34963
		},
		{
			"buffer":0,
			"byteLength":288,
			"byteOffset":840,
			"target":34962
		},
		{
			"buffer":0,
			"byteLength":288,
			"byteOffset":1128,
			"target":34962
		},
		{
			"buffer":0,
			"byteLength":192,
			"byteOffset":1416,
			"target":34962
		},
		{
			"buffer":0,
			"byteLength":72,
			"byteOffset":1608,
			"target":34963
		},
		{
			"buffer":0,
			"byteLength":576,
			"byteOffset":1680,
			"target":34962
		},
		{
			"buffer":0,
			"byteLength":576,
			"byteOffset":2256,
			"target":34962
		},
		{
			"buffer":0,
			"byteLength":384,
			"byteOffset":2832,
			"target":34962
		},
		{
			"buffer":0,
			"byteLength":168,
			"byteOffset":3216,
			"target":34963
		},
		{
			"buffer":0,
			"byteLength":576,
			"byteOffset":3384,
			"target":34962
		},
		{
			"buffer":0,
			"byteLength":576,
			"byteOffset":3960,
			"target":34962
		},
		{
			"buffer":0,
			"byteLength":384,
			"byteOffset":4536,
			"target":34962
		},
		{
			"buffer":0,
			"byteLength":168,
			"byteOffset":4920,
			"target":34963
		},
		{
			"buffer":0,
			"byteLength":288,
			"byteOffset":5088,
			"target":34962
		},
		{
			"buffer":0,
			"byteLength":288,
			"byteOffset":5376,
			"target":34962
		},
		{
			"buffer":0,
			"byteLength":192,
			"byteOffset":5664,
			"target":34962
		},
		{
			"buffer":0,
			"byteLength":576,
			"byteOffset":5856,
			"target":34962
		},
		{
			"buffer":0,
			"byteLength":576,
			"byteOffset":6432,
			"target":34962
		},
		{
			"buffer":0,
			"byteLength":384,
			"byteOffset":7008,
			"target":34962
		},
		{
			"buffer":0,
			"byteLength":288,
			"byteOffset":7392,
			"target":34962
		},
		{
			"buffer":0,
			"byteLength":288,
			"byteOffset":7680,
			"target":34962
		},
		{
			"buffer":0,
			"byteLength":192,
			"byteOffset":7968,
			"target":34962
		},
		{
			"buffer":0,
			"byteLength":576,
			"byteOffset":8160,
			"target":34962
		},
		{
			"buffer":0,
			"byteLength":576,
			"byteOffset":8736,
			"target":34962
		},
		{
			"buffer":0,
			"byteLength":384,
			"byteOffset":9312,
			"target":34962
		}
	],
	"samplers":[
		{
			"magFilter":9728,
			"minFilter":9984
		},
		{
			"magFilter":9729,
			"minFilter":9987
		}
	],
	"buffers":[
		{
			"byteLength":9696,
			"uri":"basic_wood_nightstand.bin"
		}
	]
}
