{
	"asset":{
		"generator":"Khronos glTF Blender I/O v5.0.21",
		"version":"2.0"
	},
	"extensionsUsed":[
		"KHR_materials_specular",
		"KHR_materials_ior"
	],
	"scene":0,
	"scenes":[
		{
			"name":"Scene",
			"nodes":[
				0,
				1,
				2,
				3,
				4
			]
		}
	],
	"nodes":[
		{
			"mesh":0,
			"name":"Cube",
			"scale":[
				1.3429182767868042,
				0.20817890763282776,
				0.8057509660720825
			],
			"translation":[
				0.06230193376541138,
				0.20708447694778442,
				-0.1461721509695053
			]
		},
		{
			"mesh":1,
			"name":"Mattress",
			"scale":[
				1.3429182767868042,
				0.22917167842388153,
				0.8057509660720825
			],
			"translation":[
				0.06230193376541138,
				0.6405432820320129,
				-0.1461721509695053
			]
		},
		{
			"mesh":2,
			"name":"Pillow",
			"scale":[
				0.26858365535736084,
				0.22917167842388153,
				0.26858365535736084
			],
			"translation":[
				-0.9420061707496643,
				0.926753580570221,
				-0.4145517945289612
			]
		},
		{
			"mesh":3,
			"name":"Blanket",
			"scale":[
				1.2086265087127686,
				0.22917167842388153,
				1.3429182767868042
			],
			"translation":[
				0.5496891140937805,
				0.8730412125587463,
				-0.1461721509695053
			]
		},
		{
			"mesh":4,
			"name":"Blanket Stripe",
			"rotation":[
				1,
				0,
				0,
				0
			],
			"scale":[
				-0.12661172449588776,
				-0.23475244641304016,
				-1.3754429817199707
			],
			"translation":[
				-0.5657239556312561,
				0.8899524807929993,
				-0.1461721509695053
			]
		}
	],
	"materials":[
		{
			"doubleSided":true,
			"name":"Wood",
			"pbrMetallicRoughness":{
				"metallicFactor":0,
				"roughnessFactor":0.5
			}
		},
		{
			"doubleSided":true,
			"extensions":{
				"KHR_materials_specular":{
					"specularFactor":0
				},
				"KHR_materials_ior":{
					"ior":1.4500000476837158
				}
			},
			"name":"Mattress",
			"pbrMetallicRoughness":{
				"metallicFactor":0
			}
		},
		{
			"doubleSided":true,
			"extensions":{
				"KHR_materials_specular":{
					"specularFactor":0
				},
				"KHR_materials_ior":{
					"ior":1.4500000476837158
				}
			},
			"name":"Pillow",
			"pbrMetallicRoughness":{
				"metallicFactor":0
			}
		},
		{
			"doubleSided":true,
			"extensions":{
				"KHR_materials_specular":{
					"specularFactor":0
				},
				"KHR_materials_ior":{
					"ior":1.4500000476837158
				}
			},
			"name":"blue cloth",
			"pbrMetallicRoughness":{
				"metallicFactor":0
			}
		}
	],
	"meshes":[
		{
			"name":"Cube",
			"primitives":[
				{
					"attributes":{
						"POSITION":0,
						"NORMAL":1,
						"TEXCOORD_0":2
					},
					"indices":3,
					"material":0
				}
			]
		},
		{
			"name":"Cube.001",
			"primitives":[
				{
					"attributes":{
						"POSITION":4,
						"NORMAL":5,
						"TEXCOORD_0":6
					},
					"indices":7,
					"material":1
				}
			]
		},
		{
			"name":"Cube.002",
			"primitives":[
				{
					"attributes":{
						"POSITION":8,
						"NORMAL":9,
						"TEXCOORD_0":10
					},
					"indices":11,
					"material":2
				}
			]
		},
		{
			"name":"Plane",
			"primitives":[
				{
					"attributes":{
						"POSITION":12,
						"NORMAL":13,
						"TEXCOORD_0":14
					},
					"indices":15,
					"material":3
				}
			]
		},
		{
			"name":"Plane.001",
			"primitives":[
				{
					"attributes":{
						"POSITION":16,
						"NORMAL":17,
						"TEXCOORD_0":18
					},
					"indices":15,
					"material":1
				}
			]
		}
	],
	"accessors":[
		{
			"bufferView":0,
			"componentType":5126,
			"count":24,
			"max":[
				1,
				1,
				1
			],
			"min":[
				-1,
				-1,
				-1
			],
			"type":"VEC3"
		},
		{
			"bufferView":1,
			"componentType":5126,
			"count":24,
			"type":"VEC3"
		},
		{
			"bufferView":2,
			"componentType":5126,
			"count":24,
			"type":"VEC2"
		},
		{
			"bufferView":3,
			"componentType":5123,
			"count":36,
			"type":"SCALAR"
		},
		{
			"bufferView":4,
			"componentType":5126,
			"count":96,
			"max":[
				1,
				1,
				1
			],
			"min":[
				-1,
				-1,
				-1
			],
			"type":"VEC3"
		},
		{
			"bufferView":5,
			"componentType":5126,
			"count":96,
			"type":"VEC3"
		},
		{
			"bufferView":6,
			"componentType":5126,
			"count":96,
			"type":"VEC2"
		},
		{
			"bufferView":7,
			"componentType":5123,
			"count":132,
			"type":"SCALAR"
		},
		{
			"bufferView":8,
			"componentType":5126,
			"count":4795,
			"max":[
				1.0784391164779663,
				0.24889183044433594,
				2.6053903102874756
			],
			"min":[
				-1.0791912078857422,
				-0.2573661506175995,
				-0.49317997694015503
			],
			"type":"VEC3"
		},
		{
			"bufferView":9,
			"componentType":5126,
			"count":4795,
			"type":"VEC3"
		},
		{
			"bufferView":10,
			"componentType":5126,
			"count":4795,
			"type":"VEC2"
		},
		{
			"bufferView":11,
			"componentType":5123,
			"count":9756,
			"type":"SCALAR"
		},
		{
			"bufferView":12,
			"componentType":5126,
			"count":24,
			"max":[
				0.7322802543640137,
				0,
				0.6101418733596802
			],
			"min":[
				-1,
				-2.189008951187134,
				-0.6159489750862122
			],
			"type":"VEC3"
		},
		{
			"bufferView":13,
			"componentType":5126,
			"count":24,
			"type":"VEC3"
		},
		{
			"bufferView":14,
			"componentType":5126,
			"count":24,
			"type":"VEC2"
		},
		{
			"bufferView":15,
			"componentType":5123,
			"count":36,
			"type":"SCALAR"
		},
		{
			"bufferView":16,
			"componentType":5126,
			"count":24,
			"max":[
				0.7322802543640137,
				0,
				0.6101418733596802
			],
			"min":[
				-1,
				-2.189008951187134,
				-0.6159489750862122
			],
			"type":"VEC3"
		},
		{
			"bufferView":17,
			"componentType":5126,
			"count":24,
			"type":"VEC3"
		},
		{
			"bufferView":18,
			"componentType":5126,
			"count":24,
			"type":"VEC2"
		}
	],
	"bufferViews":[
		{
			"buffer":0,
			"byteLength":288,
			"byteOffset":0,
			"target":34962
		},
		{
			"buffer":0,
			"byteLength":288,
			"byteOffset":288,
			"target":34962
		},
		{
			"buffer":0,
			"byteLength":192,
			"byteOffset":576,
			"target":34962
		},
		{
			"buffer":0,
			"byteLength":72,
			"byteOffset":768,
			"target":34963
		},
		{
			"buffer":0,
			"byteLength":1152,
			"byteOffset":840,
			"target":34962
		},
		{
			"buffer":0,
			"byteLength":1152,
			"byteOffset":1992,
			"target":34962
		},
		{
			"buffer":0,
			"byteLength":768,
			"byteOffset":3144,
			"target":34962
		},
		{
			"buffer":0,
			"byteLength":264,
			"byteOffset":3912,
			"target":34963
		},
		{
			"buffer":0,
			"byteLength":57540,
			"byteOffset":4176,
			"target":34962
		},
		{
			"buffer":0,
			"byteLength":57540,
			"byteOffset":61716,
			"target":34962
		},
		{
			"buffer":0,
			"byteLength":38360,
			"byteOffset":119256,
			"target":34962
		},
		{
			"buffer":0,
			"byteLength":19512,
			"byteOffset":157616,
			"target":34963
		},
		{
			"buffer":0,
			"byteLength":288,
			"byteOffset":177128,
			"target":34962
		},
		{
			"buffer":0,
			"byteLength":288,
			"byteOffset":177416,
			"target":34962
		},
		{
			"buffer":0,
			"byteLength":192,
			"byteOffset":177704,
			"target":34962
		},
		{
			"buffer":0,
			"byteLength":72,
			"byteOffset":177896,
			"target":34963
		},
		{
			"buffer":0,
			"byteLength":288,
			"byteOffset":177968,
			"target":34962
		},
		{
			"buffer":0,
			"byteLength":288,
			"byteOffset":178256,
			"target":34962
		},
		{
			"buffer":0,
			"byteLength":192,
			"byteOffset":178544,
			"target":34962
		}
	],
	"buffers":[
		{
			"byteLength":178736,
			"uri":"basic_bed.bin"
		}
	]
}
