{
	"asset":{
		"generator":"Khronos glTF Blender I/O v5.0.21",
		"version":"2.0"
	},
	"scene":0,
	"scenes":[
		{
			"name":"Scene",
			"nodes":[
				0,
				1,
				2,
				3,
				4,
				5,
				6,
				7,
				8,
				9,
				10,
				11,
				12,
				13,
				14,
				15,
				16
			]
		}
	],
	"nodes":[
		{
			"mesh":0,
			"name":"Cube.001",
			"rotation":[
				0.7071068286895752,
				-0.7071068286895752,
				0,
				3.0908619663705394e-08
			],
			"scale":[
				1,
				1.8973281383514404,
				0.800000011920929
			],
			"translation":[
				4.212765693664551,
				3.2310101985931396,
				0
			]
		},
		{
			"mesh":1,
			"name":"Plane.001",
			"rotation":[
				0,
				0.7071068286895752,
				0,
				0.7071068286895752
			],
			"scale":[
				0.800000011920929,
				1,
				1.895999789237976
			],
			"translation":[
				4.176448822021484,
				4.2102766036987305,
				-0.11834178119897842
			]
		},
		{
			"mesh":2,
			"name":"Shelf-col",
			"scale":[
				3,
				0.20000000298023224,
				1
			],
			"translation":[
				3.150742769241333,
				-4.794183731079102,
				0
			]
		},
		{
			"mesh":3,
			"name":"Cylinder.002",
			"translation":[
				1.017113208770752,
				3.0212562084198,
				0
			]
		},
		{
			"mesh":4,
			"name":"Cylinder.003",
			"scale":[
				0.6272034049034119,
				0.8634645938873291,
				0.6272034049034119
			],
			"translation":[
				1.017113208770752,
				2.957097053527832,
				0
			]
		},
		{
			"mesh":5,
			"name":"Plane.002",
			"rotation":[
				0,
				0,
				-0.7071068286895752,
				0.7071068286895752
			],
			"scale":[
				1,
				1,
				0.800000011920929
			],
			"translation":[
				2.291731357574463,
				3.1866631507873535,
				-0.13172142207622528
			]
		},
		{
			"mesh":6,
			"name":"Cone",
			"rotation":[
				0.28475356101989746,
				0,
				0,
				0.9586008787155151
			],
			"scale":[
				0.5714874267578125,
				0.5714874863624573,
				0.5714874863624573
			],
			"translation":[
				5.154853820800781,
				0.4776099622249603,
				0.49594929814338684
			]
		},
		{
			"mesh":7,
			"name":"Cone.001",
			"rotation":[
				0.2705674469470978,
				0.2987949252128601,
				-0.08875740319490433,
				0.9108442068099976
			],
			"scale":[
				0.5714874267578125,
				0.5714874267578125,
				0.5714874267578125
			],
			"translation":[
				5.410022735595703,
				0.4776099622249603,
				0.36363959312438965
			]
		},
		{
			"mesh":8,
			"name":"Cone.002",
			"rotation":[
				0.21874533593654633,
				0.613715410232544,
				-0.18230494856834412,
				0.7363891005516052
			],
			"scale":[
				0.5714874267578125,
				0.5714874267578125,
				0.5714874267578125
			],
			"translation":[
				5.580135345458984,
				0.4776099622249603,
				0.08011874556541443
			]
		},
		{
			"mesh":9,
			"name":"Cone.003",
			"rotation":[
				0.13847880065441132,
				0.8376116752624512,
				-0.24881359934806824,
				0.46617817878723145
			],
			"scale":[
				0.5714874267578125,
				0.5714874863624573,
				0.5714874267578125
			],
			"translation":[
				5.5045294761657715,
				0.4776099622249603,
				-0.19395136833190918
			]
		},
		{
			"mesh":10,
			"name":"Cone.004",
			"rotation":[
				0.032227739691734314,
				0.9524415135383606,
				-0.28292393684387207,
				0.10849218815565109
			],
			"scale":[
				0.5714874267578125,
				0.5714874863624573,
				0.5714874267578125
			],
			"translation":[
				5.221008777618408,
				0.4776099622249603,
				-0.2979090213775635
			]
		},
		{
			"mesh":11,
			"name":"Cone.005",
			"rotation":[
				0.1112678200006485,
				-0.8823884725570679,
				0.26211461424827576,
				0.3745744228363037
			],
			"scale":[
				0.5714874863624573,
				0.5714874267578125,
				0.5714874267578125
			],
			"translation":[
				4.909135818481445,
				0.4776099622249603,
				-0.11834582686424255
			]
		},
		{
			"mesh":12,
			"name":"Cone.006",
			"rotation":[
				0.22813986241817474,
				-0.5736449956893921,
				0.17040199041366577,
				0.7680149674415588
			],
			"scale":[
				0.5714874267578125,
				0.5714874267578125,
				0.5714874267578125
			],
			"translation":[
				4.909135818481445,
				0.4776099622249603,
				0.212428480386734
			]
		},
		{
			"mesh":13,
			"name":"Cylinder",
			"translation":[
				5.134079456329346,
				-0.27632611989974976,
				0
			]
		},
		{
			"mesh":14,
			"name":"Cylinder.001",
			"translation":[
				5.146955490112305,
				-0.19679658114910126,
				0
			]
		},
		{
			"mesh":15,
			"name":"Cube",
			"rotation":[
				0.7071068286895752,
				-0.7071068286895752,
				0,
				3.090862321641907e-08
			],
			"scale":[
				1,
				3,
				0.800000011920929
			],
			"translation":[
				3.1640779972076416,
				-3.6076838970184326,
				0
			]
		},
		{
			"mesh":16,
			"name":"Plane",
			"rotation":[
				0,
				0.7071068286895752,
				0,
				0.7071068286895752
			],
			"scale":[
				0.800000011920929,
				1,
				2.9978997707366943
			],
			"translation":[
				3.106654644012451,
				-2.628417491912842,
				-0.09594935923814774
			]
		}
	],
	"materials":[
		{
			"doubleSided":true,
			"name":"Book Spines.001",
			"pbrMetallicRoughness":{
				"metallicFactor":0,
				"roughnessFactor":0.5
			}
		},
		{
			"doubleSided":true,
			"name":"Book Tops.001",
			"pbrMetallicRoughness":{
				"metallicFactor":0,
				"roughnessFactor":0.5
			}
		},
		{
			"doubleSided":true,
			"name":"Wood",
			"pbrMetallicRoughness":{
				"baseColorTexture":{
					"index":0
				},
				"metallicFactor":0,
				"roughnessFactor":0.5
			}
		},
		{
			"doubleSided":true,
			"name":"Material"
		},
		{
			"doubleSided":true,
			"name":"Soil",
			"pbrMetallicRoughness":{
				"baseColorTexture":{
					"index":1
				},
				"metallicFactor":0,
				"roughnessFactor":0.5
			}
		},
		{
			"doubleSided":true,
			"name":"Cover",
			"pbrMetallicRoughness":{
				"metallicFactor":0,
				"roughnessFactor":0.5
			}
		},
		{
			"doubleSided":true,
			"name":"Plant",
			"pbrMetallicRoughness":{
				"baseColorTexture":{
					"index":2
				},
				"metallicFactor":0,
				"roughnessFactor":0.5
			}
		},
		{
			"doubleSided":true,
			"name":"Plant.001",
			"pbrMetallicRoughness":{
				"baseColorTexture":{
					"index":3
				},
				"metallicFactor":0,
				"roughnessFactor":0.5
			}
		},
		{
			"doubleSided":true,
			"name":"Plant.002",
			"pbrMetallicRoughness":{
				"baseColorTexture":{
					"index":4
				},
				"metallicFactor":0,
				"roughnessFactor":0.5
			}
		},
		{
			"doubleSided":true,
			"name":"Plant.003",
			"pbrMetallicRoughness":{
				"baseColorTexture":{
					"index":5
				},
				"metallicFactor":0,
				"roughnessFactor":0.5
			}
		},
		{
			"doubleSided":true,
			"name":"Plant.004",
			"pbrMetallicRoughness":{
				"baseColorTexture":{
					"index":6
				},
				"metallicFactor":0,
				"roughnessFactor":0.5
			}
		},
		{
			"doubleSided":true,
			"name":"Plant.005",
			"pbrMetallicRoughness":{
				"baseColorTexture":{
					"index":7
				},
				"metallicFactor":0,
				"roughnessFactor":0.5
			}
		},
		{
			"doubleSided":true,
			"name":"Plant.006",
			"pbrMetallicRoughness":{
				"baseColorTexture":{
					"index":8
				},
				"metallicFactor":0,
				"roughnessFactor":0.5
			}
		},
		{
			"doubleSided":true,
			"name":"Plant Pot",
			"pbrMetallicRoughness":{
				"baseColorTexture":{
					"index":9
				},
				"metallicFactor":0,
				"roughnessFactor":0.5
			}
		},
		{
			"doubleSided":true,
			"name":"Book Spines",
			"pbrMetallicRoughness":{
				"metallicFactor":0,
				"roughnessFactor":0.5
			}
		},
		{
			"doubleSided":true,
			"name":"Book Tops",
			"pbrMetallicRoughness":{
				"metallicFactor":0,
				"roughnessFactor":0.5
			}
		}
	],
	"meshes":[
		{
			"name":"Cube.001",
			"primitives":[
				{
					"attributes":{
						"POSITION":0,
						"NORMAL":1,
						"TEXCOORD_0":2
					},
					"indices":3,
					"material":0
				}
			]
		},
		{
			"name":"Plane.001",
			"primitives":[
				{
					"attributes":{
						"POSITION":4,
						"NORMAL":5,
						"TEXCOORD_0":6
					},
					"indices":7,
					"material":1
				}
			]
		},
		{
			"name":"Cube.005",
			"primitives":[
				{
					"attributes":{
						"POSITION":8,
						"NORMAL":9,
						"TEXCOORD_0":10
					},
					"indices":11,
					"material":2
				}
			]
		},
		{
			"name":"Cylinder.002",
			"primitives":[
				{
					"attributes":{
						"POSITION":12,
						"NORMAL":13,
						"TEXCOORD_0":14
					},
					"indices":15,
					"material":3
				}
			]
		},
		{
			"name":"Cylinder.003",
			"primitives":[
				{
					"attributes":{
						"POSITION":16,
						"NORMAL":17,
						"TEXCOORD_0":18
					},
					"indices":19,
					"material":4
				}
			]
		},
		{
			"name":"Plane.002",
			"primitives":[
				{
					"attributes":{
						"POSITION":20,
						"NORMAL":21,
						"TEXCOORD_0":22
					},
					"indices":7,
					"material":5
				}
			]
		},
		{
			"name":"Cone",
			"primitives":[
				{
					"attributes":{
						"POSITION":23,
						"NORMAL":24,
						"TEXCOORD_0":25
					},
					"indices":26,
					"material":6
				}
			]
		},
		{
			"name":"Cone.001",
			"primitives":[
				{
					"attributes":{
						"POSITION":27,
						"NORMAL":28,
						"TEXCOORD_0":29
					},
					"indices":26,
					"material":7
				}
			]
		},
		{
			"name":"Cone.002",
			"primitives":[
				{
					"attributes":{
						"POSITION":30,
						"NORMAL":31,
						"TEXCOORD_0":32
					},
					"indices":26,
					"material":8
				}
			]
		},
		{
			"name":"Cone.003",
			"primitives":[
				{
					"attributes":{
						"POSITION":33,
						"NORMAL":34,
						"TEXCOORD_0":35
					},
					"indices":26,
					"material":9
				}
			]
		},
		{
			"name":"Cone.004",
			"primitives":[
				{
					"attributes":{
						"POSITION":36,
						"NORMAL":37,
						"TEXCOORD_0":38
					},
					"indices":26,
					"material":10
				}
			]
		},
		{
			"name":"Cone.005",
			"primitives":[
				{
					"attributes":{
						"POSITION":39,
						"NORMAL":40,
						"TEXCOORD_0":41
					},
					"indices":26,
					"material":11
				}
			]
		},
		{
			"name":"Cone.006",
			"primitives":[
				{
					"attributes":{
						"POSITION":42,
						"NORMAL":43,
						"TEXCOORD_0":44
					},
					"indices":26,
					"material":12
				}
			]
		},
		{
			"name":"Cylinder",
			"primitives":[
				{
					"attributes":{
						"POSITION":45,
						"NORMAL":46,
						"TEXCOORD_0":47
					},
					"indices":48,
					"material":13
				}
			]
		},
		{
			"name":"Cylinder.001",
			"primitives":[
				{
					"attributes":{
						"POSITION":49,
						"NORMAL":50,
						"TEXCOORD_0":51
					},
					"indices":52,
					"material":4
				}
			]
		},
		{
			"name":"Cube",
			"primitives":[
				{
					"attributes":{
						"POSITION":53,
						"NORMAL":54,
						"TEXCOORD_0":55
					},
					"indices":3,
					"material":14
				}
			]
		},
		{
			"name":"Plane",
			"primitives":[
				{
					"attributes":{
						"POSITION":56,
						"NORMAL":57,
						"TEXCOORD_0":58
					},
					"indices":7,
					"material":15
				}
			]
		}
	],
	"textures":[
		{
			"sampler":0,
			"source":0
		},
		{
			"sampler":1,
			"source":1
		},
		{
			"sampler":1,
			"source":2
		},
		{
			"sampler":1,
			"source":2
		},
		{
			"sampler":1,
			"source":2
		},
		{
			"sampler":1,
			"source":2
		},
		{
			"sampler":1,
			"source":2
		},
		{
			"sampler":1,
			"source":2
		},
		{
			"sampler":1,
			"source":2
		},
		{
			"sampler":1,
			"source":3
		}
	],
	"images":[
		{
			"mimeType":"image/jpeg",
			"name":"wood_material",
			"uri":"wood_material.jpg"
		},
		{
			"mimeType":"image/png",
			"name":"dirt_texture",
			"uri":"dirt_texture.png"
		},
		{
			"mimeType":"image/png",
			"name":"cactus_texture",
			"uri":"cactus_texture.png"
		},
		{
			"mimeType":"image/png",
			"name":"pot_texture",
			"uri":"pot_texture.png"
		}
	],
	"accessors":[
		{
			"bufferView":0,
			"componentType":5126,
			"count":24,
			"max":[
				1.0327644348144531,
				1,
				1.138871669769287
			],
			"min":[
				-0.9672355651855469,
				-1,
				-0.8611282706260681
			],
			"type":"VEC3"
		},
		{
			"bufferView":1,
			"componentType":5126,
			"count":24,
			"type":"VEC3"
		},
		{
			"bufferView":2,
			"componentType":5126,
			"count":24,
			"type":"VEC2"
		},
		{
			"bufferView":3,
			"componentType":5123,
			"count":36,
			"type":"SCALAR"
		},
		{
			"bufferView":4,
			"componentType":5126,
			"count":4,
			"max":[
				1,
				0,
				1
			],
			"min":[
				-1,
				0,
				-1
			],
			"type":"VEC3"
		},
		{
			"bufferView":5,
			"componentType":5126,
			"count":4,
			"type":"VEC3"
		},
		{
			"bufferView":6,
			"componentType":5126,
			"count":4,
			"type":"VEC2"
		},
		{
			"bufferView":7,
			"componentType":5123,
			"count":6,
			"type":"SCALAR"
		},
		{
			"bufferView":8,
			"componentType":5126,
			"count":144,
			"max":[
				1.1196333169937134,
				48.992454528808594,
				1
			],
			"min":[
				-1.1169143915176392,
				-1.0290813446044922,
				-1
			],
			"type":"VEC3"
		},
		{
			"bufferView":9,
			"componentType":5126,
			"count":144,
			"type":"VEC3"
		},
		{
			"bufferView":10,
			"componentType":5126,
			"count":144,
			"type":"VEC2"
		},
		{
			"bufferView":11,
			"componentType":5123,
			"count":216,
			"type":"SCALAR"
		},
		{
			"bufferView":12,
			"componentType":5126,
			"count":408,
			"max":[
				0.44999998807907104,
				0.7499998211860657,
				0.44999998807907104
			],
			"min":[
				-0.44999998807907104,
				-0.7500000596046448,
				-0.44999998807907104
			],
			"type":"VEC3"
		},
		{
			"bufferView":13,
			"componentType":5126,
			"count":408,
			"type":"VEC3"
		},
		{
			"bufferView":14,
			"componentType":5126,
			"count":408,
			"type":"VEC2"
		},
		{
			"bufferView":15,
			"componentType":5123,
			"count":636,
			"type":"SCALAR"
		},
		{
			"bufferView":16,
			"componentType":5126,
			"count":216,
			"max":[
				0.44999998807907104,
				0.06617025285959244,
				0.44999998807907104
			],
			"min":[
				-0.44999998807907104,
				-0.7500000596046448,
				-0.44999998807907104
			],
			"type":"VEC3"
		},
		{
			"bufferView":17,
			"componentType":5126,
			"count":216,
			"type":"VEC3"
		},
		{
			"bufferView":18,
			"componentType":5126,
			"count":216,
			"type":"VEC2"
		},
		{
			"bufferView":19,
			"componentType":5123,
			"count":348,
			"type":"SCALAR"
		},
		{
			"bufferView":20,
			"componentType":5126,
			"count":4,
			"max":[
				1,
				0,
				1
			],
			"min":[
				-1,
				0,
				-1
			],
			"type":"VEC3"
		},
		{
			"bufferView":21,
			"componentType":5126,
			"count":4,
			"type":"VEC3"
		},
		{
			"bufferView":22,
			"componentType":5126,
			"count":4,
			"type":"VEC2"
		},
		{
			"bufferView":23,
			"componentType":5126,
			"count":34,
			"max":[
				0.25980761647224426,
				0.6884593963623047,
				0.48881796002388
			],
			"min":[
				-0.25980761647224426,
				-1.0459568500518799,
				-0.1578254997730255
			],
			"type":"VEC3"
		},
		{
			"bufferView":24,
			"componentType":5126,
			"count":34,
			"type":"VEC3"
		},
		{
			"bufferView":25,
			"componentType":5126,
			"count":34,
			"type":"VEC2"
		},
		{
			"bufferView":26,
			"componentType":5123,
			"count":48,
			"type":"SCALAR"
		},
		{
			"bufferView":27,
			"componentType":5126,
			"count":34,
			"max":[
				0.25980761647224426,
				0.6884593963623047,
				0.48881796002388
			],
			"min":[
				-0.25980761647224426,
				-1.0459568500518799,
				-0.1578254997730255
			],
			"type":"VEC3"
		},
		{
			"bufferView":28,
			"componentType":5126,
			"count":34,
			"type":"VEC3"
		},
		{
			"bufferView":29,
			"componentType":5126,
			"count":34,
			"type":"VEC2"
		},
		{
			"bufferView":30,
			"componentType":5126,
			"count":34,
			"max":[
				0.25980761647224426,
				0.6884593963623047,
				0.48881796002388
			],
			"min":[
				-0.25980761647224426,
				-1.0459568500518799,
				-0.1578254997730255
			],
			"type":"VEC3"
		},
		{
			"bufferView":31,
			"componentType":5126,
			"count":34,
			"type":"VEC3"
		},
		{
			"bufferView":32,
			"componentType":5126,
			"count":34,
			"type":"VEC2"
		},
		{
			"bufferView":33,
			"componentType":5126,
			"count":34,
			"max":[
				0.25980761647224426,
				0.6884593963623047,
				0.48881796002388
			],
			"min":[
				-0.25980761647224426,
				-1.0459568500518799,
				-0.1578254997730255
			],
			"type":"VEC3"
		},
		{
			"bufferView":34,
			"componentType":5126,
			"count":34,
			"type":"VEC3"
		},
		{
			"bufferView":35,
			"componentType":5126,
			"count":34,
			"type":"VEC2"
		},
		{
			"bufferView":36,
			"componentType":5126,
			"count":34,
			"max":[
				0.25980761647224426,
				0.6884593963623047,
				0.48881796002388
			],
			"min":[
				-0.25980761647224426,
				-1.0459568500518799,
				-0.1578254997730255
			],
			"type":"VEC3"
		},
		{
			"bufferView":37,
			"componentType":5126,
			"count":34,
			"type":"VEC3"
		},
		{
			"bufferView":38,
			"componentType":5126,
			"count":34,
			"type":"VEC2"
		},
		{
			"bufferView":39,
			"componentType":5126,
			"count":34,
			"max":[
				0.25980761647224426,
				0.6884593963623047,
				0.48881796002388
			],
			"min":[
				-0.25980761647224426,
				-1.0459568500518799,
				-0.1578254997730255
			],
			"type":"VEC3"
		},
		{
			"bufferView":40,
			"componentType":5126,
			"count":34,
			"type":"VEC3"
		},
		{
			"bufferView":41,
			"componentType":5126,
			"count":34,
			"type":"VEC2"
		},
		{
			"bufferView":42,
			"componentType":5126,
			"count":34,
			"max":[
				0.25980761647224426,
				0.6884593963623047,
				0.48881796002388
			],
			"min":[
				-0.25980761647224426,
				-1.0459568500518799,
				-0.1578254997730255
			],
			"type":"VEC3"
		},
		{
			"bufferView":43,
			"componentType":5126,
			"count":34,
			"type":"VEC3"
		},
		{
			"bufferView":44,
			"componentType":5126,
			"count":34,
			"type":"VEC2"
		},
		{
			"bufferView":45,
			"componentType":5126,
			"count":144,
			"max":[
				0.6000000238418579,
				0.5,
				0.6000000238418579
			],
			"min":[
				-0.6000000238418579,
				-0.5,
				-0.6000000238418579
			],
			"type":"VEC3"
		},
		{
			"bufferView":46,
			"componentType":5126,
			"count":144,
			"type":"VEC3"
		},
		{
			"bufferView":47,
			"componentType":5126,
			"count":144,
			"type":"VEC2"
		},
		{
			"bufferView":48,
			"componentType":5123,
			"count":276,
			"type":"SCALAR"
		},
		{
			"bufferView":49,
			"componentType":5126,
			"count":72,
			"max":[
				0.44999998807907104,
				0.25,
				0.44999998807907104
			],
			"min":[
				-0.44999998807907104,
				-0.25,
				-0.44999998807907104
			],
			"type":"VEC3"
		},
		{
			"bufferView":50,
			"componentType":5126,
			"count":72,
			"type":"VEC3"
		},
		{
			"bufferView":51,
			"componentType":5126,
			"count":72,
			"type":"VEC2"
		},
		{
			"bufferView":52,
			"componentType":5123,
			"count":132,
			"type":"SCALAR"
		},
		{
			"bufferView":53,
			"componentType":5126,
			"count":24,
			"max":[
				1.0327644348144531,
				1,
				1.138871669769287
			],
			"min":[
				-0.9672355651855469,
				-1,
				-0.8611282706260681
			],
			"type":"VEC3"
		},
		{
			"bufferView":54,
			"componentType":5126,
			"count":24,
			"type":"VEC3"
		},
		{
			"bufferView":55,
			"componentType":5126,
			"count":24,
			"type":"VEC2"
		},
		{
			"bufferView":56,
			"componentType":5126,
			"count":4,
			"max":[
				1,
				0,
				1
			],
			"min":[
				-1,
				0,
				-1
			],
			"type":"VEC3"
		},
		{
			"bufferView":57,
			"componentType":5126,
			"count":4,
			"type":"VEC3"
		},
		{
			"bufferView":58,
			"componentType":5126,
			"count":4,
			"type":"VEC2"
		}
	],
	"bufferViews":[
		{
			"buffer":0,
			"byteLength":288,
			"byteOffset":0,
			"target":34962
		},
		{
			"buffer":0,
			"byteLength":288,
			"byteOffset":288,
			"target":34962
		},
		{
			"buffer":0,
			"byteLength":192,
			"byteOffset":576,
			"target":34962
		},
		{
			"buffer":0,
			"byteLength":72,
			"byteOffset":768,
			"target":34963
		},
		{
			"buffer":0,
			"byteLength":48,
			"byteOffset":840,
			"target":34962
		},
		{
			"buffer":0,
			"byteLength":48,
			"byteOffset":888,
			"target":34962
		},
		{
			"buffer":0,
			"byteLength":32,
			"byteOffset":936,
			"target":34962
		},
		{
			"buffer":0,
			"byteLength":12,
			"byteOffset":968,
			"target":34963
		},
		{
			"buffer":0,
			"byteLength":1728,
			"byteOffset":980,
			"target":34962
		},
		{
			"buffer":0,
			"byteLength":1728,
			"byteOffset":2708,
			"target":34962
		},
		{
			"buffer":0,
			"byteLength":1152,
			"byteOffset":4436,
			"target":34962
		},
		{
			"buffer":0,
			"byteLength":432,
			"byteOffset":5588,
			"target":34963
		},
		{
			"buffer":0,
			"byteLength":4896,
			"byteOffset":6020,
			"target":34962
		},
		{
			"buffer":0,
			"byteLength":4896,
			"byteOffset":10916,
			"target":34962
		},
		{
			"buffer":0,
			"byteLength":3264,
			"byteOffset":15812,
			"target":34962
		},
		{
			"buffer":0,
			"byteLength":1272,
			"byteOffset":19076,
			"target":34963
		},
		{
			"buffer":0,
			"byteLength":2592,
			"byteOffset":20348,
			"target":34962
		},
		{
			"buffer":0,
			"byteLength":2592,
			"byteOffset":22940,
			"target":34962
		},
		{
			"buffer":0,
			"byteLength":1728,
			"byteOffset":25532,
			"target":34962
		},
		{
			"buffer":0,
			"byteLength":696,
			"byteOffset":27260,
			"target":34963
		},
		{
			"buffer":0,
			"byteLength":48,
			"byteOffset":27956,
			"target":34962
		},
		{
			"buffer":0,
			"byteLength":48,
			"byteOffset":28004,
			"target":34962
		},
		{
			"buffer":0,
			"byteLength":32,
			"byteOffset":28052,
			"target":34962
		},
		{
			"buffer":0,
			"byteLength":408,
			"byteOffset":28084,
			"target":34962
		},
		{
			"buffer":0,
			"byteLength":408,
			"byteOffset":28492,
			"target":34962
		},
		{
			"buffer":0,
			"byteLength":272,
			"byteOffset":28900,
			"target":34962
		},
		{
			"buffer":0,
			"byteLength":96,
			"byteOffset":29172,
			"target":34963
		},
		{
			"buffer":0,
			"byteLength":408,
			"byteOffset":29268,
			"target":34962
		},
		{
			"buffer":0,
			"byteLength":408,
			"byteOffset":29676,
			"target":34962
		},
		{
			"buffer":0,
			"byteLength":272,
			"byteOffset":30084,
			"target":34962
		},
		{
			"buffer":0,
			"byteLength":408,
			"byteOffset":30356,
			"target":34962
		},
		{
			"buffer":0,
			"byteLength":408,
			"byteOffset":30764,
			"target":34962
		},
		{
			"buffer":0,
			"byteLength":272,
			"byteOffset":31172,
			"target":34962
		},
		{
			"buffer":0,
			"byteLength":408,
			"byteOffset":31444,
			"target":34962
		},
		{
			"buffer":0,
			"byteLength":408,
			"byteOffset":31852,
			"target":34962
		},
		{
			"buffer":0,
			"byteLength":272,
			"byteOffset":32260,
			"target":34962
		},
		{
			"buffer":0,
			"byteLength":408,
			"byteOffset":32532,
			"target":34962
		},
		{
			"buffer":0,
			"byteLength":408,
			"byteOffset":32940,
			"target":34962
		},
		{
			"buffer":0,
			"byteLength":272,
			"byteOffset":33348,
			"target":34962
		},
		{
			"buffer":0,
			"byteLength":408,
			"byteOffset":33620,
			"target":34962
		},
		{
			"buffer":0,
			"byteLength":408,
			"byteOffset":34028,
			"target":34962
		},
		{
			"buffer":0,
			"byteLength":272,
			"byteOffset":34436,
			"target":34962
		},
		{
			"buffer":0,
			"byteLength":408,
			"byteOffset":34708,
			"target":34962
		},
		{
			"buffer":0,
			"byteLength":408,
			"byteOffset":35116,
			"target":34962
		},
		{
			"buffer":0,
			"byteLength":272,
			"byteOffset":35524,
			"target":34962
		},
		{
			"buffer":0,
			"byteLength":1728,
			"byteOffset":35796,
			"target":34962
		},
		{
			"buffer":0,
			"byteLength":1728,
			"byteOffset":37524,
			"target":34962
		},
		{
			"buffer":0,
			"byteLength":1152,
			"byteOffset":39252,
			"target":34962
		},
		{
			"buffer":0,
			"byteLength":552,
			"byteOffset":40404,
			"target":34963
		},
		{
			"buffer":0,
			"byteLength":864,
			"byteOffset":40956,
			"target":34962
		},
		{
			"buffer":0,
			"byteLength":864,
			"byteOffset":41820,
			"target":34962
		},
		{
			"buffer":0,
			"byteLength":576,
			"byteOffset":42684,
			"target":34962
		},
		{
			"buffer":0,
			"byteLength":264,
			"byteOffset":43260,
			"target":34963
		},
		{
			"buffer":0,
			"byteLength":288,
			"byteOffset":43524,
			"target":34962
		},
		{
			"buffer":0,
			"byteLength":288,
			"byteOffset":43812,
			"target":34962
		},
		{
			"buffer":0,
			"byteLength":192,
			"byteOffset":44100,
			"target":34962
		},
		{
			"buffer":0,
			"byteLength":48,
			"byteOffset":44292,
			"target":34962
		},
		{
			"buffer":0,
			"byteLength":48,
			"byteOffset":44340,
			"target":34962
		},
		{
			"buffer":0,
			"byteLength":32,
			"byteOffset":44388,
			"target":34962
		}
	],
	"samplers":[
		{
			"magFilter":9728,
			"minFilter":9984,
			"wrapS":33071,
			"wrapT":33071
		},
		{
			"magFilter":9728,
			"minFilter":9984
		}
	],
	"buffers":[
		{
			"byteLength":44420,
			"uri":"bookcase_1.bin"
		}
	]
}
