{
	"asset":{
		"generator":"Khronos glTF Blender I/O v5.0.21",
		"version":"2.0"
	},
	"scene":0,
	"scenes":[
		{
			"name":"Scene",
			"nodes":[
				0
			]
		}
	],
	"nodes":[
		{
			"mesh":0,
			"name":"Counter-col",
			"scale":[
				1.4938737154006958,
				1.4938737154006958,
				1.4938737154006958
			],
			"translation":[
				0,
				1.4571974277496338,
				0
			]
		}
	],
	"meshes":[
		{
			"name":"Cube.001",
			"primitives":[
				{
					"attributes":{
						"POSITION":0,
						"NORMAL":1,
						"TEXCOORD_0":2
					},
					"indices":3
				}
			]
		}
	],
	"accessors":[
		{
			"bufferView":0,
			"componentType":5126,
			"count":219,
			"max":[
				1.0408726930618286,
				1,
				1
			],
			"min":[
				-1,
				-1,
				-1
			],
			"type":"VEC3"
		},
		{
			"bufferView":1,
			"componentType":5126,
			"count":219,
			"type":"VEC3"
		},
		{
			"bufferView":2,
			"componentType":5126,
			"count":219,
			"type":"VEC2"
		},
		{
			"bufferView":3,
			"componentType":5123,
			"count":456,
			"type":"SCALAR"
		}
	],
	"bufferViews":[
		{
			"buffer":0,
			"byteLength":2628,
			"byteOffset":0,
			"target":34962
		},
		{
			"buffer":0,
			"byteLength":2628,
			"byteOffset":2628,
			"target":34962
		},
		{
			"buffer":0,
			"byteLength":1752,
			"byteOffset":5256,
			"target":34962
		},
		{
			"buffer":0,
			"byteLength":912,
			"byteOffset":7008,
			"target":34963
		}
	],
	"buffers":[
		{
			"byteLength":7920,
			"uri":"counter_1.bin"
		}
	]
}
