{
	"asset":{
		"generator":"Khronos glTF Blender I/O v5.0.21",
		"version":"2.0"
	},
	"scene":0,
	"scenes":[
		{
			"name":"Scene",
			"nodes":[
				0
			]
		}
	],
	"nodes":[
		{
			"mesh":0,
			"name":"Counter-col",
			"scale":[
				1.4938737154006958,
				1.4938737154006958,
				1.4938737154006958
			],
			"translation":[
				0,
				1.4571974277496338,
				-2.89057993888855
			]
		}
	],
	"meshes":[
		{
			"name":"Cube.001",
			"primitives":[
				{
					"attributes":{
						"POSITION":0,
						"NORMAL":1,
						"TEXCOORD_0":2
					},
					"indices":3
				}
			]
		}
	],
	"accessors":[
		{
			"bufferView":0,
			"componentType":5126,
			"count":301,
			"max":[
				3.327423334121704,
				1,
				3.23618745803833
			],
			"min":[
				-1,
				-1,
				-1
			],
			"type":"VEC3"
		},
		{
			"bufferView":1,
			"componentType":5126,
			"count":301,
			"type":"VEC3"
		},
		{
			"bufferView":2,
			"componentType":5126,
			"count":301,
			"type":"VEC2"
		},
		{
			"bufferView":3,
			"componentType":5123,
			"count":513,
			"type":"SCALAR"
		}
	],
	"bufferViews":[
		{
			"buffer":0,
			"byteLength":3612,
			"byteOffset":0,
			"target":34962
		},
		{
			"buffer":0,
			"byteLength":3612,
			"byteOffset":3612,
			"target":34962
		},
		{
			"buffer":0,
			"byteLength":2408,
			"byteOffset":7224,
			"target":34962
		},
		{
			"buffer":0,
			"byteLength":1026,
			"byteOffset":9632,
			"target":34963
		}
	],
	"buffers":[
		{
			"byteLength":10660,
			"uri":"counter_corner.bin"
		}
	]
}
