{
	"asset":{
		"generator":"Khronos glTF Blender I/O v5.0.21",
		"version":"2.0"
	},
	"extensionsUsed":[
		"KHR_materials_specular",
		"KHR_materials_ior",
		"KHR_materials_sheen"
	],
	"scene":0,
	"scenes":[
		{
			"name":"Scene",
			"nodes":[
				0
			]
		}
	],
	"nodes":[
		{
			"mesh":0,
			"name":"Counter-col",
			"scale":[
				1.4938737154006958,
				1.4938737154006958,
				1.4938737154006958
			],
			"translation":[
				0,
				1.4571974277496338,
				0
			]
		}
	],
	"materials":[
		{
			"doubleSided":true,
			"extensions":{
				"KHR_materials_specular":{
					"specularFactor":0
				},
				"KHR_materials_ior":{
					"ior":1.4500000476837158
				}
			},
			"name":"Body",
			"pbrMetallicRoughness":{
				"baseColorFactor":[
					0.8000000715255737,
					0.4193551242351532,
					0.10644920915365219,
					1
				],
				"metallicFactor":0,
				"roughnessFactor":0.5
			}
		},
		{
			"doubleSided":true,
			"extensions":{
				"KHR_materials_specular":{
					"specularFactor":0
				},
				"KHR_materials_sheen":{
					"sheenColorFactor":[
						1.0,
						1.0,
						1.0
					],
					"sheenRoughnessFactor":0.5
				},
				"KHR_materials_ior":{
					"ior":1.4500000476837158
				}
			},
			"name":"CounterTop",
			"pbrMetallicRoughness":{
				"baseColorFactor":[
					0.04293302819132805,
					0.0653897300362587,
					0.8000000715255737,
					1
				],
				"metallicFactor":0,
				"roughnessFactor":0.5
			}
		},
		{
			"doubleSided":true,
			"extensions":{
				"KHR_materials_specular":{
					"specularFactor":0
				},
				"KHR_materials_ior":{
					"ior":1.4500000476837158
				}
			},
			"name":"Metal",
			"pbrMetallicRoughness":{
				"baseColorFactor":[
					0.11068854480981827,
					0.11068854480981827,
					0.11068854480981827,
					1
				],
				"roughnessFactor":0.5
			}
		}
	],
	"meshes":[
		{
			"name":"Cube.001",
			"primitives":[
				{
					"attributes":{
						"POSITION":0,
						"NORMAL":1,
						"TEXCOORD_0":2
					},
					"indices":3,
					"material":0
				},
				{
					"attributes":{
						"POSITION":4,
						"NORMAL":5,
						"TEXCOORD_0":6
					},
					"indices":7,
					"material":1
				},
				{
					"attributes":{
						"POSITION":8,
						"NORMAL":9,
						"TEXCOORD_0":10
					},
					"indices":11,
					"material":2
				}
			]
		}
	],
	"accessors":[
		{
			"bufferView":0,
			"componentType":5126,
			"count":118,
			"max":[
				1.0408724546432495,
				0.8630241751670837,
				0.9999998807907104
			],
			"min":[
				-0.9999998807907104,
				-1,
				-0.9999998807907104
			],
			"type":"VEC3"
		},
		{
			"bufferView":1,
			"componentType":5126,
			"count":118,
			"type":"VEC3"
		},
		{
			"bufferView":2,
			"componentType":5126,
			"count":118,
			"type":"VEC2"
		},
		{
			"bufferView":3,
			"componentType":5123,
			"count":198,
			"type":"SCALAR"
		},
		{
			"bufferView":4,
			"componentType":5126,
			"count":56,
			"max":[
				1.0307526588439941,
				0.9999997615814209,
				0.9999998807907104
			],
			"min":[
				-0.9999998807907104,
				0.8630241751670837,
				-0.9999998807907104
			],
			"type":"VEC3"
		},
		{
			"bufferView":5,
			"componentType":5126,
			"count":56,
			"type":"VEC3"
		},
		{
			"bufferView":6,
			"componentType":5126,
			"count":56,
			"type":"VEC2"
		},
		{
			"bufferView":7,
			"componentType":5123,
			"count":108,
			"type":"SCALAR"
		},
		{
			"bufferView":8,
			"componentType":5126,
			"count":201,
			"max":[
				0.8210851550102234,
				0.9949159622192383,
				0.8992696404457092
			],
			"min":[
				-0.5931031107902527,
				0.6242039799690247,
				-0.8992696404457092
			],
			"type":"VEC3"
		},
		{
			"bufferView":9,
			"componentType":5126,
			"count":201,
			"type":"VEC3"
		},
		{
			"bufferView":10,
			"componentType":5126,
			"count":201,
			"type":"VEC2"
		},
		{
			"bufferView":11,
			"componentType":5123,
			"count":348,
			"type":"SCALAR"
		}
	],
	"bufferViews":[
		{
			"buffer":0,
			"byteLength":1416,
			"byteOffset":0,
			"target":34962
		},
		{
			"buffer":0,
			"byteLength":1416,
			"byteOffset":1416,
			"target":34962
		},
		{
			"buffer":0,
			"byteLength":944,
			"byteOffset":2832,
			"target":34962
		},
		{
			"buffer":0,
			"byteLength":396,
			"byteOffset":3776,
			"target":34963
		},
		{
			"buffer":0,
			"byteLength":672,
			"byteOffset":4172,
			"target":34962
		},
		{
			"buffer":0,
			"byteLength":672,
			"byteOffset":4844,
			"target":34962
		},
		{
			"buffer":0,
			"byteLength":448,
			"byteOffset":5516,
			"target":34962
		},
		{
			"buffer":0,
			"byteLength":216,
			"byteOffset":5964,
			"target":34963
		},
		{
			"buffer":0,
			"byteLength":2412,
			"byteOffset":6180,
			"target":34962
		},
		{
			"buffer":0,
			"byteLength":2412,
			"byteOffset":8592,
			"target":34962
		},
		{
			"buffer":0,
			"byteLength":1608,
			"byteOffset":11004,
			"target":34962
		},
		{
			"buffer":0,
			"byteLength":696,
			"byteOffset":12612,
			"target":34963
		}
	],
	"buffers":[
		{
			"byteLength":13308,
			"uri":"counter_sink.bin"
		}
	]
}
