{
	"asset":{
		"generator":"Khronos glTF Blender I/O v5.0.21",
		"version":"2.0"
	},
	"extensionsUsed":[
		"KHR_materials_specular",
		"KHR_materials_ior"
	],
	"scene":0,
	"scenes":[
		{
			"name":"Scene",
			"nodes":[
				0,
				1,
				2,
				3
			]
		}
	],
	"nodes":[
		{
			"mesh":0,
			"name":"Cube"
		},
		{
			"mesh":1,
			"name":"Drawer.001",
			"scale":[
				0.564281702041626,
				0.40019914507865906,
				0.564281702041626
			],
			"translation":[
				0.12982827425003052,
				2.2199554443359375,
				0
			]
		},
		{
			"mesh":2,
			"name":"Drawer.002",
			"scale":[
				0.564281702041626,
				0.40019914507865906,
				0.564281702041626
			],
			"translation":[
				0.12982827425003052,
				1.347078561782837,
				0
			]
		},
		{
			"mesh":3,
			"name":"Drawer.003",
			"scale":[
				0.564281702041626,
				0.40019914507865906,
				0.564281702041626
			],
			"translation":[
				0.12982827425003052,
				0.46763861179351807,
				0
			]
		}
	],
	"materials":[
		{
			"doubleSided":true,
			"extensions":{
				"KHR_materials_specular":{
					"specularFactor":0
				},
				"KHR_materials_ior":{
					"ior":1.4500000476837158
				}
			},
			"name":"Surface",
			"pbrMetallicRoughness":{
				"baseColorFactor":[
					0.5033751130104065,
					0.8000000715255737,
					0.3091793656349182,
					1
				],
				"metallicFactor":0.5118110179901123,
				"roughnessFactor":0.5
			}
		},
		{
			"doubleSided":true,
			"extensions":{
				"KHR_materials_specular":{
					"specularFactor":0
				},
				"KHR_materials_ior":{
					"ior":1.4500000476837158
				}
			},
			"name":"Metal",
			"pbrMetallicRoughness":{
				"baseColorFactor":[
					0.5070681571960449,
					0.5070681571960449,
					0.5070681571960449,
					1
				],
				"roughnessFactor":0.5
			}
		},
		{
			"doubleSided":true,
			"name":"Papers",
			"pbrMetallicRoughness":{
				"baseColorFactor":[
					0.800000011920929,
					0.800000011920929,
					0.800000011920929,
					1
				],
				"metallicFactor":0,
				"roughnessFactor":0.5
			}
		}
	],
	"meshes":[
		{
			"name":"Cube.001",
			"primitives":[
				{
					"attributes":{
						"POSITION":0,
						"NORMAL":1,
						"TEXCOORD_0":2
					},
					"indices":3,
					"material":0
				}
			]
		},
		{
			"name":"Cube.002",
			"primitives":[
				{
					"attributes":{
						"POSITION":4,
						"NORMAL":5,
						"TEXCOORD_0":6
					},
					"indices":7,
					"material":1
				},
				{
					"attributes":{
						"POSITION":8,
						"NORMAL":9,
						"TEXCOORD_0":10
					},
					"indices":11,
					"material":0
				},
				{
					"attributes":{
						"POSITION":12,
						"NORMAL":13,
						"TEXCOORD_0":14
					},
					"indices":15,
					"material":2
				}
			]
		},
		{
			"name":"Cube.003",
			"primitives":[
				{
					"attributes":{
						"POSITION":16,
						"NORMAL":17,
						"TEXCOORD_0":18
					},
					"indices":11,
					"material":0
				},
				{
					"attributes":{
						"POSITION":19,
						"NORMAL":20,
						"TEXCOORD_0":21
					},
					"indices":7,
					"material":1
				},
				{
					"attributes":{
						"POSITION":22,
						"NORMAL":23,
						"TEXCOORD_0":24
					},
					"indices":15,
					"material":2
				}
			]
		},
		{
			"name":"Cube.004",
			"primitives":[
				{
					"attributes":{
						"POSITION":25,
						"NORMAL":26,
						"TEXCOORD_0":27
					},
					"indices":11,
					"material":0
				},
				{
					"attributes":{
						"POSITION":28,
						"NORMAL":29,
						"TEXCOORD_0":30
					},
					"indices":7,
					"material":1
				},
				{
					"attributes":{
						"POSITION":31,
						"NORMAL":32,
						"TEXCOORD_0":33
					},
					"indices":15,
					"material":2
				}
			]
		}
	],
	"accessors":[
		{
			"bufferView":0,
			"componentType":5126,
			"count":20,
			"max":[
				0.6577942967414856,
				2.714174747467041,
				0.6577942967414856
			],
			"min":[
				-0.6577942967414856,
				-0.003261566162109375,
				-0.6577942967414856
			],
			"type":"VEC3"
		},
		{
			"bufferView":1,
			"componentType":5126,
			"count":20,
			"type":"VEC3"
		},
		{
			"bufferView":2,
			"componentType":5126,
			"count":20,
			"type":"VEC2"
		},
		{
			"bufferView":3,
			"componentType":5123,
			"count":30,
			"type":"SCALAR"
		},
		{
			"bufferView":4,
			"componentType":5126,
			"count":20,
			"max":[
				1.015456199645996,
				0.10045590996742249,
				0.3333333134651184
			],
			"min":[
				0.9730229377746582,
				-0.10045523941516876,
				-0.3333333134651184
			],
			"type":"VEC3"
		},
		{
			"bufferView":5,
			"componentType":5126,
			"count":20,
			"type":"VEC3"
		},
		{
			"bufferView":6,
			"componentType":5126,
			"count":20,
			"type":"VEC2"
		},
		{
			"bufferView":7,
			"componentType":5123,
			"count":30,
			"type":"SCALAR"
		},
		{
			"bufferView":8,
			"componentType":5126,
			"count":250,
			"max":[
				0.9730229377746582,
				1,
				1
			],
			"min":[
				-0.95512855052948,
				-1.004309892654419,
				-1
			],
			"type":"VEC3"
		},
		{
			"bufferView":9,
			"componentType":5126,
			"count":250,
			"type":"VEC3"
		},
		{
			"bufferView":10,
			"componentType":5126,
			"count":250,
			"type":"VEC2"
		},
		{
			"bufferView":11,
			"componentType":5123,
			"count":780,
			"type":"SCALAR"
		},
		{
			"bufferView":12,
			"componentType":5126,
			"count":8,
			"max":[
				0.8808314204216003,
				0.7905985116958618,
				0.9685748815536499
			],
			"min":[
				-0.9277575612068176,
				0.7905985116958618,
				-0.964555025100708
			],
			"type":"VEC3"
		},
		{
			"bufferView":13,
			"componentType":5126,
			"count":8,
			"type":"VEC3"
		},
		{
			"bufferView":14,
			"componentType":5126,
			"count":8,
			"type":"VEC2"
		},
		{
			"bufferView":15,
			"componentType":5123,
			"count":18,
			"type":"SCALAR"
		},
		{
			"bufferView":16,
			"componentType":5126,
			"count":250,
			"max":[
				0.9730229377746582,
				1,
				1
			],
			"min":[
				-0.95512855052948,
				-1.004309892654419,
				-1
			],
			"type":"VEC3"
		},
		{
			"bufferView":17,
			"componentType":5126,
			"count":250,
			"type":"VEC3"
		},
		{
			"bufferView":18,
			"componentType":5126,
			"count":250,
			"type":"VEC2"
		},
		{
			"bufferView":19,
			"componentType":5126,
			"count":20,
			"max":[
				1.015456199645996,
				0.10045590996742249,
				0.3333333134651184
			],
			"min":[
				0.9730229377746582,
				-0.10045523941516876,
				-0.3333333134651184
			],
			"type":"VEC3"
		},
		{
			"bufferView":20,
			"componentType":5126,
			"count":20,
			"type":"VEC3"
		},
		{
			"bufferView":21,
			"componentType":5126,
			"count":20,
			"type":"VEC2"
		},
		{
			"bufferView":22,
			"componentType":5126,
			"count":8,
			"max":[
				0.8808314204216003,
				0.7905985116958618,
				0.9685748815536499
			],
			"min":[
				-0.9277575612068176,
				0.7905985116958618,
				-0.964555025100708
			],
			"type":"VEC3"
		},
		{
			"bufferView":23,
			"componentType":5126,
			"count":8,
			"type":"VEC3"
		},
		{
			"bufferView":24,
			"componentType":5126,
			"count":8,
			"type":"VEC2"
		},
		{
			"bufferView":25,
			"componentType":5126,
			"count":250,
			"max":[
				0.9730229377746582,
				1,
				1
			],
			"min":[
				-0.95512855052948,
				-1.004309892654419,
				-1
			],
			"type":"VEC3"
		},
		{
			"bufferView":26,
			"componentType":5126,
			"count":250,
			"type":"VEC3"
		},
		{
			"bufferView":27,
			"componentType":5126,
			"count":250,
			"type":"VEC2"
		},
		{
			"bufferView":28,
			"componentType":5126,
			"count":20,
			"max":[
				1.015456199645996,
				0.10045590996742249,
				0.3333333134651184
			],
			"min":[
				0.9730229377746582,
				-0.10045523941516876,
				-0.3333333134651184
			],
			"type":"VEC3"
		},
		{
			"bufferView":29,
			"componentType":5126,
			"count":20,
			"type":"VEC3"
		},
		{
			"bufferView":30,
			"componentType":5126,
			"count":20,
			"type":"VEC2"
		},
		{
			"bufferView":31,
			"componentType":5126,
			"count":8,
			"max":[
				0.8808314204216003,
				0.7905985116958618,
				0.9685748815536499
			],
			"min":[
				-0.9277575612068176,
				0.7905985116958618,
				-0.964555025100708
			],
			"type":"VEC3"
		},
		{
			"bufferView":32,
			"componentType":5126,
			"count":8,
			"type":"VEC3"
		},
		{
			"bufferView":33,
			"componentType":5126,
			"count":8,
			"type":"VEC2"
		}
	],
	"bufferViews":[
		{
			"buffer":0,
			"byteLength":240,
			"byteOffset":0,
			"target":34962
		},
		{
			"buffer":0,
			"byteLength":240,
			"byteOffset":240,
			"target":34962
		},
		{
			"buffer":0,
			"byteLength":160,
			"byteOffset":480,
			"target":34962
		},
		{
			"buffer":0,
			"byteLength":60,
			"byteOffset":640,
			"target":34963
		},
		{
			"buffer":0,
			"byteLength":240,
			"byteOffset":700,
			"target":34962
		},
		{
			"buffer":0,
			"byteLength":240,
			"byteOffset":940,
			"target":34962
		},
		{
			"buffer":0,
			"byteLength":160,
			"byteOffset":1180,
			"target":34962
		},
		{
			"buffer":0,
			"byteLength":60,
			"byteOffset":1340,
			"target":34963
		},
		{
			"buffer":0,
			"byteLength":3000,
			"byteOffset":1400,
			"target":34962
		},
		{
			"buffer":0,
			"byteLength":3000,
			"byteOffset":4400,
			"target":34962
		},
		{
			"buffer":0,
			"byteLength":2000,
			"byteOffset":7400,
			"target":34962
		},
		{
			"buffer":0,
			"byteLength":1560,
			"byteOffset":9400,
			"target":34963
		},
		{
			"buffer":0,
			"byteLength":96,
			"byteOffset":10960,
			"target":34962
		},
		{
			"buffer":0,
			"byteLength":96,
			"byteOffset":11056,
			"target":34962
		},
		{
			"buffer":0,
			"byteLength":64,
			"byteOffset":11152,
			"target":34962
		},
		{
			"buffer":0,
			"byteLength":36,
			"byteOffset":11216,
			"target":34963
		},
		{
			"buffer":0,
			"byteLength":3000,
			"byteOffset":11252,
			"target":34962
		},
		{
			"buffer":0,
			"byteLength":3000,
			"byteOffset":14252,
			"target":34962
		},
		{
			"buffer":0,
			"byteLength":2000,
			"byteOffset":17252,
			"target":34962
		},
		{
			"buffer":0,
			"byteLength":240,
			"byteOffset":19252,
			"target":34962
		},
		{
			"buffer":0,
			"byteLength":240,
			"byteOffset":19492,
			"target":34962
		},
		{
			"buffer":0,
			"byteLength":160,
			"byteOffset":19732,
			"target":34962
		},
		{
			"buffer":0,
			"byteLength":96,
			"byteOffset":19892,
			"target":34962
		},
		{
			"buffer":0,
			"byteLength":96,
			"byteOffset":19988,
			"target":34962
		},
		{
			"buffer":0,
			"byteLength":64,
			"byteOffset":20084,
			"target":34962
		},
		{
			"buffer":0,
			"byteLength":3000,
			"byteOffset":20148,
			"target":34962
		},
		{
			"buffer":0,
			"byteLength":3000,
			"byteOffset":23148,
			"target":34962
		},
		{
			"buffer":0,
			"byteLength":2000,
			"byteOffset":26148,
			"target":34962
		},
		{
			"buffer":0,
			"byteLength":240,
			"byteOffset":28148,
			"target":34962
		},
		{
			"buffer":0,
			"byteLength":240,
			"byteOffset":28388,
			"target":34962
		},
		{
			"buffer":0,
			"byteLength":160,
			"byteOffset":28628,
			"target":34962
		},
		{
			"buffer":0,
			"byteLength":96,
			"byteOffset":28788,
			"target":34962
		},
		{
			"buffer":0,
			"byteLength":96,
			"byteOffset":28884,
			"target":34962
		},
		{
			"buffer":0,
			"byteLength":64,
			"byteOffset":28980,
			"target":34962
		}
	],
	"buffers":[
		{
			"byteLength":29044,
			"uri":"filing_cabinet.bin"
		}
	]
}
