{
	"asset":{
		"generator":"Khronos glTF Blender I/O v5.0.21",
		"version":"2.0"
	},
	"scene":0,
	"scenes":[
		{
			"name":"Scene",
			"nodes":[
				0,
				1,
				2
			]
		}
	],
	"nodes":[
		{
			"mesh":0,
			"name":"Body",
			"scale":[
				0.7844544649124146,
				1.9499454498291016,
				1
			],
			"translation":[
				0,
				1.9504115581512451,
				0
			]
		},
		{
			"mesh":1,
			"name":"FridgeHandle",
			"scale":[
				0.07288157939910889,
				0.25196126103401184,
				0.07288157939910889
			],
			"translation":[
				0.795433521270752,
				2.185035467147827,
				-0.7009261846542358
			]
		},
		{
			"mesh":2,
			"name":"FreezerHandle",
			"scale":[
				0.07288157939910889,
				0.25196126103401184,
				0.07288157939910889
			],
			"translation":[
				0.795433521270752,
				3.035573959350586,
				-0.7009261846542358
			]
		}
	],
	"materials":[
		{
			"doubleSided":true,
			"name":"Fridge",
			"pbrMetallicRoughness":{
				"baseColorFactor":[
					0.21682311594486237,
					0.8000000715255737,
					0.6891654133796692,
					1
				],
				"metallicFactor":0,
				"roughnessFactor":0.5
			}
		},
		{
			"doubleSided":true,
			"name":"Metal",
			"pbrMetallicRoughness":{
				"baseColorFactor":[
					0.3031974732875824,
					0.3031974732875824,
					0.3031974732875824,
					1
				],
				"roughnessFactor":0.5
			}
		}
	],
	"meshes":[
		{
			"name":"Cube.001",
			"primitives":[
				{
					"attributes":{
						"POSITION":0,
						"NORMAL":1,
						"TEXCOORD_0":2
					},
					"indices":3,
					"material":0
				}
			]
		},
		{
			"name":"Cube.002",
			"primitives":[
				{
					"attributes":{
						"POSITION":4,
						"NORMAL":5,
						"TEXCOORD_0":6
					},
					"indices":7,
					"material":1
				}
			]
		},
		{
			"name":"Cube.003",
			"primitives":[
				{
					"attributes":{
						"POSITION":8,
						"NORMAL":9,
						"TEXCOORD_0":10
					},
					"indices":7,
					"material":1
				}
			]
		}
	],
	"accessors":[
		{
			"bufferView":0,
			"componentType":5126,
			"count":352,
			"max":[
				1,
				1,
				1
			],
			"min":[
				-1,
				-1,
				-1
			],
			"type":"VEC3"
		},
		{
			"bufferView":1,
			"componentType":5126,
			"count":352,
			"type":"VEC3"
		},
		{
			"bufferView":2,
			"componentType":5126,
			"count":352,
			"type":"VEC2"
		},
		{
			"bufferView":3,
			"componentType":5123,
			"count":516,
			"type":"SCALAR"
		},
		{
			"bufferView":4,
			"componentType":5126,
			"count":20,
			"max":[
				1.1294546127319336,
				0.802672803401947,
				0.7091147303581238
			],
			"min":[
				-0.347770094871521,
				-0.7775501608848572,
				-0.709114134311676
			],
			"type":"VEC3"
		},
		{
			"bufferView":5,
			"componentType":5126,
			"count":20,
			"type":"VEC3"
		},
		{
			"bufferView":6,
			"componentType":5126,
			"count":20,
			"type":"VEC2"
		},
		{
			"bufferView":7,
			"componentType":5123,
			"count":30,
			"type":"SCALAR"
		},
		{
			"bufferView":8,
			"componentType":5126,
			"count":20,
			"max":[
				1.1294546127319336,
				0.802672803401947,
				0.7091147303581238
			],
			"min":[
				-0.347770094871521,
				-0.7775501608848572,
				-0.709114134311676
			],
			"type":"VEC3"
		},
		{
			"bufferView":9,
			"componentType":5126,
			"count":20,
			"type":"VEC3"
		},
		{
			"bufferView":10,
			"componentType":5126,
			"count":20,
			"type":"VEC2"
		}
	],
	"bufferViews":[
		{
			"buffer":0,
			"byteLength":4224,
			"byteOffset":0,
			"target":34962
		},
		{
			"buffer":0,
			"byteLength":4224,
			"byteOffset":4224,
			"target":34962
		},
		{
			"buffer":0,
			"byteLength":2816,
			"byteOffset":8448,
			"target":34962
		},
		{
			"buffer":0,
			"byteLength":1032,
			"byteOffset":11264,
			"target":34963
		},
		{
			"buffer":0,
			"byteLength":240,
			"byteOffset":12296,
			"target":34962
		},
		{
			"buffer":0,
			"byteLength":240,
			"byteOffset":12536,
			"target":34962
		},
		{
			"buffer":0,
			"byteLength":160,
			"byteOffset":12776,
			"target":34962
		},
		{
			"buffer":0,
			"byteLength":60,
			"byteOffset":12936,
			"target":34963
		},
		{
			"buffer":0,
			"byteLength":240,
			"byteOffset":12996,
			"target":34962
		},
		{
			"buffer":0,
			"byteLength":240,
			"byteOffset":13236,
			"target":34962
		},
		{
			"buffer":0,
			"byteLength":160,
			"byteOffset":13476,
			"target":34962
		}
	],
	"buffers":[
		{
			"byteLength":13636,
			"uri":"fridge.bin"
		}
	]
}
