{
	"asset":{
		"generator":"Khronos glTF Blender I/O v5.0.21",
		"version":"2.0"
	},
	"extensionsUsed":[
		"KHR_materials_specular",
		"KHR_materials_ior"
	],
	"scene":0,
	"scenes":[
		{
			"name":"Scene",
			"nodes":[
				0,
				1,
				2,
				3,
				4,
				5,
				6,
				7
			]
		}
	],
	"nodes":[
		{
			"mesh":0,
			"name":"Back",
			"rotation":[
				0.005106690339744091,
				-0.70708829164505,
				-0.7070884704589844,
				0.005106689408421516
			],
			"scale":[
				1.24173104763031,
				1,
				1
			],
			"translation":[
				0,
				2.906273126602173,
				-1.0941635370254517
			]
		},
		{
			"mesh":1,
			"name":"Seat",
			"scale":[
				1.24173104763031,
				1,
				1
			],
			"translation":[
				0,
				1.4995102882385254,
				0
			]
		},
		{
			"mesh":2,
			"name":"Legs",
			"scale":[
				1,
				5.52641487121582,
				1
			],
			"translation":[
				0,
				0.5295016169548035,
				-0.026251912117004395
			]
		},
		{
			"mesh":3,
			"name":"Wheel",
			"rotation":[
				0.6532815098762512,
				0.27059805393218994,
				-0.27059808373451233,
				0.6532815098762512
			],
			"translation":[
				0.7481799125671387,
				0.09634476900100708,
				0.0065629808232188225
			]
		},
		{
			"mesh":4,
			"name":"Wheel1",
			"rotation":[
				0.6532815098762512,
				0.27059805393218994,
				-0.27059808373451233,
				0.6532815098762512
			],
			"translation":[
				-0.7350540161132812,
				0.09634476900100708,
				0.0065629808232188225
			]
		},
		{
			"mesh":5,
			"name":"Wheel2",
			"rotation":[
				0.6532815098762512,
				0.27059805393218994,
				-0.27059808373451233,
				0.6532815098762512
			],
			"translation":[
				0.006562948226928711,
				0.09634476900100708,
				0.7022390365600586
			]
		},
		{
			"mesh":6,
			"name":"Wheel3",
			"rotation":[
				0.6532815098762512,
				0.27059805393218994,
				-0.27059808373451233,
				0.6532815098762512
			],
			"translation":[
				0.006562948226928711,
				0.09634476900100708,
				-0.7219278216362
			]
		},
		{
			"mesh":7,
			"name":"Connector",
			"translation":[
				0,
				1.4995102882385254,
				0
			]
		}
	],
	"materials":[
		{
			"doubleSided":true,
			"extensions":{
				"KHR_materials_specular":{
					"specularFactor":0
				},
				"KHR_materials_ior":{
					"ior":1.4500000476837158
				}
			},
			"name":"ChairMaterial",
			"pbrMetallicRoughness":{
				"baseColorTexture":{
					"index":0
				},
				"metallicFactor":0
			}
		}
	],
	"meshes":[
		{
			"name":"Cylinder",
			"primitives":[
				{
					"attributes":{
						"POSITION":0,
						"NORMAL":1,
						"TEXCOORD_0":2
					},
					"indices":3,
					"material":0
				}
			]
		},
		{
			"name":"Cylinder.001",
			"primitives":[
				{
					"attributes":{
						"POSITION":4,
						"NORMAL":5,
						"TEXCOORD_0":6
					},
					"indices":7,
					"material":0
				}
			]
		},
		{
			"name":"Cube.001",
			"primitives":[
				{
					"attributes":{
						"POSITION":8,
						"NORMAL":9,
						"TEXCOORD_0":10
					},
					"indices":11,
					"material":0
				}
			]
		},
		{
			"name":"Cylinder.002",
			"primitives":[
				{
					"attributes":{
						"POSITION":12,
						"NORMAL":13,
						"TEXCOORD_0":14
					},
					"indices":7,
					"material":0
				}
			]
		},
		{
			"name":"Cylinder.003",
			"primitives":[
				{
					"attributes":{
						"POSITION":15,
						"NORMAL":16,
						"TEXCOORD_0":17
					},
					"indices":7,
					"material":0
				}
			]
		},
		{
			"name":"Cylinder.004",
			"primitives":[
				{
					"attributes":{
						"POSITION":18,
						"NORMAL":19,
						"TEXCOORD_0":20
					},
					"indices":7,
					"material":0
				}
			]
		},
		{
			"name":"Cylinder.005",
			"primitives":[
				{
					"attributes":{
						"POSITION":21,
						"NORMAL":22,
						"TEXCOORD_0":23
					},
					"indices":7,
					"material":0
				}
			]
		},
		{
			"name":"Cube.002",
			"primitives":[
				{
					"attributes":{
						"POSITION":24,
						"NORMAL":25,
						"TEXCOORD_0":26
					},
					"indices":27,
					"material":0
				}
			]
		}
	],
	"textures":[
		{
			"sampler":0,
			"source":0
		}
	],
	"images":[
		{
			"mimeType":"image/png",
			"name":"OfficeChairMaterial",
			"uri":"OfficeChairMaterial.png"
		}
	],
	"accessors":[
		{
			"bufferView":0,
			"componentType":5126,
			"count":86,
			"max":[
				0.9848077297210693,
				0.17499999701976776,
				0.9396926164627075
			],
			"min":[
				-0.9848077297210693,
				-0.17499999701976776,
				-1
			],
			"type":"VEC3"
		},
		{
			"bufferView":1,
			"componentType":5126,
			"count":86,
			"type":"VEC3"
		},
		{
			"bufferView":2,
			"componentType":5126,
			"count":86,
			"type":"VEC2"
		},
		{
			"bufferView":3,
			"componentType":5123,
			"count":144,
			"type":"SCALAR"
		},
		{
			"bufferView":4,
			"componentType":5126,
			"count":54,
			"max":[
				0.9848077297210693,
				0.09624422341585159,
				0.9396926164627075
			],
			"min":[
				-0.9848077297210693,
				-0.17499999701976776,
				-1
			],
			"type":"VEC3"
		},
		{
			"bufferView":5,
			"componentType":5126,
			"count":54,
			"type":"VEC3"
		},
		{
			"bufferView":6,
			"componentType":5126,
			"count":54,
			"type":"VEC2"
		},
		{
			"bufferView":7,
			"componentType":5123,
			"count":96,
			"type":"SCALAR"
		},
		{
			"bufferView":8,
			"componentType":5126,
			"count":95,
			"max":[
				0.8515267968177795,
				0.1492263376712799,
				0.8141130208969116
			],
			"min":[
				-0.8449638485908508,
				-0.05730874836444855,
				-0.7812981009483337
			],
			"type":"VEC3"
		},
		{
			"bufferView":9,
			"componentType":5126,
			"count":95,
			"type":"VEC3"
		},
		{
			"bufferView":10,
			"componentType":5126,
			"count":95,
			"type":"VEC2"
		},
		{
			"bufferView":11,
			"componentType":5123,
			"count":144,
			"type":"SCALAR"
		},
		{
			"bufferView":12,
			"componentType":5126,
			"count":54,
			"max":[
				0.14772117137908936,
				0.05000000074505806,
				0.1409538984298706
			],
			"min":[
				-0.14772117137908936,
				-0.05000000074505806,
				-0.15000000596046448
			],
			"type":"VEC3"
		},
		{
			"bufferView":13,
			"componentType":5126,
			"count":54,
			"type":"VEC3"
		},
		{
			"bufferView":14,
			"componentType":5126,
			"count":54,
			"type":"VEC2"
		},
		{
			"bufferView":15,
			"componentType":5126,
			"count":54,
			"max":[
				0.14772117137908936,
				0.05000000074505806,
				0.1409538984298706
			],
			"min":[
				-0.14772117137908936,
				-0.05000000074505806,
				-0.15000000596046448
			],
			"type":"VEC3"
		},
		{
			"bufferView":16,
			"componentType":5126,
			"count":54,
			"type":"VEC3"
		},
		{
			"bufferView":17,
			"componentType":5126,
			"count":54,
			"type":"VEC2"
		},
		{
			"bufferView":18,
			"componentType":5126,
			"count":54,
			"max":[
				0.14772117137908936,
				0.05000000074505806,
				0.1409538984298706
			],
			"min":[
				-0.14772117137908936,
				-0.05000000074505806,
				-0.15000000596046448
			],
			"type":"VEC3"
		},
		{
			"bufferView":19,
			"componentType":5126,
			"count":54,
			"type":"VEC3"
		},
		{
			"bufferView":20,
			"componentType":5126,
			"count":54,
			"type":"VEC2"
		},
		{
			"bufferView":21,
			"componentType":5126,
			"count":54,
			"max":[
				0.14772117137908936,
				0.05000000074505806,
				0.1409538984298706
			],
			"min":[
				-0.14772117137908936,
				-0.05000000074505806,
				-0.15000000596046448
			],
			"type":"VEC3"
		},
		{
			"bufferView":22,
			"componentType":5126,
			"count":54,
			"type":"VEC3"
		},
		{
			"bufferView":23,
			"componentType":5126,
			"count":54,
			"type":"VEC2"
		},
		{
			"bufferView":24,
			"componentType":5126,
			"count":40,
			"max":[
				0.125,
				0.5264503955841064,
				-0.9148922562599182
			],
			"min":[
				-0.125,
				-0.10393650084733963,
				-1.1693822145462036
			],
			"type":"VEC3"
		},
		{
			"bufferView":25,
			"componentType":5126,
			"count":40,
			"type":"VEC3"
		},
		{
			"bufferView":26,
			"componentType":5126,
			"count":40,
			"type":"VEC2"
		},
		{
			"bufferView":27,
			"componentType":5123,
			"count":72,
			"type":"SCALAR"
		}
	],
	"bufferViews":[
		{
			"buffer":0,
			"byteLength":1032,
			"byteOffset":0,
			"target":34962
		},
		{
			"buffer":0,
			"byteLength":1032,
			"byteOffset":1032,
			"target":34962
		},
		{
			"buffer":0,
			"byteLength":688,
			"byteOffset":2064,
			"target":34962
		},
		{
			"buffer":0,
			"byteLength":288,
			"byteOffset":2752,
			"target":34963
		},
		{
			"buffer":0,
			"byteLength":648,
			"byteOffset":3040,
			"target":34962
		},
		{
			"buffer":0,
			"byteLength":648,
			"byteOffset":3688,
			"target":34962
		},
		{
			"buffer":0,
			"byteLength":432,
			"byteOffset":4336,
			"target":34962
		},
		{
			"buffer":0,
			"byteLength":192,
			"byteOffset":4768,
			"target":34963
		},
		{
			"buffer":0,
			"byteLength":1140,
			"byteOffset":4960,
			"target":34962
		},
		{
			"buffer":0,
			"byteLength":1140,
			"byteOffset":6100,
			"target":34962
		},
		{
			"buffer":0,
			"byteLength":760,
			"byteOffset":7240,
			"target":34962
		},
		{
			"buffer":0,
			"byteLength":288,
			"byteOffset":8000,
			"target":34963
		},
		{
			"buffer":0,
			"byteLength":648,
			"byteOffset":8288,
			"target":34962
		},
		{
			"buffer":0,
			"byteLength":648,
			"byteOffset":8936,
			"target":34962
		},
		{
			"buffer":0,
			"byteLength":432,
			"byteOffset":9584,
			"target":34962
		},
		{
			"buffer":0,
			"byteLength":648,
			"byteOffset":10016,
			"target":34962
		},
		{
			"buffer":0,
			"byteLength":648,
			"byteOffset":10664,
			"target":34962
		},
		{
			"buffer":0,
			"byteLength":432,
			"byteOffset":11312,
			"target":34962
		},
		{
			"buffer":0,
			"byteLength":648,
			"byteOffset":11744,
			"target":34962
		},
		{
			"buffer":0,
			"byteLength":648,
			"byteOffset":12392,
			"target":34962
		},
		{
			"buffer":0,
			"byteLength":432,
			"byteOffset":13040,
			"target":34962
		},
		{
			"buffer":0,
			"byteLength":648,
			"byteOffset":13472,
			"target":34962
		},
		{
			"buffer":0,
			"byteLength":648,
			"byteOffset":14120,
			"target":34962
		},
		{
			"buffer":0,
			"byteLength":432,
			"byteOffset":14768,
			"target":34962
		},
		{
			"buffer":0,
			"byteLength":480,
			"byteOffset":15200,
			"target":34962
		},
		{
			"buffer":0,
			"byteLength":480,
			"byteOffset":15680,
			"target":34962
		},
		{
			"buffer":0,
			"byteLength":320,
			"byteOffset":16160,
			"target":34962
		},
		{
			"buffer":0,
			"byteLength":144,
			"byteOffset":16480,
			"target":34963
		}
	],
	"samplers":[
		{
			"magFilter":9728,
			"minFilter":9984
		}
	],
	"buffers":[
		{
			"byteLength":16624,
			"uri":"office_chair.bin"
		}
	]
}
