{
	"asset":{
		"generator":"Khronos glTF Blender I/O v5.0.21",
		"version":"2.0"
	},
	"extensionsUsed":[
		"KHR_materials_specular",
		"KHR_materials_ior"
	],
	"scene":0,
	"scenes":[
		{
			"name":"Scene",
			"nodes":[
				0,
				1,
				2,
				3,
				4
			]
		}
	],
	"nodes":[
		{
			"mesh":0,
			"name":"Cube",
			"scale":[
				1.4938737154006958,
				1.4938737154006958,
				1.4938737154006958
			],
			"translation":[
				0,
				1.4571974277496338,
				0
			]
		},
		{
			"mesh":1,
			"name":"Cylinder",
			"translation":[
				-0.3992483913898468,
				2.920529842376709,
				-0.09844482690095901
			]
		},
		{
			"mesh":2,
			"name":"Cylinder.002",
			"rotation":[
				0,
				0.9997922778129578,
				0,
				0.020383451133966446
			],
			"translation":[
				-0.4082255959510803,
				2.920529842376709,
				0.09549642354249954
			]
		},
		{
			"mesh":3,
			"name":"Cylinder.003",
			"scale":[
				0.718731701374054,
				0.718731701374054,
				0.718731701374054
			],
			"translation":[
				0.8149042129516602,
				2.920529842376709,
				0.15313640236854553
			]
		},
		{
			"mesh":4,
			"name":"Cylinder.001",
			"rotation":[
				0,
				0.9997922778129578,
				0,
				0.020383451133966446
			],
			"scale":[
				0.718731701374054,
				0.718731701374054,
				0.718731701374054
			],
			"translation":[
				0.812943160533905,
				2.920529842376709,
				-0.0517425462603569
			]
		}
	],
	"materials":[
		{
			"doubleSided":true,
			"extensions":{
				"KHR_materials_specular":{
					"specularFactor":0
				},
				"KHR_materials_ior":{
					"ior":1.4500000476837158
				}
			},
			"name":"Oven",
			"pbrMetallicRoughness":{
				"baseColorTexture":{
					"index":0
				},
				"metallicFactor":0,
				"roughnessFactor":0.5
			}
		},
		{
			"doubleSided":true,
			"extensions":{
				"KHR_materials_specular":{
					"specularFactor":0.3920000195503235
				}
			},
			"name":"Burner",
			"pbrMetallicRoughness":{
				"baseColorFactor":[
					0,
					0,
					0,
					1
				],
				"metallicFactor":0,
				"roughnessFactor":0.5
			}
		}
	],
	"meshes":[
		{
			"name":"Cube.001",
			"primitives":[
				{
					"attributes":{
						"POSITION":0,
						"NORMAL":1,
						"TEXCOORD_0":2
					},
					"indices":3,
					"material":0
				}
			]
		},
		{
			"name":"Cylinder",
			"primitives":[
				{
					"attributes":{
						"POSITION":4,
						"NORMAL":5,
						"TEXCOORD_0":6
					},
					"indices":7,
					"material":1
				}
			]
		},
		{
			"name":"Cylinder.002",
			"primitives":[
				{
					"attributes":{
						"POSITION":8,
						"NORMAL":9,
						"TEXCOORD_0":10
					},
					"indices":7,
					"material":1
				}
			]
		},
		{
			"name":"Cylinder.003",
			"primitives":[
				{
					"attributes":{
						"POSITION":11,
						"NORMAL":12,
						"TEXCOORD_0":13
					},
					"indices":7,
					"material":1
				}
			]
		},
		{
			"name":"Cylinder.004",
			"primitives":[
				{
					"attributes":{
						"POSITION":14,
						"NORMAL":15,
						"TEXCOORD_0":16
					},
					"indices":7,
					"material":1
				}
			]
		}
	],
	"textures":[
		{
			"sampler":0,
			"source":0
		}
	],
	"images":[
		{
			"mimeType":"image/png",
			"name":"BatteredMetal01",
			"uri":"BatteredMetal01.png"
		}
	],
	"accessors":[
		{
			"bufferView":0,
			"componentType":5126,
			"count":231,
			"max":[
				1.0914897918701172,
				1.425328254699707,
				1
			],
			"min":[
				-1.0120962858200073,
				-1,
				-1
			],
			"type":"VEC3"
		},
		{
			"bufferView":1,
			"componentType":5126,
			"count":231,
			"type":"VEC3"
		},
		{
			"bufferView":2,
			"componentType":5126,
			"count":231,
			"type":"VEC2"
		},
		{
			"bufferView":3,
			"componentType":5123,
			"count":552,
			"type":"SCALAR"
		},
		{
			"bufferView":4,
			"componentType":5126,
			"count":50,
			"max":[
				0.4755282700061798,
				0.05000000074505806,
				1.2055211067199707
			],
			"min":[
				-0.4755282700061798,
				-0.05000000074505806,
				0.20552116632461548
			],
			"type":"VEC3"
		},
		{
			"bufferView":5,
			"componentType":5126,
			"count":50,
			"type":"VEC3"
		},
		{
			"bufferView":6,
			"componentType":5126,
			"count":50,
			"type":"VEC2"
		},
		{
			"bufferView":7,
			"componentType":5123,
			"count":84,
			"type":"SCALAR"
		},
		{
			"bufferView":8,
			"componentType":5126,
			"count":50,
			"max":[
				0.4755282700061798,
				0.05000000074505806,
				1.2055211067199707
			],
			"min":[
				-0.4755282700061798,
				-0.05000000074505806,
				0.20552116632461548
			],
			"type":"VEC3"
		},
		{
			"bufferView":9,
			"componentType":5126,
			"count":50,
			"type":"VEC3"
		},
		{
			"bufferView":10,
			"componentType":5126,
			"count":50,
			"type":"VEC2"
		},
		{
			"bufferView":11,
			"componentType":5126,
			"count":50,
			"max":[
				0.4755282700061798,
				0.05000000074505806,
				1.2055211067199707
			],
			"min":[
				-0.4755282700061798,
				-0.05000000074505806,
				0.20552116632461548
			],
			"type":"VEC3"
		},
		{
			"bufferView":12,
			"componentType":5126,
			"count":50,
			"type":"VEC3"
		},
		{
			"bufferView":13,
			"componentType":5126,
			"count":50,
			"type":"VEC2"
		},
		{
			"bufferView":14,
			"componentType":5126,
			"count":50,
			"max":[
				0.4755282700061798,
				0.05000000074505806,
				1.2055211067199707
			],
			"min":[
				-0.4755282700061798,
				-0.05000000074505806,
				0.20552116632461548
			],
			"type":"VEC3"
		},
		{
			"bufferView":15,
			"componentType":5126,
			"count":50,
			"type":"VEC3"
		},
		{
			"bufferView":16,
			"componentType":5126,
			"count":50,
			"type":"VEC2"
		}
	],
	"bufferViews":[
		{
			"buffer":0,
			"byteLength":2772,
			"byteOffset":0,
			"target":34962
		},
		{
			"buffer":0,
			"byteLength":2772,
			"byteOffset":2772,
			"target":34962
		},
		{
			"buffer":0,
			"byteLength":1848,
			"byteOffset":5544,
			"target":34962
		},
		{
			"buffer":0,
			"byteLength":1104,
			"byteOffset":7392,
			"target":34963
		},
		{
			"buffer":0,
			"byteLength":600,
			"byteOffset":8496,
			"target":34962
		},
		{
			"buffer":0,
			"byteLength":600,
			"byteOffset":9096,
			"target":34962
		},
		{
			"buffer":0,
			"byteLength":400,
			"byteOffset":9696,
			"target":34962
		},
		{
			"buffer":0,
			"byteLength":168,
			"byteOffset":10096,
			"target":34963
		},
		{
			"buffer":0,
			"byteLength":600,
			"byteOffset":10264,
			"target":34962
		},
		{
			"buffer":0,
			"byteLength":600,
			"byteOffset":10864,
			"target":34962
		},
		{
			"buffer":0,
			"byteLength":400,
			"byteOffset":11464,
			"target":34962
		},
		{
			"buffer":0,
			"byteLength":600,
			"byteOffset":11864,
			"target":34962
		},
		{
			"buffer":0,
			"byteLength":600,
			"byteOffset":12464,
			"target":34962
		},
		{
			"buffer":0,
			"byteLength":400,
			"byteOffset":13064,
			"target":34962
		},
		{
			"buffer":0,
			"byteLength":600,
			"byteOffset":13464,
			"target":34962
		},
		{
			"buffer":0,
			"byteLength":600,
			"byteOffset":14064,
			"target":34962
		},
		{
			"buffer":0,
			"byteLength":400,
			"byteOffset":14664,
			"target":34962
		}
	],
	"samplers":[
		{
			"magFilter":9728,
			"minFilter":9984
		}
	],
	"buffers":[
		{
			"byteLength":15064,
			"uri":"oven_stove.bin"
		}
	]
}
