{
	"asset":{
		"generator":"Khronos glTF Blender I/O v5.0.21",
		"version":"2.0"
	},
	"extensionsUsed":[
		"KHR_materials_specular",
		"KHR_materials_ior"
	],
	"scene":0,
	"scenes":[
		{
			"name":"Scene",
			"nodes":[
				0,
				1,
				2,
				3
			]
		}
	],
	"nodes":[
		{
			"mesh":0,
			"name":"Seat-col",
			"scale":[
				1,
				0.21025526523590088,
				3.182283639907837
			],
			"translation":[
				0,
				1.7473593950271606,
				0
			]
		},
		{
			"mesh":1,
			"name":"Back-col",
			"rotation":[
				0,
				0,
				-0.6597523093223572,
				0.751483142375946
			],
			"scale":[
				0.8580642342567444,
				0.2097821980714798,
				3.182283639907837
			],
			"translation":[
				-1.4459564685821533,
				3.3067235946655273,
				0
			]
		},
		{
			"mesh":2,
			"name":"REndCap",
			"rotation":[
				1,
				0,
				0,
				0
			],
			"scale":[
				-0.11042580753564835,
				-1,
				-0.09366928040981293
			],
			"translation":[
				-1.7861815690994263,
				2.9854001998901367,
				3.222424030303955
			]
		},
		{
			"mesh":3,
			"name":"LEndCap",
			"rotation":[
				1,
				0,
				0,
				0
			],
			"scale":[
				-0.11042580753564835,
				-1,
				-0.09366928040981293
			],
			"translation":[
				-1.7861815690994263,
				2.9854001998901367,
				-3.2309136390686035
			]
		}
	],
	"materials":[
		{
			"doubleSided":true,
			"extensions":{
				"KHR_materials_specular":{
					"specularFactor":0.1679999828338623
				},
				"KHR_materials_ior":{
					"ior":1.4500000476837158
				}
			},
			"name":"Material",
			"pbrMetallicRoughness":{
				"baseColorTexture":{
					"index":0
				},
				"metallicFactor":0,
				"roughnessFactor":0.5
			}
		},
		{
			"doubleSided":true,
			"extensions":{
				"KHR_materials_specular":{
					"specularFactor":0.08799999952316284
				}
			},
			"name":"Metal",
			"pbrMetallicRoughness":{
				"baseColorTexture":{
					"index":1
				},
				"metallicFactor":0.1679999977350235,
				"roughnessFactor":0.5
			}
		}
	],
	"meshes":[
		{
			"name":"Cube.001",
			"primitives":[
				{
					"attributes":{
						"POSITION":0,
						"NORMAL":1,
						"TEXCOORD_0":2
					},
					"indices":3,
					"material":0
				}
			]
		},
		{
			"name":"Cube.002",
			"primitives":[
				{
					"attributes":{
						"POSITION":4,
						"NORMAL":5,
						"TEXCOORD_0":6
					},
					"indices":3,
					"material":0
				}
			]
		},
		{
			"name":"Cube.003",
			"primitives":[
				{
					"attributes":{
						"POSITION":7,
						"NORMAL":8,
						"TEXCOORD_0":9
					},
					"indices":10,
					"material":1
				}
			]
		},
		{
			"name":"Cube.004",
			"primitives":[
				{
					"attributes":{
						"POSITION":11,
						"NORMAL":12,
						"TEXCOORD_0":13
					},
					"indices":10,
					"material":1
				}
			]
		}
	],
	"textures":[
		{
			"sampler":0,
			"source":0
		},
		{
			"sampler":0,
			"source":1
		}
	],
	"images":[
		{
			"mimeType":"image/png",
			"name":"WoodFloor01",
			"uri":"WoodFloor01.png"
		},
		{
			"mimeType":"image/png",
			"name":"rusty_metal_gray",
			"uri":"rusty_metal_gray.png"
		}
	],
	"accessors":[
		{
			"bufferView":0,
			"componentType":5126,
			"count":60,
			"max":[
				1,
				1.2809292078018188,
				1
			],
			"min":[
				-1,
				-1,
				-1
			],
			"type":"VEC3"
		},
		{
			"bufferView":1,
			"componentType":5126,
			"count":60,
			"type":"VEC3"
		},
		{
			"bufferView":2,
			"componentType":5126,
			"count":60,
			"type":"VEC2"
		},
		{
			"bufferView":3,
			"componentType":5123,
			"count":108,
			"type":"SCALAR"
		},
		{
			"bufferView":4,
			"componentType":5126,
			"count":60,
			"max":[
				1,
				1.2809292078018188,
				1
			],
			"min":[
				-1,
				-1,
				-1
			],
			"type":"VEC3"
		},
		{
			"bufferView":5,
			"componentType":5126,
			"count":60,
			"type":"VEC3"
		},
		{
			"bufferView":6,
			"componentType":5126,
			"count":60,
			"type":"VEC2"
		},
		{
			"bufferView":7,
			"componentType":5126,
			"count":412,
			"max":[
				0.13086557388305664,
				1.3194661140441895,
				1.0000007152557373
			],
			"min":[
				-26.604936599731445,
				-3.0401763916015625,
				-1.0000004768371582
			],
			"type":"VEC3"
		},
		{
			"bufferView":8,
			"componentType":5126,
			"count":412,
			"type":"VEC3"
		},
		{
			"bufferView":9,
			"componentType":5126,
			"count":412,
			"type":"VEC2"
		},
		{
			"bufferView":10,
			"componentType":5123,
			"count":876,
			"type":"SCALAR"
		},
		{
			"bufferView":11,
			"componentType":5126,
			"count":412,
			"max":[
				0.13086557388305664,
				1.3194661140441895,
				1.0000007152557373
			],
			"min":[
				-26.604936599731445,
				-3.0401763916015625,
				-1.0000004768371582
			],
			"type":"VEC3"
		},
		{
			"bufferView":12,
			"componentType":5126,
			"count":412,
			"type":"VEC3"
		},
		{
			"bufferView":13,
			"componentType":5126,
			"count":412,
			"type":"VEC2"
		}
	],
	"bufferViews":[
		{
			"buffer":0,
			"byteLength":720,
			"byteOffset":0,
			"target":34962
		},
		{
			"buffer":0,
			"byteLength":720,
			"byteOffset":720,
			"target":34962
		},
		{
			"buffer":0,
			"byteLength":480,
			"byteOffset":1440,
			"target":34962
		},
		{
			"buffer":0,
			"byteLength":216,
			"byteOffset":1920,
			"target":34963
		},
		{
			"buffer":0,
			"byteLength":720,
			"byteOffset":2136,
			"target":34962
		},
		{
			"buffer":0,
			"byteLength":720,
			"byteOffset":2856,
			"target":34962
		},
		{
			"buffer":0,
			"byteLength":480,
			"byteOffset":3576,
			"target":34962
		},
		{
			"buffer":0,
			"byteLength":4944,
			"byteOffset":4056,
			"target":34962
		},
		{
			"buffer":0,
			"byteLength":4944,
			"byteOffset":9000,
			"target":34962
		},
		{
			"buffer":0,
			"byteLength":3296,
			"byteOffset":13944,
			"target":34962
		},
		{
			"buffer":0,
			"byteLength":1752,
			"byteOffset":17240,
			"target":34963
		},
		{
			"buffer":0,
			"byteLength":4944,
			"byteOffset":18992,
			"target":34962
		},
		{
			"buffer":0,
			"byteLength":4944,
			"byteOffset":23936,
			"target":34962
		},
		{
			"buffer":0,
			"byteLength":3296,
			"byteOffset":28880,
			"target":34962
		}
	],
	"samplers":[
		{
			"magFilter":9728,
			"minFilter":9984
		}
	],
	"buffers":[
		{
			"byteLength":32176,
			"uri":"park_bench.bin"
		}
	]
}
