{
	"asset":{
		"generator":"Khronos glTF Blender I/O v5.0.21",
		"version":"2.0"
	},
	"extensionsUsed":[
		"KHR_materials_specular",
		"KHR_materials_ior"
	],
	"scene":0,
	"scenes":[
		{
			"name":"Scene",
			"nodes":[
				0,
				1,
				2,
				3,
				4,
				5,
				6,
				7,
				8
			]
		}
	],
	"nodes":[
		{
			"mesh":0,
			"name":"Table-col",
			"scale":[
				2.9644038677215576,
				0.1358417272567749,
				1.4033833742141724
			],
			"translation":[
				0,
				3.049133539199829,
				0
			]
		},
		{
			"mesh":1,
			"name":"Seat1-col",
			"scale":[
				2.9644038677215576,
				0.13732685148715973,
				0.720512330532074
			],
			"translation":[
				0,
				1.8335115909576416,
				2.0347483158111572
			]
		},
		{
			"mesh":2,
			"name":"Seat2-col",
			"scale":[
				2.9644038677215576,
				0.13732685148715973,
				0.720512330532074
			],
			"translation":[
				0,
				1.8335115909576416,
				-2.0349018573760986
			]
		},
		{
			"mesh":3,
			"name":"LegA",
			"rotation":[
				0,
				0,
				-1,
				0
			],
			"scale":[
				-0.07662570476531982,
				-1.5916563272476196,
				-0.16093620657920837
			],
			"translation":[
				0,
				1.327721357345581,
				0.7006645202636719
			]
		},
		{
			"mesh":4,
			"name":"LegB",
			"rotation":[
				0,
				0,
				-1,
				0
			],
			"scale":[
				-0.07662570476531982,
				-1.5916563272476196,
				-0.16093620657920837
			],
			"translation":[
				-4.812855243682861,
				1.327721357345581,
				0.7006645202636719
			]
		},
		{
			"mesh":5,
			"name":"LegC",
			"rotation":[
				0.9999997615814209,
				0,
				0.0006908614886924624,
				0
			],
			"scale":[
				-0.07662570476531982,
				-1.5916563272476196,
				-0.16093620657920837
			],
			"translation":[
				4.819852828979492,
				1.327721357345581,
				-0.7125213146209717
			]
		},
		{
			"mesh":6,
			"name":"LegD",
			"rotation":[
				0.9999997615814209,
				0,
				0.0006908614886924624,
				0
			],
			"scale":[
				-0.07662570476531982,
				-1.5916563272476196,
				-0.16093620657920837
			],
			"translation":[
				0.0070018768310546875,
				1.327721357345581,
				-0.7191709876060486
			]
		},
		{
			"mesh":7,
			"name":"CrossPlankA",
			"scale":[
				0.10753494501113892,
				0.20262831449508667,
				2.297741651535034
			],
			"translation":[
				2.205824851989746,
				1.5213310718536377,
				0
			]
		},
		{
			"mesh":8,
			"name":"CrossPlankB",
			"scale":[
				0.10753494501113892,
				0.20262831449508667,
				2.297741651535034
			],
			"translation":[
				-2.184811592102051,
				1.5213310718536377,
				0
			]
		}
	],
	"materials":[
		{
			"doubleSided":true,
			"extensions":{
				"KHR_materials_specular":{
					"specularFactor":0
				},
				"KHR_materials_ior":{
					"ior":1.4500000476837158
				}
			},
			"name":"Material",
			"pbrMetallicRoughness":{
				"baseColorTexture":{
					"index":0
				},
				"metallicFactor":0,
				"roughnessFactor":0.5
			}
		}
	],
	"meshes":[
		{
			"name":"Cube.001",
			"primitives":[
				{
					"attributes":{
						"POSITION":0,
						"NORMAL":1,
						"TEXCOORD_0":2
					},
					"indices":3,
					"material":0
				}
			]
		},
		{
			"name":"Cube.002",
			"primitives":[
				{
					"attributes":{
						"POSITION":4,
						"NORMAL":5,
						"TEXCOORD_0":6
					},
					"indices":3,
					"material":0
				}
			]
		},
		{
			"name":"Cube.003",
			"primitives":[
				{
					"attributes":{
						"POSITION":7,
						"NORMAL":8,
						"TEXCOORD_0":9
					},
					"indices":3,
					"material":0
				}
			]
		},
		{
			"name":"Cube.004",
			"primitives":[
				{
					"attributes":{
						"POSITION":10,
						"NORMAL":11,
						"TEXCOORD_0":12
					},
					"indices":13,
					"material":0
				}
			]
		},
		{
			"name":"Cube.005",
			"primitives":[
				{
					"attributes":{
						"POSITION":14,
						"NORMAL":15,
						"TEXCOORD_0":16
					},
					"indices":13,
					"material":0
				}
			]
		},
		{
			"name":"Cube.006",
			"primitives":[
				{
					"attributes":{
						"POSITION":17,
						"NORMAL":18,
						"TEXCOORD_0":19
					},
					"indices":13,
					"material":0
				}
			]
		},
		{
			"name":"Cube.007",
			"primitives":[
				{
					"attributes":{
						"POSITION":20,
						"NORMAL":21,
						"TEXCOORD_0":22
					},
					"indices":13,
					"material":0
				}
			]
		},
		{
			"name":"Cube.008",
			"primitives":[
				{
					"attributes":{
						"POSITION":23,
						"NORMAL":24,
						"TEXCOORD_0":25
					},
					"indices":3,
					"material":0
				}
			]
		},
		{
			"name":"Cube.009",
			"primitives":[
				{
					"attributes":{
						"POSITION":26,
						"NORMAL":27,
						"TEXCOORD_0":28
					},
					"indices":3,
					"material":0
				}
			]
		}
	],
	"textures":[
		{
			"sampler":0,
			"source":0
		}
	],
	"images":[
		{
			"mimeType":"image/png",
			"name":"WoodFloor02",
			"uri":"WoodFloor02.png"
		}
	],
	"accessors":[
		{
			"bufferView":0,
			"componentType":5126,
			"count":24,
			"max":[
				1,
				1,
				1
			],
			"min":[
				-1,
				-1,
				-1
			],
			"type":"VEC3"
		},
		{
			"bufferView":1,
			"componentType":5126,
			"count":24,
			"type":"VEC3"
		},
		{
			"bufferView":2,
			"componentType":5126,
			"count":24,
			"type":"VEC2"
		},
		{
			"bufferView":3,
			"componentType":5123,
			"count":36,
			"type":"SCALAR"
		},
		{
			"bufferView":4,
			"componentType":5126,
			"count":24,
			"max":[
				1,
				1,
				1
			],
			"min":[
				-1,
				-1,
				-1
			],
			"type":"VEC3"
		},
		{
			"bufferView":5,
			"componentType":5126,
			"count":24,
			"type":"VEC3"
		},
		{
			"bufferView":6,
			"componentType":5126,
			"count":24,
			"type":"VEC2"
		},
		{
			"bufferView":7,
			"componentType":5126,
			"count":24,
			"max":[
				1,
				1,
				1
			],
			"min":[
				-1,
				-1,
				-1
			],
			"type":"VEC3"
		},
		{
			"bufferView":8,
			"componentType":5126,
			"count":24,
			"type":"VEC3"
		},
		{
			"bufferView":9,
			"componentType":5126,
			"count":24,
			"type":"VEC2"
		},
		{
			"bufferView":10,
			"componentType":5126,
			"count":20,
			"max":[
				32.80303192138672,
				0.9963948726654053,
				2.767087936401367
			],
			"min":[
				30.098249435424805,
				-0.8545013666152954,
				-7.641116619110107
			],
			"type":"VEC3"
		},
		{
			"bufferView":11,
			"componentType":5126,
			"count":20,
			"type":"VEC3"
		},
		{
			"bufferView":12,
			"componentType":5126,
			"count":20,
			"type":"VEC2"
		},
		{
			"bufferView":13,
			"componentType":5123,
			"count":30,
			"type":"SCALAR"
		},
		{
			"bufferView":14,
			"componentType":5126,
			"count":20,
			"max":[
				32.80303192138672,
				0.9963948726654053,
				2.767087936401367
			],
			"min":[
				30.098249435424805,
				-0.8545013666152954,
				-7.641116619110107
			],
			"type":"VEC3"
		},
		{
			"bufferView":15,
			"componentType":5126,
			"count":20,
			"type":"VEC3"
		},
		{
			"bufferView":16,
			"componentType":5126,
			"count":20,
			"type":"VEC2"
		},
		{
			"bufferView":17,
			"componentType":5126,
			"count":20,
			"max":[
				32.80303192138672,
				0.9963948726654053,
				2.767087936401367
			],
			"min":[
				30.098249435424805,
				-0.8545013666152954,
				-7.641116619110107
			],
			"type":"VEC3"
		},
		{
			"bufferView":18,
			"componentType":5126,
			"count":20,
			"type":"VEC3"
		},
		{
			"bufferView":19,
			"componentType":5126,
			"count":20,
			"type":"VEC2"
		},
		{
			"bufferView":20,
			"componentType":5126,
			"count":20,
			"max":[
				32.80303192138672,
				0.9963948726654053,
				2.767087936401367
			],
			"min":[
				30.098249435424805,
				-0.8545013666152954,
				-7.641116619110107
			],
			"type":"VEC3"
		},
		{
			"bufferView":21,
			"componentType":5126,
			"count":20,
			"type":"VEC3"
		},
		{
			"bufferView":22,
			"componentType":5126,
			"count":20,
			"type":"VEC2"
		},
		{
			"bufferView":23,
			"componentType":5126,
			"count":24,
			"max":[
				1,
				1,
				1
			],
			"min":[
				-1,
				-1,
				-1
			],
			"type":"VEC3"
		},
		{
			"bufferView":24,
			"componentType":5126,
			"count":24,
			"type":"VEC3"
		},
		{
			"bufferView":25,
			"componentType":5126,
			"count":24,
			"type":"VEC2"
		},
		{
			"bufferView":26,
			"componentType":5126,
			"count":24,
			"max":[
				1,
				1,
				1
			],
			"min":[
				-1,
				-1,
				-1
			],
			"type":"VEC3"
		},
		{
			"bufferView":27,
			"componentType":5126,
			"count":24,
			"type":"VEC3"
		},
		{
			"bufferView":28,
			"componentType":5126,
			"count":24,
			"type":"VEC2"
		}
	],
	"bufferViews":[
		{
			"buffer":0,
			"byteLength":288,
			"byteOffset":0,
			"target":34962
		},
		{
			"buffer":0,
			"byteLength":288,
			"byteOffset":288,
			"target":34962
		},
		{
			"buffer":0,
			"byteLength":192,
			"byteOffset":576,
			"target":34962
		},
		{
			"buffer":0,
			"byteLength":72,
			"byteOffset":768,
			"target":34963
		},
		{
			"buffer":0,
			"byteLength":288,
			"byteOffset":840,
			"target":34962
		},
		{
			"buffer":0,
			"byteLength":288,
			"byteOffset":1128,
			"target":34962
		},
		{
			"buffer":0,
			"byteLength":192,
			"byteOffset":1416,
			"target":34962
		},
		{
			"buffer":0,
			"byteLength":288,
			"byteOffset":1608,
			"target":34962
		},
		{
			"buffer":0,
			"byteLength":288,
			"byteOffset":1896,
			"target":34962
		},
		{
			"buffer":0,
			"byteLength":192,
			"byteOffset":2184,
			"target":34962
		},
		{
			"buffer":0,
			"byteLength":240,
			"byteOffset":2376,
			"target":34962
		},
		{
			"buffer":0,
			"byteLength":240,
			"byteOffset":2616,
			"target":34962
		},
		{
			"buffer":0,
			"byteLength":160,
			"byteOffset":2856,
			"target":34962
		},
		{
			"buffer":0,
			"byteLength":60,
			"byteOffset":3016,
			"target":34963
		},
		{
			"buffer":0,
			"byteLength":240,
			"byteOffset":3076,
			"target":34962
		},
		{
			"buffer":0,
			"byteLength":240,
			"byteOffset":3316,
			"target":34962
		},
		{
			"buffer":0,
			"byteLength":160,
			"byteOffset":3556,
			"target":34962
		},
		{
			"buffer":0,
			"byteLength":240,
			"byteOffset":3716,
			"target":34962
		},
		{
			"buffer":0,
			"byteLength":240,
			"byteOffset":3956,
			"target":34962
		},
		{
			"buffer":0,
			"byteLength":160,
			"byteOffset":4196,
			"target":34962
		},
		{
			"buffer":0,
			"byteLength":240,
			"byteOffset":4356,
			"target":34962
		},
		{
			"buffer":0,
			"byteLength":240,
			"byteOffset":4596,
			"target":34962
		},
		{
			"buffer":0,
			"byteLength":160,
			"byteOffset":4836,
			"target":34962
		},
		{
			"buffer":0,
			"byteLength":288,
			"byteOffset":4996,
			"target":34962
		},
		{
			"buffer":0,
			"byteLength":288,
			"byteOffset":5284,
			"target":34962
		},
		{
			"buffer":0,
			"byteLength":192,
			"byteOffset":5572,
			"target":34962
		},
		{
			"buffer":0,
			"byteLength":288,
			"byteOffset":5764,
			"target":34962
		},
		{
			"buffer":0,
			"byteLength":288,
			"byteOffset":6052,
			"target":34962
		},
		{
			"buffer":0,
			"byteLength":192,
			"byteOffset":6340,
			"target":34962
		}
	],
	"samplers":[
		{
			"magFilter":9728,
			"minFilter":9984
		}
	],
	"buffers":[
		{
			"byteLength":6532,
			"uri":"picnic_table.bin"
		}
	]
}
