{
	"asset":{
		"generator":"Khronos glTF Blender I/O v5.0.21",
		"version":"2.0"
	},
	"extensionsUsed":[
		"KHR_materials_clearcoat",
		"KHR_materials_specular",
		"KHR_materials_ior"
	],
	"scene":0,
	"scenes":[
		{
			"name":"Scene",
			"nodes":[
				0,
				1,
				2,
				3,
				4
			]
		}
	],
	"nodes":[
		{
			"mesh":0,
			"name":"Surface-col",
			"scale":[
				1,
				0.6213073134422302,
				2.04693603515625
			],
			"translation":[
				0,
				0.6385999321937561,
				0
			]
		},
		{
			"mesh":1,
			"name":"Leg",
			"rotation":[
				-0.16020630300045013,
				-0.021091558039188385,
				-0.128810852766037,
				0.9784156084060669
			],
			"scale":[
				0.9798479080200195,
				0.6665506958961487,
				0.9656898379325867
			],
			"translation":[
				-0.5203291773796082,
				0.32289889454841614,
				1.4964206218719482
			]
		},
		{
			"mesh":2,
			"name":"Leg.001",
			"rotation":[
				-0.16020122170448303,
				0.021130111068487167,
				0.12904632091522217,
				0.9783844947814941
			],
			"scale":[
				0.9797746539115906,
				0.6666582822799683,
				0.9656898379325867
			],
			"translation":[
				0.5317232608795166,
				0.32289889454841614,
				1.4964206218719482
			]
		},
		{
			"mesh":3,
			"name":"Leg.002",
			"rotation":[
				0.18137121200561523,
				0.023877974599599838,
				-0.12832355499267578,
				0.9747141003608704
			],
			"scale":[
				0.9804747104644775,
				0.6792681217193604,
				0.9561445713043213
			],
			"translation":[
				-0.5203291773796082,
				0.3224231004714966,
				-1.5907641649246216
			]
		},
		{
			"mesh":4,
			"name":"Leg.003",
			"rotation":[
				0.18137121200561523,
				-0.023877974599599838,
				0.12832355499267578,
				0.9747141003608704
			],
			"scale":[
				0.9804747104644775,
				0.6792681217193604,
				0.9561445713043213
			],
			"translation":[
				0.543117344379425,
				0.3233746886253357,
				-1.5950167179107666
			]
		}
	],
	"materials":[
		{
			"doubleSided":true,
			"extensions":{
				"KHR_materials_clearcoat":{
					"clearcoatFactor":0.07999999821186066
				},
				"KHR_materials_specular":{
					"specularFactor":0
				},
				"KHR_materials_ior":{
					"ior":1.4500000476837158
				}
			},
			"name":"Wood",
			"pbrMetallicRoughness":{
				"baseColorTexture":{
					"index":0
				},
				"metallicFactor":0,
				"roughnessFactor":0.5
			}
		},
		{
			"doubleSided":true,
			"extensions":{
				"KHR_materials_specular":{
					"specularFactor":0
				},
				"KHR_materials_ior":{
					"ior":1.4500000476837158
				}
			},
			"name":"Leg",
			"pbrMetallicRoughness":{
				"baseColorTexture":{
					"index":1
				},
				"metallicFactor":0.09600000083446503,
				"roughnessFactor":0.5
			}
		}
	],
	"meshes":[
		{
			"name":"Cylinder",
			"primitives":[
				{
					"attributes":{
						"POSITION":0,
						"NORMAL":1,
						"TEXCOORD_0":2
					},
					"indices":3,
					"material":0
				}
			]
		},
		{
			"name":"Cylinder.001",
			"primitives":[
				{
					"attributes":{
						"POSITION":4,
						"NORMAL":5,
						"TEXCOORD_0":6
					},
					"indices":7,
					"material":1
				}
			]
		},
		{
			"name":"Cylinder.002",
			"primitives":[
				{
					"attributes":{
						"POSITION":8,
						"NORMAL":9,
						"TEXCOORD_0":10
					},
					"indices":7,
					"material":1
				}
			]
		},
		{
			"name":"Cylinder.003",
			"primitives":[
				{
					"attributes":{
						"POSITION":11,
						"NORMAL":12,
						"TEXCOORD_0":13
					},
					"indices":7,
					"material":1
				}
			]
		},
		{
			"name":"Cylinder.004",
			"primitives":[
				{
					"attributes":{
						"POSITION":14,
						"NORMAL":15,
						"TEXCOORD_0":16
					},
					"indices":7,
					"material":1
				}
			]
		}
	],
	"textures":[
		{
			"sampler":0,
			"source":0
		},
		{
			"sampler":0,
			"source":1
		}
	],
	"images":[
		{
			"mimeType":"image/png",
			"name":"WoodFloor03",
			"uri":"WoodFloor03.png"
		},
		{
			"mimeType":"image/png",
			"name":"rusty_metal_gray",
			"uri":"rusty_metal_gray.png"
		}
	],
	"accessors":[
		{
			"bufferView":0,
			"componentType":5126,
			"count":96,
			"max":[
				1,
				0.10000000149011612,
				1
			],
			"min":[
				-1,
				-0.10000000149011612,
				-1
			],
			"type":"VEC3"
		},
		{
			"bufferView":1,
			"componentType":5126,
			"count":96,
			"type":"VEC3"
		},
		{
			"bufferView":2,
			"componentType":5126,
			"count":96,
			"type":"VEC2"
		},
		{
			"bufferView":3,
			"componentType":5123,
			"count":180,
			"type":"SCALAR"
		},
		{
			"bufferView":4,
			"componentType":5126,
			"count":35,
			"max":[
				0.09749279171228409,
				0.5,
				0.09009688347578049
			],
			"min":[
				-0.09749279171228409,
				-0.5,
				-0.10000000149011612
			],
			"type":"VEC3"
		},
		{
			"bufferView":5,
			"componentType":5126,
			"count":35,
			"type":"VEC3"
		},
		{
			"bufferView":6,
			"componentType":5126,
			"count":35,
			"type":"VEC2"
		},
		{
			"bufferView":7,
			"componentType":5123,
			"count":57,
			"type":"SCALAR"
		},
		{
			"bufferView":8,
			"componentType":5126,
			"count":35,
			"max":[
				0.09749279171228409,
				0.5,
				0.09009688347578049
			],
			"min":[
				-0.09749279171228409,
				-0.5,
				-0.10000000149011612
			],
			"type":"VEC3"
		},
		{
			"bufferView":9,
			"componentType":5126,
			"count":35,
			"type":"VEC3"
		},
		{
			"bufferView":10,
			"componentType":5126,
			"count":35,
			"type":"VEC2"
		},
		{
			"bufferView":11,
			"componentType":5126,
			"count":35,
			"max":[
				0.09749279171228409,
				0.5,
				0.09009688347578049
			],
			"min":[
				-0.09749279171228409,
				-0.5,
				-0.10000000149011612
			],
			"type":"VEC3"
		},
		{
			"bufferView":12,
			"componentType":5126,
			"count":35,
			"type":"VEC3"
		},
		{
			"bufferView":13,
			"componentType":5126,
			"count":35,
			"type":"VEC2"
		},
		{
			"bufferView":14,
			"componentType":5126,
			"count":35,
			"max":[
				0.09749279171228409,
				0.5,
				0.09009688347578049
			],
			"min":[
				-0.09749279171228409,
				-0.5,
				-0.10000000149011612
			],
			"type":"VEC3"
		},
		{
			"bufferView":15,
			"componentType":5126,
			"count":35,
			"type":"VEC3"
		},
		{
			"bufferView":16,
			"componentType":5126,
			"count":35,
			"type":"VEC2"
		}
	],
	"bufferViews":[
		{
			"buffer":0,
			"byteLength":1152,
			"byteOffset":0,
			"target":34962
		},
		{
			"buffer":0,
			"byteLength":1152,
			"byteOffset":1152,
			"target":34962
		},
		{
			"buffer":0,
			"byteLength":768,
			"byteOffset":2304,
			"target":34962
		},
		{
			"buffer":0,
			"byteLength":360,
			"byteOffset":3072,
			"target":34963
		},
		{
			"buffer":0,
			"byteLength":420,
			"byteOffset":3432,
			"target":34962
		},
		{
			"buffer":0,
			"byteLength":420,
			"byteOffset":3852,
			"target":34962
		},
		{
			"buffer":0,
			"byteLength":280,
			"byteOffset":4272,
			"target":34962
		},
		{
			"buffer":0,
			"byteLength":114,
			"byteOffset":4552,
			"target":34963
		},
		{
			"buffer":0,
			"byteLength":420,
			"byteOffset":4668,
			"target":34962
		},
		{
			"buffer":0,
			"byteLength":420,
			"byteOffset":5088,
			"target":34962
		},
		{
			"buffer":0,
			"byteLength":280,
			"byteOffset":5508,
			"target":34962
		},
		{
			"buffer":0,
			"byteLength":420,
			"byteOffset":5788,
			"target":34962
		},
		{
			"buffer":0,
			"byteLength":420,
			"byteOffset":6208,
			"target":34962
		},
		{
			"buffer":0,
			"byteLength":280,
			"byteOffset":6628,
			"target":34962
		},
		{
			"buffer":0,
			"byteLength":420,
			"byteOffset":6908,
			"target":34962
		},
		{
			"buffer":0,
			"byteLength":420,
			"byteOffset":7328,
			"target":34962
		},
		{
			"buffer":0,
			"byteLength":280,
			"byteOffset":7748,
			"target":34962
		}
	],
	"samplers":[
		{
			"magFilter":9728,
			"minFilter":9984
		}
	],
	"buffers":[
		{
			"byteLength":8028,
			"uri":"round_coffe_table.bin"
		}
	]
}
