{
	"asset":{
		"generator":"Khronos glTF Blender I/O v5.0.21",
		"version":"2.0"
	},
	"extensionsUsed":[
		"KHR_materials_sheen"
	],
	"scene":0,
	"scenes":[
		{
			"name":"Scene",
			"nodes":[
				0,
				1,
				2,
				3,
				4
			]
		}
	],
	"nodes":[
		{
			"mesh":0,
			"name":"Base"
		},
		{
			"mesh":1,
			"name":"Bowl",
			"rotation":[
				0,
				0,
				-0.015051341615617275,
				0.9998867511749268
			],
			"scale":[
				1.2066295146942139,
				1,
				1
			],
			"translation":[
				-0.20227356255054474,
				0.7067199945449829,
				0
			]
		},
		{
			"mesh":2,
			"name":"Seat",
			"rotation":[
				0,
				0,
				-0.014032351784408092,
				0.999901533126831
			],
			"scale":[
				0.9606618881225586,
				0.4449119567871094,
				0.792857825756073
			],
			"translation":[
				-0.19117635488510132,
				0.8490769863128662,
				0
			]
		},
		{
			"mesh":3,
			"name":"Button",
			"rotation":[
				-0.5,
				0.5,
				-0.5,
				0.5
			],
			"scale":[
				0.13976337015628815,
				0.047247081995010376,
				0.13976337015628815
			],
			"translation":[
				-1.6846933364868164,
				1.9415537118911743,
				1.0966768264770508
			]
		},
		{
			"mesh":4,
			"name":"Cube",
			"scale":[
				0.357242226600647,
				1,
				1
			],
			"translation":[
				-1.6855829954147339,
				1.508018970489502,
				0
			]
		}
	],
	"materials":[
		{
			"doubleSided":true,
			"extensions":{
				"KHR_materials_sheen":{
					"sheenColorFactor":[
						1.0,
						1.0,
						1.0
					],
					"sheenRoughnessFactor":0.5
				}
			},
			"name":"Toilet",
			"pbrMetallicRoughness":{
				"baseColorFactor":[
					0.8000000715255737,
					0.7760767936706543,
					0.7760767936706543,
					1
				],
				"metallicFactor":0.4803149700164795,
				"roughnessFactor":0.5
			}
		},
		{
			"doubleSided":true,
			"name":"Seat",
			"pbrMetallicRoughness":{
				"baseColorTexture":{
					"index":0
				},
				"metallicFactor":0,
				"roughnessFactor":0.5
			}
		},
		{
			"doubleSided":true,
			"name":"Red",
			"pbrMetallicRoughness":{
				"baseColorFactor":[
					0.1106889471411705,
					0.008606083691120148,
					0.006106304004788399,
					1
				],
				"metallicFactor":0,
				"roughnessFactor":0.5
			}
		}
	],
	"meshes":[
		{
			"name":"Cylinder",
			"primitives":[
				{
					"attributes":{
						"POSITION":0,
						"NORMAL":1,
						"TEXCOORD_0":2
					},
					"indices":3,
					"material":0
				}
			]
		},
		{
			"name":"Sphere.001",
			"primitives":[
				{
					"attributes":{
						"POSITION":4,
						"NORMAL":5,
						"TEXCOORD_0":6
					},
					"indices":7,
					"material":0
				}
			]
		},
		{
			"name":"Torus",
			"primitives":[
				{
					"attributes":{
						"POSITION":8,
						"NORMAL":9,
						"TEXCOORD_0":10
					},
					"indices":11,
					"material":1
				}
			]
		},
		{
			"name":"Cylinder.001",
			"primitives":[
				{
					"attributes":{
						"POSITION":12,
						"NORMAL":13,
						"TEXCOORD_0":14
					},
					"indices":15,
					"material":2
				}
			]
		},
		{
			"name":"Cube",
			"primitives":[
				{
					"attributes":{
						"POSITION":16,
						"NORMAL":17,
						"TEXCOORD_0":18
					},
					"indices":19,
					"material":0
				},
				{
					"attributes":{
						"POSITION":20,
						"NORMAL":21,
						"TEXCOORD_0":22
					},
					"indices":23,
					"material":1
				}
			]
		}
	],
	"textures":[
		{
			"sampler":0,
			"source":0
		}
	],
	"images":[
		{
			"mimeType":"image/png",
			"name":"toilet_green_plastic_material",
			"uri":"toilet_green_plastic_material.png"
		}
	],
	"accessors":[
		{
			"bufferView":0,
			"componentType":5126,
			"count":1836,
			"max":[
				1,
				-0.0003223419189453125,
				1
			],
			"min":[
				-1,
				-1,
				-1
			],
			"type":"VEC3"
		},
		{
			"bufferView":1,
			"componentType":5126,
			"count":1836,
			"type":"VEC3"
		},
		{
			"bufferView":2,
			"componentType":5126,
			"count":1836,
			"type":"VEC2"
		},
		{
			"bufferView":3,
			"componentType":5123,
			"count":2874,
			"type":"SCALAR"
		},
		{
			"bufferView":4,
			"componentType":5126,
			"count":3930,
			"max":[
				0.9999997019767761,
				0.14021699130535126,
				0.9999993443489075
			],
			"min":[
				-0.9999990463256836,
				-0.9999998211860657,
				-1
			],
			"type":"VEC3"
		},
		{
			"bufferView":5,
			"componentType":5126,
			"count":3930,
			"type":"VEC3"
		},
		{
			"bufferView":6,
			"componentType":5126,
			"count":3930,
			"type":"VEC2"
		},
		{
			"bufferView":7,
			"componentType":5123,
			"count":6144,
			"type":"SCALAR"
		},
		{
			"bufferView":8,
			"componentType":5126,
			"count":1636,
			"max":[
				1.25,
				0.25,
				1.25
			],
			"min":[
				-1.25,
				-0.0017452239990234375,
				-1.25
			],
			"type":"VEC3"
		},
		{
			"bufferView":9,
			"componentType":5126,
			"count":1636,
			"type":"VEC3"
		},
		{
			"bufferView":10,
			"componentType":5126,
			"count":1636,
			"type":"VEC2"
		},
		{
			"bufferView":11,
			"componentType":5123,
			"count":2604,
			"type":"SCALAR"
		},
		{
			"bufferView":12,
			"componentType":5126,
			"count":192,
			"max":[
				1,
				1,
				1
			],
			"min":[
				-1,
				-1,
				-1
			],
			"type":"VEC3"
		},
		{
			"bufferView":13,
			"componentType":5126,
			"count":192,
			"type":"VEC3"
		},
		{
			"bufferView":14,
			"componentType":5126,
			"count":192,
			"type":"VEC2"
		},
		{
			"bufferView":15,
			"componentType":5123,
			"count":372,
			"type":"SCALAR"
		},
		{
			"bufferView":16,
			"componentType":5126,
			"count":92,
			"max":[
				1.3329106569290161,
				0.73208087682724,
				1.1137484312057495
			],
			"min":[
				-1.1137484312057495,
				-1.315242052078247,
				-1.1137484312057495
			],
			"type":"VEC3"
		},
		{
			"bufferView":17,
			"componentType":5126,
			"count":92,
			"type":"VEC3"
		},
		{
			"bufferView":18,
			"componentType":5126,
			"count":92,
			"type":"VEC2"
		},
		{
			"bufferView":19,
			"componentType":5123,
			"count":162,
			"type":"SCALAR"
		},
		{
			"bufferView":20,
			"componentType":5126,
			"count":56,
			"max":[
				1.1366245746612549,
				0.9055167436599731,
				1.1366243362426758
			],
			"min":[
				-1.1366244554519653,
				0.73208087682724,
				-1.1366243362426758
			],
			"type":"VEC3"
		},
		{
			"bufferView":21,
			"componentType":5126,
			"count":56,
			"type":"VEC3"
		},
		{
			"bufferView":22,
			"componentType":5126,
			"count":56,
			"type":"VEC2"
		},
		{
			"bufferView":23,
			"componentType":5123,
			"count":114,
			"type":"SCALAR"
		}
	],
	"bufferViews":[
		{
			"buffer":0,
			"byteLength":22032,
			"byteOffset":0,
			"target":34962
		},
		{
			"buffer":0,
			"byteLength":22032,
			"byteOffset":22032,
			"target":34962
		},
		{
			"buffer":0,
			"byteLength":14688,
			"byteOffset":44064,
			"target":34962
		},
		{
			"buffer":0,
			"byteLength":5748,
			"byteOffset":58752,
			"target":34963
		},
		{
			"buffer":0,
			"byteLength":47160,
			"byteOffset":64500,
			"target":34962
		},
		{
			"buffer":0,
			"byteLength":47160,
			"byteOffset":111660,
			"target":34962
		},
		{
			"buffer":0,
			"byteLength":31440,
			"byteOffset":158820,
			"target":34962
		},
		{
			"buffer":0,
			"byteLength":12288,
			"byteOffset":190260,
			"target":34963
		},
		{
			"buffer":0,
			"byteLength":19632,
			"byteOffset":202548,
			"target":34962
		},
		{
			"buffer":0,
			"byteLength":19632,
			"byteOffset":222180,
			"target":34962
		},
		{
			"buffer":0,
			"byteLength":13088,
			"byteOffset":241812,
			"target":34962
		},
		{
			"buffer":0,
			"byteLength":5208,
			"byteOffset":254900,
			"target":34963
		},
		{
			"buffer":0,
			"byteLength":2304,
			"byteOffset":260108,
			"target":34962
		},
		{
			"buffer":0,
			"byteLength":2304,
			"byteOffset":262412,
			"target":34962
		},
		{
			"buffer":0,
			"byteLength":1536,
			"byteOffset":264716,
			"target":34962
		},
		{
			"buffer":0,
			"byteLength":744,
			"byteOffset":266252,
			"target":34963
		},
		{
			"buffer":0,
			"byteLength":1104,
			"byteOffset":266996,
			"target":34962
		},
		{
			"buffer":0,
			"byteLength":1104,
			"byteOffset":268100,
			"target":34962
		},
		{
			"buffer":0,
			"byteLength":736,
			"byteOffset":269204,
			"target":34962
		},
		{
			"buffer":0,
			"byteLength":324,
			"byteOffset":269940,
			"target":34963
		},
		{
			"buffer":0,
			"byteLength":672,
			"byteOffset":270264,
			"target":34962
		},
		{
			"buffer":0,
			"byteLength":672,
			"byteOffset":270936,
			"target":34962
		},
		{
			"buffer":0,
			"byteLength":448,
			"byteOffset":271608,
			"target":34962
		},
		{
			"buffer":0,
			"byteLength":228,
			"byteOffset":272056,
			"target":34963
		}
	],
	"samplers":[
		{
			"magFilter":9729,
			"minFilter":9987
		}
	],
	"buffers":[
		{
			"byteLength":272284,
			"uri":"toilet.bin"
		}
	]
}
