{
	"asset":{
		"generator":"Khronos glTF Blender I/O v5.0.21",
		"version":"2.0"
	},
	"scene":0,
	"scenes":[
		{
			"name":"Scene",
			"nodes":[
				0,
				1
			]
		}
	],
	"nodes":[
		{
			"mesh":0,
			"name":"Cylinder-col",
			"scale":[
				0.9089067578315735,
				0.9089067578315735,
				0.9089067578315735
			]
		},
		{
			"mesh":1,
			"name":"Sphere",
			"translation":[
				0,
				2.6326308250427246,
				0
			]
		}
	],
	"materials":[
		{
			"doubleSided":true,
			"name":"Material",
			"pbrMetallicRoughness":{
				"baseColorTexture":{
					"index":0
				},
				"metallicFactor":0,
				"roughnessFactor":0.5
			}
		},
		{
			"doubleSided":true,
			"name":"Lid",
			"pbrMetallicRoughness":{
				"baseColorTexture":{
					"index":1
				},
				"roughnessFactor":0.5
			}
		}
	],
	"meshes":[
		{
			"name":"Cylinder",
			"primitives":[
				{
					"attributes":{
						"POSITION":0,
						"NORMAL":1,
						"TEXCOORD_0":2
					},
					"indices":3,
					"material":0
				}
			]
		},
		{
			"name":"Sphere",
			"primitives":[
				{
					"attributes":{
						"POSITION":4,
						"NORMAL":5,
						"TEXCOORD_0":6
					},
					"indices":7,
					"material":1
				}
			]
		}
	],
	"textures":[
		{
			"sampler":0,
			"source":0
		},
		{
			"sampler":1,
			"source":1
		}
	],
	"images":[
		{
			"mimeType":"image/png",
			"name":"RustyMetal02",
			"uri":"RustyMetal02.png"
		},
		{
			"mimeType":"image/png",
			"name":"BatteredMetal01",
			"uri":"BatteredMetal01.png"
		}
	],
	"accessors":[
		{
			"bufferView":0,
			"componentType":5126,
			"count":168,
			"max":[
				1.0906907320022583,
				2.916912317276001,
				1.0906907320022583
			],
			"min":[
				-1.0906907320022583,
				-0.02924346923828125,
				-1.0906907320022583
			],
			"type":"VEC3"
		},
		{
			"bufferView":1,
			"componentType":5126,
			"count":168,
			"type":"VEC3"
		},
		{
			"bufferView":2,
			"componentType":5126,
			"count":168,
			"type":"VEC2"
		},
		{
			"bufferView":3,
			"componentType":5123,
			"count":276,
			"type":"SCALAR"
		},
		{
			"bufferView":4,
			"componentType":5126,
			"count":206,
			"max":[
				0.8999999165534973,
				0.8999999761581421,
				0.8999998569488525
			],
			"min":[
				-0.7794227600097656,
				0,
				-0.8999999761581421
			],
			"type":"VEC3"
		},
		{
			"bufferView":5,
			"componentType":5126,
			"count":206,
			"type":"VEC3"
		},
		{
			"bufferView":6,
			"componentType":5126,
			"count":206,
			"type":"VEC2"
		},
		{
			"bufferView":7,
			"componentType":5123,
			"count":294,
			"type":"SCALAR"
		}
	],
	"bufferViews":[
		{
			"buffer":0,
			"byteLength":2016,
			"byteOffset":0,
			"target":34962
		},
		{
			"buffer":0,
			"byteLength":2016,
			"byteOffset":2016,
			"target":34962
		},
		{
			"buffer":0,
			"byteLength":1344,
			"byteOffset":4032,
			"target":34962
		},
		{
			"buffer":0,
			"byteLength":552,
			"byteOffset":5376,
			"target":34963
		},
		{
			"buffer":0,
			"byteLength":2472,
			"byteOffset":5928,
			"target":34962
		},
		{
			"buffer":0,
			"byteLength":2472,
			"byteOffset":8400,
			"target":34962
		},
		{
			"buffer":0,
			"byteLength":1648,
			"byteOffset":10872,
			"target":34962
		},
		{
			"buffer":0,
			"byteLength":588,
			"byteOffset":12520,
			"target":34963
		}
	],
	"samplers":[
		{
			"magFilter":9729,
			"minFilter":9987
		},
		{
			"magFilter":9728,
			"minFilter":9984
		}
	],
	"buffers":[
		{
			"byteLength":13108,
			"uri":"trash_can_public.bin"
		}
	]
}
