{
	"asset":{
		"generator":"Khronos glTF Blender I/O v5.0.21",
		"version":"2.0"
	},
	"extensionsUsed":[
		"KHR_materials_specular",
		"KHR_materials_ior"
	],
	"scene":0,
	"scenes":[
		{
			"name":"Scene",
			"nodes":[
				0,
				1,
				2,
				3,
				4
			]
		}
	],
	"nodes":[
		{
			"mesh":0,
			"name":"Factory",
			"scale":[
				23.930604934692383,
				20.135133743286133,
				82.8604965209961
			],
			"translation":[
				0,
				26.135414123535156,
				0
			]
		},
		{
			"mesh":1,
			"name":"Cylinder.008",
			"rotation":[
				0,
				1,
				0,
				0
			],
			"scale":[
				-11.00294303894043,
				-68.08685302734375,
				-11.00294303894043
			],
			"translation":[
				26.566614151000977,
				65.9569320678711,
				78.18792724609375
			]
		},
		{
			"mesh":2,
			"name":"Cylinder.007",
			"rotation":[
				0,
				1,
				0,
				0
			],
			"scale":[
				-11.00294303894043,
				-68.08685302734375,
				-11.00294303894043
			],
			"translation":[
				-48.59746170043945,
				65.9569320678711,
				78.18792724609375
			]
		},
		{
			"mesh":3,
			"name":"Cylinder.006",
			"rotation":[
				0,
				1,
				0,
				0
			],
			"scale":[
				-11.00294303894043,
				-68.08685302734375,
				-11.00294303894043
			],
			"translation":[
				26.566614151000977,
				65.9569320678711,
				-84.01962280273438
			]
		},
		{
			"mesh":4,
			"name":"Cylinder.005",
			"rotation":[
				0,
				1,
				0,
				0
			],
			"scale":[
				-11.00294303894043,
				-68.08685302734375,
				-11.00294303894043
			],
			"translation":[
				-48.59746170043945,
				65.9569320678711,
				-84.01962280273438
			]
		}
	],
	"materials":[
		{
			"doubleSided":true,
			"extensions":{
				"KHR_materials_specular":{
					"specularFactor":0
				},
				"KHR_materials_ior":{
					"ior":1.4500000476837158
				}
			},
			"name":"Sidewalk",
			"pbrMetallicRoughness":{
				"baseColorTexture":{
					"index":0
				},
				"metallicFactor":0,
				"roughnessFactor":0.5
			}
		}
	],
	"meshes":[
		{
			"name":"Cube.110",
			"primitives":[
				{
					"attributes":{
						"POSITION":0,
						"NORMAL":1,
						"TEXCOORD_0":2
					},
					"indices":3,
					"material":0
				}
			]
		},
		{
			"name":"Cylinder.037",
			"primitives":[
				{
					"attributes":{
						"POSITION":4,
						"NORMAL":5,
						"TEXCOORD_0":6
					},
					"indices":7
				}
			]
		},
		{
			"name":"Cylinder.036",
			"primitives":[
				{
					"attributes":{
						"POSITION":8,
						"NORMAL":9,
						"TEXCOORD_0":10
					},
					"indices":7
				}
			]
		},
		{
			"name":"Cylinder.004",
			"primitives":[
				{
					"attributes":{
						"POSITION":11,
						"NORMAL":12,
						"TEXCOORD_0":13
					},
					"indices":7
				}
			]
		},
		{
			"name":"Cylinder.003",
			"primitives":[
				{
					"attributes":{
						"POSITION":14,
						"NORMAL":15,
						"TEXCOORD_0":16
					},
					"indices":7
				}
			]
		}
	],
	"textures":[
		{
			"sampler":0,
			"source":0
		}
	],
	"images":[
		{
			"mimeType":"image/png",
			"name":"concrete_tile",
			"uri":"concrete_tile.png"
		}
	],
	"accessors":[
		{
			"bufferView":0,
			"componentType":5126,
			"count":20,
			"max":[
				1,
				1,
				1
			],
			"min":[
				-1.921691656112671,
				-1.394014835357666,
				-1
			],
			"type":"VEC3"
		},
		{
			"bufferView":1,
			"componentType":5126,
			"count":20,
			"type":"VEC3"
		},
		{
			"bufferView":2,
			"componentType":5126,
			"count":20,
			"type":"VEC2"
		},
		{
			"bufferView":3,
			"componentType":5123,
			"count":30,
			"type":"SCALAR"
		},
		{
			"bufferView":4,
			"componentType":5126,
			"count":30,
			"max":[
				0.8660253882408142,
				1,
				1
			],
			"min":[
				-0.8660253882408142,
				-0.8436110019683838,
				-1
			],
			"type":"VEC3"
		},
		{
			"bufferView":5,
			"componentType":5126,
			"count":30,
			"type":"VEC3"
		},
		{
			"bufferView":6,
			"componentType":5126,
			"count":30,
			"type":"VEC2"
		},
		{
			"bufferView":7,
			"componentType":5123,
			"count":48,
			"type":"SCALAR"
		},
		{
			"bufferView":8,
			"componentType":5126,
			"count":30,
			"max":[
				0.8660253882408142,
				1,
				1
			],
			"min":[
				-0.8660253882408142,
				-0.8436110019683838,
				-1
			],
			"type":"VEC3"
		},
		{
			"bufferView":9,
			"componentType":5126,
			"count":30,
			"type":"VEC3"
		},
		{
			"bufferView":10,
			"componentType":5126,
			"count":30,
			"type":"VEC2"
		},
		{
			"bufferView":11,
			"componentType":5126,
			"count":30,
			"max":[
				0.8660253882408142,
				1,
				1
			],
			"min":[
				-0.8660253882408142,
				-0.8436110019683838,
				-1
			],
			"type":"VEC3"
		},
		{
			"bufferView":12,
			"componentType":5126,
			"count":30,
			"type":"VEC3"
		},
		{
			"bufferView":13,
			"componentType":5126,
			"count":30,
			"type":"VEC2"
		},
		{
			"bufferView":14,
			"componentType":5126,
			"count":30,
			"max":[
				0.8660253882408142,
				1,
				1
			],
			"min":[
				-0.8660253882408142,
				-0.8436110019683838,
				-1
			],
			"type":"VEC3"
		},
		{
			"bufferView":15,
			"componentType":5126,
			"count":30,
			"type":"VEC3"
		},
		{
			"bufferView":16,
			"componentType":5126,
			"count":30,
			"type":"VEC2"
		}
	],
	"bufferViews":[
		{
			"buffer":0,
			"byteLength":240,
			"byteOffset":0,
			"target":34962
		},
		{
			"buffer":0,
			"byteLength":240,
			"byteOffset":240,
			"target":34962
		},
		{
			"buffer":0,
			"byteLength":160,
			"byteOffset":480,
			"target":34962
		},
		{
			"buffer":0,
			"byteLength":60,
			"byteOffset":640,
			"target":34963
		},
		{
			"buffer":0,
			"byteLength":360,
			"byteOffset":700,
			"target":34962
		},
		{
			"buffer":0,
			"byteLength":360,
			"byteOffset":1060,
			"target":34962
		},
		{
			"buffer":0,
			"byteLength":240,
			"byteOffset":1420,
			"target":34962
		},
		{
			"buffer":0,
			"byteLength":96,
			"byteOffset":1660,
			"target":34963
		},
		{
			"buffer":0,
			"byteLength":360,
			"byteOffset":1756,
			"target":34962
		},
		{
			"buffer":0,
			"byteLength":360,
			"byteOffset":2116,
			"target":34962
		},
		{
			"buffer":0,
			"byteLength":240,
			"byteOffset":2476,
			"target":34962
		},
		{
			"buffer":0,
			"byteLength":360,
			"byteOffset":2716,
			"target":34962
		},
		{
			"buffer":0,
			"byteLength":360,
			"byteOffset":3076,
			"target":34962
		},
		{
			"buffer":0,
			"byteLength":240,
			"byteOffset":3436,
			"target":34962
		},
		{
			"buffer":0,
			"byteLength":360,
			"byteOffset":3676,
			"target":34962
		},
		{
			"buffer":0,
			"byteLength":360,
			"byteOffset":4036,
			"target":34962
		},
		{
			"buffer":0,
			"byteLength":240,
			"byteOffset":4396,
			"target":34962
		}
	],
	"samplers":[
		{
			"magFilter":9728,
			"minFilter":9984
		}
	],
	"buffers":[
		{
			"byteLength":4636,
			"uri":"factory.bin"
		}
	]
}
