{
	"asset":{
		"generator":"Khronos glTF Blender I/O v5.0.21",
		"version":"2.0"
	},
	"extensionsUsed":[
		"KHR_materials_specular",
		"KHR_materials_ior"
	],
	"scene":0,
	"scenes":[
		{
			"name":"Scene",
			"nodes":[
				0,
				1,
				2
			]
		}
	],
	"nodes":[
		{
			"mesh":0,
			"name":"Building-col",
			"scale":[
				4.608088970184326,
				4.608088970184326,
				4.608088970184326
			],
			"translation":[
				0,
				4.423826217651367,
				-12.523917198181152
			]
		},
		{
			"mesh":1,
			"name":"Gate-col",
			"scale":[
				1,
				3.940335988998413,
				1
			],
			"translation":[
				5.363986015319824,
				3.982353925704956,
				-9.721381187438965
			]
		},
		{
			"mesh":2,
			"name":"Barbwire",
			"rotation":[
				0,
				0,
				-0.7072497010231018,
				0.706963837146759
			],
			"scale":[
				1.0000135898590088,
				13.135215759277344,
				1
			],
			"translation":[
				17.473588943481445,
				8.838385581970215,
				-9.684976577758789
			]
		}
	],
	"materials":[
		{
			"doubleSided":true,
			"name":"Material",
			"pbrMetallicRoughness":{
				"baseColorTexture":{
					"index":0
				},
				"metallicFactor":0,
				"roughnessFactor":0.5
			}
		},
		{
			"doubleSided":true,
			"name":"Window"
		},
		{
			"doubleSided":true,
			"extensions":{
				"KHR_materials_specular":{
					"specularFactor":0
				},
				"KHR_materials_ior":{
					"ior":1.4500000476837158
				}
			},
			"name":"RoofTrim",
			"pbrMetallicRoughness":{
				"baseColorTexture":{
					"index":1
				},
				"metallicFactor":0,
				"roughnessFactor":0.5
			}
		},
		{
			"doubleSided":true,
			"extensions":{
				"KHR_materials_specular":{
					"specularFactor":0
				},
				"KHR_materials_ior":{
					"ior":1.4500000476837158
				}
			},
			"name":"Roof",
			"pbrMetallicRoughness":{
				"baseColorTexture":{
					"index":2
				},
				"metallicFactor":0,
				"roughnessFactor":0.5
			}
		},
		{
			"doubleSided":true,
			"extensions":{
				"KHR_materials_specular":{
					"specularFactor":0
				},
				"KHR_materials_ior":{
					"ior":1.4500000476837158
				}
			},
			"name":"GateFrame",
			"pbrMetallicRoughness":{
				"baseColorTexture":{
					"index":3
				},
				"roughnessFactor":0.5
			}
		},
		{
			"alphaMode":"BLEND",
			"doubleSided":true,
			"extensions":{
				"KHR_materials_specular":{
					"specularFactor":0
				},
				"KHR_materials_ior":{
					"ior":1.4500000476837158
				}
			},
			"name":"Gate",
			"pbrMetallicRoughness":{
				"baseColorTexture":{
					"index":4
				},
				"metallicFactor":0,
				"roughnessFactor":0.5
			}
		},
		{
			"alphaMode":"BLEND",
			"doubleSided":true,
			"extensions":{
				"KHR_materials_specular":{
					"specularFactor":0
				},
				"KHR_materials_ior":{
					"ior":1.4500000476837158
				}
			},
			"name":"Barbwire",
			"pbrMetallicRoughness":{
				"baseColorTexture":{
					"index":5
				},
				"roughnessFactor":0.5
			}
		}
	],
	"meshes":[
		{
			"name":"Cube.001",
			"primitives":[
				{
					"attributes":{
						"POSITION":0,
						"NORMAL":1,
						"TEXCOORD_0":2
					},
					"indices":3,
					"material":0
				},
				{
					"attributes":{
						"POSITION":4,
						"NORMAL":5,
						"TEXCOORD_0":6
					},
					"indices":7,
					"material":1
				},
				{
					"attributes":{
						"POSITION":8,
						"NORMAL":9,
						"TEXCOORD_0":10
					},
					"indices":11,
					"material":2
				},
				{
					"attributes":{
						"POSITION":12,
						"NORMAL":13,
						"TEXCOORD_0":14
					},
					"indices":15,
					"material":3
				},
				{
					"attributes":{
						"POSITION":16,
						"NORMAL":17,
						"TEXCOORD_0":18
					},
					"indices":19,
					"material":1
				}
			]
		},
		{
			"name":"Cube.002",
			"primitives":[
				{
					"attributes":{
						"POSITION":20,
						"NORMAL":21,
						"TEXCOORD_0":22
					},
					"indices":23,
					"material":4
				},
				{
					"attributes":{
						"POSITION":24,
						"NORMAL":25,
						"TEXCOORD_0":26
					},
					"indices":27,
					"material":5
				}
			]
		},
		{
			"name":"Cylinder",
			"primitives":[
				{
					"attributes":{
						"POSITION":28,
						"NORMAL":29,
						"TEXCOORD_0":30
					},
					"indices":31,
					"material":6
				}
			]
		}
	],
	"textures":[
		{
			"sampler":0,
			"source":0
		},
		{
			"sampler":0,
			"source":1
		},
		{
			"sampler":0,
			"source":2
		},
		{
			"sampler":0,
			"source":3
		},
		{
			"sampler":0,
			"source":4
		},
		{
			"sampler":0,
			"source":5
		}
	],
	"images":[
		{
			"mimeType":"image/png",
			"name":"Plaster01",
			"uri":"Plaster01.png"
		},
		{
			"mimeType":"image/png",
			"name":"Asphalt02",
			"uri":"Asphalt02.png"
		},
		{
			"mimeType":"image/png",
			"name":"Dirt02",
			"uri":"Dirt02.png"
		},
		{
			"mimeType":"image/png",
			"name":"RustyMetal02",
			"uri":"RustyMetal02.png"
		},
		{
			"mimeType":"image/png",
			"name":"chain_link_1",
			"uri":"chain_link_1.png"
		},
		{
			"mimeType":"image/png",
			"name":"barbwire",
			"uri":"barbwire.png"
		}
	],
	"accessors":[
		{
			"bufferView":0,
			"componentType":5126,
			"count":89,
			"max":[
				1,
				0.7142165303230286,
				1
			],
			"min":[
				-1,
				-1,
				-1
			],
			"type":"VEC3"
		},
		{
			"bufferView":1,
			"componentType":5126,
			"count":89,
			"type":"VEC3"
		},
		{
			"bufferView":2,
			"componentType":5126,
			"count":89,
			"type":"VEC2"
		},
		{
			"bufferView":3,
			"componentType":5123,
			"count":183,
			"type":"SCALAR"
		},
		{
			"bufferView":4,
			"componentType":5126,
			"count":8,
			"max":[
				0.9147293567657471,
				0.18217390775680542,
				0
			],
			"min":[
				-0.01799502968788147,
				-0.6512951254844666,
				-0.9189653396606445
			],
			"type":"VEC3"
		},
		{
			"bufferView":5,
			"componentType":5126,
			"count":8,
			"type":"VEC3"
		},
		{
			"bufferView":6,
			"componentType":5126,
			"count":8,
			"type":"VEC2"
		},
		{
			"bufferView":7,
			"componentType":5123,
			"count":12,
			"type":"SCALAR"
		},
		{
			"bufferView":8,
			"componentType":5126,
			"count":48,
			"max":[
				1.0149132013320923,
				0.7652493119239807,
				1.0228328704833984
			],
			"min":[
				-1.0252137184143066,
				0.7142165303230286,
				-1.01729416847229
			],
			"type":"VEC3"
		},
		{
			"bufferView":9,
			"componentType":5126,
			"count":48,
			"type":"VEC3"
		},
		{
			"bufferView":10,
			"componentType":5126,
			"count":48,
			"type":"VEC2"
		},
		{
			"bufferView":11,
			"componentType":5123,
			"count":96,
			"type":"SCALAR"
		},
		{
			"bufferView":12,
			"componentType":5126,
			"count":4,
			"max":[
				0.8290514945983887,
				0.6876862049102783,
				1
			],
			"min":[
				-0.8326212167739868,
				0.6876862049102783,
				-0.8394504189491272
			],
			"type":"VEC3"
		},
		{
			"bufferView":13,
			"componentType":5126,
			"count":4,
			"type":"VEC3"
		},
		{
			"bufferView":14,
			"componentType":5126,
			"count":4,
			"type":"VEC2"
		},
		{
			"bufferView":15,
			"componentType":5123,
			"count":6,
			"type":"SCALAR"
		},
		{
			"bufferView":16,
			"componentType":5126,
			"count":12,
			"max":[
				1,
				-0.6512951254844666,
				0
			],
			"min":[
				-0.01799502968788147,
				-0.6512951254844666,
				-1
			],
			"type":"VEC3"
		},
		{
			"bufferView":17,
			"componentType":5126,
			"count":12,
			"type":"VEC3"
		},
		{
			"bufferView":18,
			"componentType":5126,
			"count":12,
			"type":"VEC2"
		},
		{
			"bufferView":19,
			"componentType":5123,
			"count":24,
			"type":"SCALAR"
		},
		{
			"bufferView":20,
			"componentType":5126,
			"count":282,
			"max":[
				25.2628231048584,
				1,
				0.2116008996963501
			],
			"min":[
				-1,
				-1,
				-0.2116008996963501
			],
			"type":"VEC3"
		},
		{
			"bufferView":21,
			"componentType":5126,
			"count":282,
			"type":"VEC3"
		},
		{
			"bufferView":22,
			"componentType":5126,
			"count":282,
			"type":"VEC2"
		},
		{
			"bufferView":23,
			"componentType":5123,
			"count":894,
			"type":"SCALAR"
		},
		{
			"bufferView":24,
			"componentType":5126,
			"count":18,
			"max":[
				24.86304473876953,
				1,
				0
			],
			"min":[
				-1,
				-1,
				-0.008450515568256378
			],
			"type":"VEC3"
		},
		{
			"bufferView":25,
			"componentType":5126,
			"count":18,
			"type":"VEC3"
		},
		{
			"bufferView":26,
			"componentType":5126,
			"count":18,
			"type":"VEC2"
		},
		{
			"bufferView":27,
			"componentType":5123,
			"count":30,
			"type":"SCALAR"
		},
		{
			"bufferView":28,
			"componentType":5126,
			"count":32,
			"max":[
				1.0036473274230957,
				1,
				1
			],
			"min":[
				-1,
				-1.6948966979980469,
				-1.0000011920928955
			],
			"type":"VEC3"
		},
		{
			"bufferView":29,
			"componentType":5126,
			"count":32,
			"type":"VEC3"
		},
		{
			"bufferView":30,
			"componentType":5126,
			"count":32,
			"type":"VEC2"
		},
		{
			"bufferView":31,
			"componentType":5123,
			"count":48,
			"type":"SCALAR"
		}
	],
	"bufferViews":[
		{
			"buffer":0,
			"byteLength":1068,
			"byteOffset":0,
			"target":34962
		},
		{
			"buffer":0,
			"byteLength":1068,
			"byteOffset":1068,
			"target":34962
		},
		{
			"buffer":0,
			"byteLength":712,
			"byteOffset":2136,
			"target":34962
		},
		{
			"buffer":0,
			"byteLength":366,
			"byteOffset":2848,
			"target":34963
		},
		{
			"buffer":0,
			"byteLength":96,
			"byteOffset":3216,
			"target":34962
		},
		{
			"buffer":0,
			"byteLength":96,
			"byteOffset":3312,
			"target":34962
		},
		{
			"buffer":0,
			"byteLength":64,
			"byteOffset":3408,
			"target":34962
		},
		{
			"buffer":0,
			"byteLength":24,
			"byteOffset":3472,
			"target":34963
		},
		{
			"buffer":0,
			"byteLength":576,
			"byteOffset":3496,
			"target":34962
		},
		{
			"buffer":0,
			"byteLength":576,
			"byteOffset":4072,
			"target":34962
		},
		{
			"buffer":0,
			"byteLength":384,
			"byteOffset":4648,
			"target":34962
		},
		{
			"buffer":0,
			"byteLength":192,
			"byteOffset":5032,
			"target":34963
		},
		{
			"buffer":0,
			"byteLength":48,
			"byteOffset":5224,
			"target":34962
		},
		{
			"buffer":0,
			"byteLength":48,
			"byteOffset":5272,
			"target":34962
		},
		{
			"buffer":0,
			"byteLength":32,
			"byteOffset":5320,
			"target":34962
		},
		{
			"buffer":0,
			"byteLength":12,
			"byteOffset":5352,
			"target":34963
		},
		{
			"buffer":0,
			"byteLength":144,
			"byteOffset":5364,
			"target":34962
		},
		{
			"buffer":0,
			"byteLength":144,
			"byteOffset":5508,
			"target":34962
		},
		{
			"buffer":0,
			"byteLength":96,
			"byteOffset":5652,
			"target":34962
		},
		{
			"buffer":0,
			"byteLength":48,
			"byteOffset":5748,
			"target":34963
		},
		{
			"buffer":0,
			"byteLength":3384,
			"byteOffset":5796,
			"target":34962
		},
		{
			"buffer":0,
			"byteLength":3384,
			"byteOffset":9180,
			"target":34962
		},
		{
			"buffer":0,
			"byteLength":2256,
			"byteOffset":12564,
			"target":34962
		},
		{
			"buffer":0,
			"byteLength":1788,
			"byteOffset":14820,
			"target":34963
		},
		{
			"buffer":0,
			"byteLength":216,
			"byteOffset":16608,
			"target":34962
		},
		{
			"buffer":0,
			"byteLength":216,
			"byteOffset":16824,
			"target":34962
		},
		{
			"buffer":0,
			"byteLength":144,
			"byteOffset":17040,
			"target":34962
		},
		{
			"buffer":0,
			"byteLength":60,
			"byteOffset":17184,
			"target":34963
		},
		{
			"buffer":0,
			"byteLength":384,
			"byteOffset":17244,
			"target":34962
		},
		{
			"buffer":0,
			"byteLength":384,
			"byteOffset":17628,
			"target":34962
		},
		{
			"buffer":0,
			"byteLength":256,
			"byteOffset":18012,
			"target":34962
		},
		{
			"buffer":0,
			"byteLength":96,
			"byteOffset":18268,
			"target":34963
		}
	],
	"samplers":[
		{
			"magFilter":9728,
			"minFilter":9984
		}
	],
	"buffers":[
		{
			"byteLength":18364,
			"uri":"checkpoint.bin"
		}
	]
}
