{
	"asset":{
		"generator":"Khronos glTF Blender I/O v5.0.21",
		"version":"2.0"
	},
	"scene":0,
	"scenes":[
		{
			"name":"Scene",
			"nodes":[
				0
			]
		}
	],
	"nodes":[
		{
			"mesh":0,
			"name":"NeighborHouseB-col",
			"scale":[
				0.3756943941116333,
				0.14238859713077545,
				0.457742303609848
			],
			"translation":[
				0,
				3.3852388858795166,
				0
			]
		}
	],
	"materials":[
		{
			"doubleSided":true,
			"name":"NeighborBExtWall",
			"pbrMetallicRoughness":{
				"baseColorTexture":{
					"index":0
				},
				"metallicFactor":0,
				"roughnessFactor":0.5
			}
		}
	],
	"meshes":[
		{
			"name":"Cube.004",
			"primitives":[
				{
					"attributes":{
						"POSITION":0,
						"NORMAL":1,
						"TEXCOORD_0":2
					},
					"indices":3,
					"material":0
				}
			]
		}
	],
	"textures":[
		{
			"sampler":0,
			"source":0
		}
	],
	"images":[
		{
			"mimeType":"image/png",
			"name":"Untitled",
			"uri":"Untitled.png"
		}
	],
	"accessors":[
		{
			"bufferView":0,
			"componentType":5126,
			"count":101,
			"max":[
				40.95763397216797,
				121.38824462890625,
				42.968624114990234
			],
			"min":[
				-59.34916305541992,
				-26.169273376464844,
				-29.13553237915039
			],
			"type":"VEC3"
		},
		{
			"bufferView":1,
			"componentType":5126,
			"count":101,
			"type":"VEC3"
		},
		{
			"bufferView":2,
			"componentType":5126,
			"count":101,
			"type":"VEC2"
		},
		{
			"bufferView":3,
			"componentType":5123,
			"count":192,
			"type":"SCALAR"
		}
	],
	"bufferViews":[
		{
			"buffer":0,
			"byteLength":1212,
			"byteOffset":0,
			"target":34962
		},
		{
			"buffer":0,
			"byteLength":1212,
			"byteOffset":1212,
			"target":34962
		},
		{
			"buffer":0,
			"byteLength":808,
			"byteOffset":2424,
			"target":34962
		},
		{
			"buffer":0,
			"byteLength":384,
			"byteOffset":3232,
			"target":34963
		}
	],
	"samplers":[
		{
			"magFilter":9729,
			"minFilter":9987
		}
	],
	"buffers":[
		{
			"byteLength":3616,
			"uri":"house_c.bin"
		}
	]
}
