{
	"asset":{
		"generator":"Khronos glTF Blender I/O v5.0.21",
		"version":"2.0"
	},
	"extensionsUsed":[
		"KHR_materials_clearcoat",
		"KHR_materials_specular",
		"KHR_materials_ior"
	],
	"scene":0,
	"scenes":[
		{
			"name":"Scene",
			"nodes":[
				0,
				1,
				2,
				3,
				4
			]
		}
	],
	"nodes":[
		{
			"mesh":0,
			"name":"Roof",
			"scale":[
				0.352851927280426,
				0.352851927280426,
				0.42991119623184204
			],
			"translation":[
				0,
				3.315920114517212,
				0
			]
		},
		{
			"mesh":1,
			"name":"GroundFloor-col",
			"scale":[
				0.352851927280426,
				0.352851927280426,
				0.42991119623184204
			],
			"translation":[
				0,
				3.315920114517212,
				0
			]
		},
		{
			"mesh":2,
			"name":"2ndFloor",
			"scale":[
				0.352851927280426,
				0.352851927280426,
				0.42991119623184204
			],
			"translation":[
				0,
				3.315920114517212,
				0
			]
		},
		{
			"mesh":3,
			"name":"MainStairs",
			"scale":[
				0.352851927280426,
				0.352851927280426,
				0.42991119623184204
			],
			"translation":[
				0,
				3.315920114517212,
				0
			]
		},
		{
			"mesh":4,
			"name":"DenStairs",
			"scale":[
				0.352851927280426,
				0.352851927280426,
				0.42991119623184204
			],
			"translation":[
				0,
				3.315920114517212,
				0
			]
		}
	],
	"materials":[
		{
			"doubleSided":true,
			"name":"Test",
			"pbrMetallicRoughness":{
				"baseColorTexture":{
					"index":0
				},
				"metallicFactor":0,
				"roughnessFactor":0.5
			}
		},
		{
			"doubleSided":true,
			"extensions":{
				"KHR_materials_clearcoat":{
					"clearcoatFactor":0.021653544157743454
				},
				"KHR_materials_specular":{
					"specularFactor":0
				},
				"KHR_materials_ior":{
					"ior":1.4500000476837158
				}
			},
			"name":"WoodFloor",
			"pbrMetallicRoughness":{
				"baseColorTexture":{
					"index":1
				},
				"metallicFactor":0,
				"roughnessFactor":0.5
			}
		},
		{
			"doubleSided":true,
			"extensions":{
				"KHR_materials_specular":{
					"specularFactor":0
				},
				"KHR_materials_ior":{
					"ior":1.4500000476837158
				}
			},
			"name":"KitchenFloor",
			"pbrMetallicRoughness":{
				"baseColorTexture":{
					"index":2
				},
				"metallicFactor":0,
				"roughnessFactor":0.5
			}
		},
		{
			"doubleSided":true,
			"extensions":{
				"KHR_materials_specular":{
					"specularFactor":0
				},
				"KHR_materials_ior":{
					"ior":1.4500000476837158
				}
			},
			"name":"MainInnerWall",
			"pbrMetallicRoughness":{
				"baseColorTexture":{
					"index":3
				},
				"metallicFactor":0,
				"roughnessFactor":0.5
			}
		},
		{
			"doubleSided":true,
			"name":"OuterWall",
			"pbrMetallicRoughness":{
				"baseColorTexture":{
					"index":4
				},
				"metallicFactor":0,
				"roughnessFactor":0.5
			}
		},
		{
			"doubleSided":true,
			"name":"DenWallTrim",
			"pbrMetallicRoughness":{
				"baseColorTexture":{
					"index":5
				},
				"metallicFactor":0,
				"roughnessFactor":0.5
			}
		},
		{
			"alphaMode":"MASK",
			"doubleSided":true,
			"name":"HiddenCollision",
			"pbrMetallicRoughness":{
				"baseColorFactor":[
					0.800000011920929,
					0.800000011920929,
					0.800000011920929,
					0
				],
				"metallicFactor":0,
				"roughnessFactor":0.5
			}
		},
		{
			"doubleSided":true,
			"extensions":{
				"KHR_materials_specular":{
					"specularFactor":0
				},
				"KHR_materials_ior":{
					"ior":1.4500000476837158
				}
			},
			"name":"Porch",
			"pbrMetallicRoughness":{
				"baseColorTexture":{
					"index":6
				},
				"metallicFactor":0,
				"roughnessFactor":0.5
			}
		},
		{
			"doubleSided":true,
			"name":"Asphalt",
			"pbrMetallicRoughness":{
				"baseColorTexture":{
					"index":7
				},
				"metallicFactor":0,
				"roughnessFactor":0.5
			}
		},
		{
			"doubleSided":true,
			"name":"HouseCExtWall.001",
			"pbrMetallicRoughness":{
				"baseColorTexture":{
					"index":8
				},
				"metallicFactor":0,
				"roughnessFactor":0.5
			}
		}
	],
	"meshes":[
		{
			"name":"Cube.074",
			"primitives":[
				{
					"attributes":{
						"POSITION":0,
						"NORMAL":1,
						"TEXCOORD_0":2
					},
					"indices":3,
					"material":0
				}
			]
		},
		{
			"name":"Cube.005",
			"primitives":[
				{
					"attributes":{
						"POSITION":4,
						"NORMAL":5,
						"TEXCOORD_0":6
					},
					"indices":7,
					"material":0
				},
				{
					"attributes":{
						"POSITION":8,
						"NORMAL":9,
						"TEXCOORD_0":10
					},
					"indices":11,
					"material":1
				},
				{
					"attributes":{
						"POSITION":12,
						"NORMAL":13,
						"TEXCOORD_0":14
					},
					"indices":15,
					"material":2
				},
				{
					"attributes":{
						"POSITION":16,
						"NORMAL":17,
						"TEXCOORD_0":18
					},
					"indices":19,
					"material":3
				},
				{
					"attributes":{
						"POSITION":20,
						"NORMAL":21,
						"TEXCOORD_0":22
					},
					"indices":23,
					"material":4
				},
				{
					"attributes":{
						"POSITION":24,
						"NORMAL":25,
						"TEXCOORD_0":26
					},
					"indices":27,
					"material":5
				},
				{
					"attributes":{
						"POSITION":28,
						"NORMAL":29,
						"TEXCOORD_0":30
					},
					"indices":31,
					"material":6
				},
				{
					"attributes":{
						"POSITION":32,
						"NORMAL":33,
						"TEXCOORD_0":34
					},
					"indices":35,
					"material":7
				}
			]
		},
		{
			"name":"Cube.075",
			"primitives":[
				{
					"attributes":{
						"POSITION":36,
						"NORMAL":37,
						"TEXCOORD_0":38
					},
					"indices":39,
					"material":8
				}
			]
		},
		{
			"name":"Cube.002",
			"primitives":[
				{
					"attributes":{
						"POSITION":40,
						"NORMAL":41,
						"TEXCOORD_0":42
					},
					"indices":43,
					"material":9
				}
			]
		},
		{
			"name":"Cube.003",
			"primitives":[
				{
					"attributes":{
						"POSITION":44,
						"NORMAL":45,
						"TEXCOORD_0":46
					},
					"indices":47,
					"material":9
				}
			]
		}
	],
	"textures":[
		{
			"sampler":0,
			"source":0
		},
		{
			"sampler":0,
			"source":1
		},
		{
			"sampler":0,
			"source":2
		},
		{
			"sampler":0,
			"source":3
		},
		{
			"sampler":1,
			"source":4
		},
		{
			"sampler":0,
			"source":5
		},
		{
			"sampler":0,
			"source":6
		},
		{
			"sampler":1,
			"source":0
		},
		{
			"sampler":1,
			"source":7
		}
	],
	"images":[
		{
			"mimeType":"image/png",
			"name":"Untitled",
			"uri":"Untitled.png"
		},
		{
			"mimeType":"image/png",
			"name":"WoodFloor05",
			"uri":"WoodFloor05.png"
		},
		{
			"mimeType":"image/png",
			"name":"Tile03",
			"uri":"Tile03.png"
		},
		{
			"mimeType":"image/png",
			"name":"Plaster03",
			"uri":"Plaster03.png"
		},
		{
			"mimeType":"image/png",
			"name":"wood_siding_1",
			"uri":"wood_siding_1.png"
		},
		{
			"mimeType":"image/png",
			"name":"Stucco01gray",
			"uri":"Stucco01gray.png"
		},
		{
			"mimeType":"image/png",
			"name":"WoodFloor04",
			"uri":"WoodFloor04.png"
		},
		{
			"mimeType":"image/png",
			"name":"color_grid",
			"uri":"color_grid.png"
		}
	],
	"accessors":[
		{
			"bufferView":0,
			"componentType":5126,
			"count":40,
			"max":[
				50,
				85.29547882080078,
				50
			],
			"min":[
				-50,
				58.78960037231445,
				-50
			],
			"type":"VEC3"
		},
		{
			"bufferView":1,
			"componentType":5126,
			"count":40,
			"type":"VEC3"
		},
		{
			"bufferView":2,
			"componentType":5126,
			"count":40,
			"type":"VEC2"
		},
		{
			"bufferView":3,
			"componentType":5123,
			"count":66,
			"type":"SCALAR"
		},
		{
			"bufferView":4,
			"componentType":5126,
			"count":122,
			"max":[
				51.91044998168945,
				25.169960021972656,
				51.487648010253906
			],
			"min":[
				-82.53486633300781,
				-10.276100158691406,
				-51.13052749633789
			],
			"type":"VEC3"
		},
		{
			"bufferView":5,
			"componentType":5126,
			"count":122,
			"type":"VEC3"
		},
		{
			"bufferView":6,
			"componentType":5126,
			"count":122,
			"type":"VEC2"
		},
		{
			"bufferView":7,
			"componentType":5123,
			"count":198,
			"type":"SCALAR"
		},
		{
			"bufferView":8,
			"componentType":5126,
			"count":40,
			"max":[
				51.91044998168945,
				-2.389890670776367,
				50
			],
			"min":[
				-50,
				-10.276100158691406,
				-50
			],
			"type":"VEC3"
		},
		{
			"bufferView":9,
			"componentType":5126,
			"count":40,
			"type":"VEC3"
		},
		{
			"bufferView":10,
			"componentType":5126,
			"count":40,
			"type":"VEC2"
		},
		{
			"bufferView":11,
			"componentType":5123,
			"count":90,
			"type":"SCALAR"
		},
		{
			"bufferView":12,
			"componentType":5126,
			"count":12,
			"max":[
				50,
				-2.389890670776367,
				50
			],
			"min":[
				19.97318458557129,
				-2.389890670776367,
				-0.7193489074707031
			],
			"type":"VEC3"
		},
		{
			"bufferView":13,
			"componentType":5126,
			"count":12,
			"type":"VEC3"
		},
		{
			"bufferView":14,
			"componentType":5126,
			"count":12,
			"type":"VEC2"
		},
		{
			"bufferView":15,
			"componentType":5123,
			"count":24,
			"type":"SCALAR"
		},
		{
			"bufferView":16,
			"componentType":5126,
			"count":217,
			"max":[
				51.91044998168945,
				25.169960021972656,
				50
			],
			"min":[
				-50,
				-10.276100158691406,
				-51.13052749633789
			],
			"type":"VEC3"
		},
		{
			"bufferView":17,
			"componentType":5126,
			"count":217,
			"type":"VEC3"
		},
		{
			"bufferView":18,
			"componentType":5126,
			"count":217,
			"type":"VEC2"
		},
		{
			"bufferView":19,
			"componentType":5123,
			"count":417,
			"type":"SCALAR"
		},
		{
			"bufferView":20,
			"componentType":5126,
			"count":130,
			"max":[
				51.91044998168945,
				25.169960021972656,
				51.487648010253906
			],
			"min":[
				-52.25288391113281,
				-10.250653266906738,
				-51.13052749633789
			],
			"type":"VEC3"
		},
		{
			"bufferView":21,
			"componentType":5126,
			"count":130,
			"type":"VEC3"
		},
		{
			"bufferView":22,
			"componentType":5126,
			"count":130,
			"type":"VEC2"
		},
		{
			"bufferView":23,
			"componentType":5123,
			"count":351,
			"type":"SCALAR"
		},
		{
			"bufferView":24,
			"componentType":5126,
			"count":16,
			"max":[
				50,
				-2.389890670776367,
				-0.707047700881958
			],
			"min":[
				0,
				-10.250653266906738,
				-0.7839770317077637
			],
			"type":"VEC3"
		},
		{
			"bufferView":25,
			"componentType":5126,
			"count":16,
			"type":"VEC3"
		},
		{
			"bufferView":26,
			"componentType":5126,
			"count":16,
			"type":"VEC2"
		},
		{
			"bufferView":27,
			"componentType":5123,
			"count":24,
			"type":"SCALAR"
		},
		{
			"bufferView":28,
			"componentType":5126,
			"count":14,
			"max":[
				19.99164581298828,
				25.169960021972656,
				-0.7009261846542358
			],
			"min":[
				-25.10332679748535,
				-10.250414848327637,
				-22.509939193725586
			],
			"type":"VEC3"
		},
		{
			"bufferView":29,
			"componentType":5126,
			"count":14,
			"type":"VEC3"
		},
		{
			"bufferView":30,
			"componentType":5126,
			"count":14,
			"type":"VEC2"
		},
		{
			"bufferView":31,
			"componentType":5123,
			"count":18,
			"type":"SCALAR"
		},
		{
			"bufferView":32,
			"componentType":5126,
			"count":664,
			"max":[
				-50,
				5.395437717437744,
				30.453922271728516
			],
			"min":[
				-82.53486633300781,
				-10.250653266906738,
				-5.054770469665527
			],
			"type":"VEC3"
		},
		{
			"bufferView":33,
			"componentType":5126,
			"count":664,
			"type":"VEC3"
		},
		{
			"bufferView":34,
			"componentType":5126,
			"count":664,
			"type":"VEC2"
		},
		{
			"bufferView":35,
			"componentType":5123,
			"count":1596,
			"type":"SCALAR"
		},
		{
			"bufferView":36,
			"componentType":5126,
			"count":41,
			"max":[
				50,
				58.78960037231445,
				50
			],
			"min":[
				-50,
				25.169960021972656,
				-50
			],
			"type":"VEC3"
		},
		{
			"bufferView":37,
			"componentType":5126,
			"count":41,
			"type":"VEC3"
		},
		{
			"bufferView":38,
			"componentType":5126,
			"count":41,
			"type":"VEC2"
		},
		{
			"bufferView":39,
			"componentType":5123,
			"count":87,
			"type":"SCALAR"
		},
		{
			"bufferView":40,
			"componentType":5126,
			"count":114,
			"max":[
				0.5614643096923828,
				25.169960021972656,
				-0.7009261846542358
			],
			"min":[
				-25.10332679748535,
				-10.276100158691406,
				-22.509939193725586
			],
			"type":"VEC3"
		},
		{
			"bufferView":41,
			"componentType":5126,
			"count":114,
			"type":"VEC3"
		},
		{
			"bufferView":42,
			"componentType":5126,
			"count":114,
			"type":"VEC2"
		},
		{
			"bufferView":43,
			"componentType":5123,
			"count":204,
			"type":"SCALAR"
		},
		{
			"bufferView":44,
			"componentType":5126,
			"count":56,
			"max":[
				19.99164581298828,
				-2.389890670776367,
				-0.7111480832099915
			],
			"min":[
				3.3249759674072266,
				-10.250414848327637,
				-8.89632511138916
			],
			"type":"VEC3"
		},
		{
			"bufferView":45,
			"componentType":5126,
			"count":56,
			"type":"VEC3"
		},
		{
			"bufferView":46,
			"componentType":5126,
			"count":56,
			"type":"VEC2"
		},
		{
			"bufferView":47,
			"componentType":5123,
			"count":102,
			"type":"SCALAR"
		}
	],
	"bufferViews":[
		{
			"buffer":0,
			"byteLength":480,
			"byteOffset":0,
			"target":34962
		},
		{
			"buffer":0,
			"byteLength":480,
			"byteOffset":480,
			"target":34962
		},
		{
			"buffer":0,
			"byteLength":320,
			"byteOffset":960,
			"target":34962
		},
		{
			"buffer":0,
			"byteLength":132,
			"byteOffset":1280,
			"target":34963
		},
		{
			"buffer":0,
			"byteLength":1464,
			"byteOffset":1412,
			"target":34962
		},
		{
			"buffer":0,
			"byteLength":1464,
			"byteOffset":2876,
			"target":34962
		},
		{
			"buffer":0,
			"byteLength":976,
			"byteOffset":4340,
			"target":34962
		},
		{
			"buffer":0,
			"byteLength":396,
			"byteOffset":5316,
			"target":34963
		},
		{
			"buffer":0,
			"byteLength":480,
			"byteOffset":5712,
			"target":34962
		},
		{
			"buffer":0,
			"byteLength":480,
			"byteOffset":6192,
			"target":34962
		},
		{
			"buffer":0,
			"byteLength":320,
			"byteOffset":6672,
			"target":34962
		},
		{
			"buffer":0,
			"byteLength":180,
			"byteOffset":6992,
			"target":34963
		},
		{
			"buffer":0,
			"byteLength":144,
			"byteOffset":7172,
			"target":34962
		},
		{
			"buffer":0,
			"byteLength":144,
			"byteOffset":7316,
			"target":34962
		},
		{
			"buffer":0,
			"byteLength":96,
			"byteOffset":7460,
			"target":34962
		},
		{
			"buffer":0,
			"byteLength":48,
			"byteOffset":7556,
			"target":34963
		},
		{
			"buffer":0,
			"byteLength":2604,
			"byteOffset":7604,
			"target":34962
		},
		{
			"buffer":0,
			"byteLength":2604,
			"byteOffset":10208,
			"target":34962
		},
		{
			"buffer":0,
			"byteLength":1736,
			"byteOffset":12812,
			"target":34962
		},
		{
			"buffer":0,
			"byteLength":834,
			"byteOffset":14548,
			"target":34963
		},
		{
			"buffer":0,
			"byteLength":1560,
			"byteOffset":15384,
			"target":34962
		},
		{
			"buffer":0,
			"byteLength":1560,
			"byteOffset":16944,
			"target":34962
		},
		{
			"buffer":0,
			"byteLength":1040,
			"byteOffset":18504,
			"target":34962
		},
		{
			"buffer":0,
			"byteLength":702,
			"byteOffset":19544,
			"target":34963
		},
		{
			"buffer":0,
			"byteLength":192,
			"byteOffset":20248,
			"target":34962
		},
		{
			"buffer":0,
			"byteLength":192,
			"byteOffset":20440,
			"target":34962
		},
		{
			"buffer":0,
			"byteLength":128,
			"byteOffset":20632,
			"target":34962
		},
		{
			"buffer":0,
			"byteLength":48,
			"byteOffset":20760,
			"target":34963
		},
		{
			"buffer":0,
			"byteLength":168,
			"byteOffset":20808,
			"target":34962
		},
		{
			"buffer":0,
			"byteLength":168,
			"byteOffset":20976,
			"target":34962
		},
		{
			"buffer":0,
			"byteLength":112,
			"byteOffset":21144,
			"target":34962
		},
		{
			"buffer":0,
			"byteLength":36,
			"byteOffset":21256,
			"target":34963
		},
		{
			"buffer":0,
			"byteLength":7968,
			"byteOffset":21292,
			"target":34962
		},
		{
			"buffer":0,
			"byteLength":7968,
			"byteOffset":29260,
			"target":34962
		},
		{
			"buffer":0,
			"byteLength":5312,
			"byteOffset":37228,
			"target":34962
		},
		{
			"buffer":0,
			"byteLength":3192,
			"byteOffset":42540,
			"target":34963
		},
		{
			"buffer":0,
			"byteLength":492,
			"byteOffset":45732,
			"target":34962
		},
		{
			"buffer":0,
			"byteLength":492,
			"byteOffset":46224,
			"target":34962
		},
		{
			"buffer":0,
			"byteLength":328,
			"byteOffset":46716,
			"target":34962
		},
		{
			"buffer":0,
			"byteLength":174,
			"byteOffset":47044,
			"target":34963
		},
		{
			"buffer":0,
			"byteLength":1368,
			"byteOffset":47220,
			"target":34962
		},
		{
			"buffer":0,
			"byteLength":1368,
			"byteOffset":48588,
			"target":34962
		},
		{
			"buffer":0,
			"byteLength":912,
			"byteOffset":49956,
			"target":34962
		},
		{
			"buffer":0,
			"byteLength":408,
			"byteOffset":50868,
			"target":34963
		},
		{
			"buffer":0,
			"byteLength":672,
			"byteOffset":51276,
			"target":34962
		},
		{
			"buffer":0,
			"byteLength":672,
			"byteOffset":51948,
			"target":34962
		},
		{
			"buffer":0,
			"byteLength":448,
			"byteOffset":52620,
			"target":34962
		},
		{
			"buffer":0,
			"byteLength":204,
			"byteOffset":53068,
			"target":34963
		}
	],
	"samplers":[
		{
			"magFilter":9728,
			"minFilter":9984
		},
		{
			"magFilter":9729,
			"minFilter":9987
		}
	],
	"buffers":[
		{
			"byteLength":53272,
			"uri":"house_b.bin"
		}
	]
}
