{
	"asset":{
		"generator":"Khronos glTF Blender I/O v3.6.27",
		"version":"2.0"
	},
	"scene":0,
	"scenes":[
		{
			"name":"Scene",
			"nodes":[
				0,
				1
			]
		}
	],
	"nodes":[
		{
			"mesh":0,
			"name":"Handle",
			"scale":[
				0.3149763345718384,
				0.3149763345718384,
				0.3149763345718384
			],
			"translation":[
				0,
				0.7567740678787231,
				-0.0024382025003433228
			]
		},
		{
			"mesh":1,
			"name":"Head",
			"scale":[
				0.08543907850980759,
				0.3149763345718384,
				0.44266626238822937
			],
			"translation":[
				0,
				1.4692898988723755,
				-0.13504423201084137
			]
		}
	],
	"meshes":[
		{
			"name":"Cylinder",
			"primitives":[
				{
					"attributes":{
						"POSITION":0,
						"NORMAL":1,
						"TEXCOORD_0":2
					},
					"indices":3
				}
			]
		},
		{
			"name":"Cube.001",
			"primitives":[
				{
					"attributes":{
						"POSITION":4,
						"NORMAL":5,
						"TEXCOORD_0":6
					},
					"indices":7
				}
			]
		}
	],
	"accessors":[
		{
			"bufferView":0,
			"componentType":5126,
			"count":236,
			"max":[
				0.23454667627811432,
				3.032015323638916,
				0.30735546350479126
			],
			"min":[
				-0.23454667627811432,
				-3,
				-0.3073480725288391
			],
			"type":"VEC3"
		},
		{
			"bufferView":1,
			"componentType":5126,
			"count":236,
			"type":"VEC3"
		},
		{
			"bufferView":2,
			"componentType":5126,
			"count":236,
			"type":"VEC2"
		},
		{
			"bufferView":3,
			"componentType":5123,
			"count":432,
			"type":"SCALAR"
		},
		{
			"bufferView":4,
			"componentType":5126,
			"count":150,
			"max":[
				0.42793089151382446,
				1.4219024181365967,
				0.5509029626846313
			],
			"min":[
				-0.42793089151382446,
				-1.4219024181365967,
				-1.2286312580108643
			],
			"type":"VEC3"
		},
		{
			"bufferView":5,
			"componentType":5126,
			"count":150,
			"type":"VEC3"
		},
		{
			"bufferView":6,
			"componentType":5126,
			"count":150,
			"type":"VEC2"
		},
		{
			"bufferView":7,
			"componentType":5123,
			"count":288,
			"type":"SCALAR"
		}
	],
	"bufferViews":[
		{
			"buffer":0,
			"byteLength":2832,
			"byteOffset":0,
			"target":34962
		},
		{
			"buffer":0,
			"byteLength":2832,
			"byteOffset":2832,
			"target":34962
		},
		{
			"buffer":0,
			"byteLength":1888,
			"byteOffset":5664,
			"target":34962
		},
		{
			"buffer":0,
			"byteLength":864,
			"byteOffset":7552,
			"target":34963
		},
		{
			"buffer":0,
			"byteLength":1800,
			"byteOffset":8416,
			"target":34962
		},
		{
			"buffer":0,
			"byteLength":1800,
			"byteOffset":10216,
			"target":34962
		},
		{
			"buffer":0,
			"byteLength":1200,
			"byteOffset":12016,
			"target":34962
		},
		{
			"buffer":0,
			"byteLength":576,
			"byteOffset":13216,
			"target":34963
		}
	],
	"buffers":[
		{
			"byteLength":13792,
			"uri":"data:application/octet-stream;base64,"
		}
	]
}
