{
	"asset":{
		"generator":"Khronos glTF Blender I/O v3.6.27",
		"version":"2.0"
	},
	"scene":0,
	"scenes":[
		{
			"name":"Scene",
			"nodes":[
				0
			]
		}
	],
	"nodes":[
		{
			"mesh":0,
			"name":"Cylinder",
			"scale":[
				0.32815659046173096,
				0.32815659046173096,
				0.32815659046173096
			],
			"translation":[
				0,
				-0.018230507150292397,
				0
			]
		}
	],
	"meshes":[
		{
			"name":"Cylinder",
			"primitives":[
				{
					"attributes":{
						"POSITION":0,
						"NORMAL":1,
						"TEXCOORD_0":2
					},
					"indices":3
				}
			]
		}
	],
	"accessors":[
		{
			"bufferView":0,
			"componentType":5126,
			"count":460,
			"max":[
				0.4755282700061798,
				1.3837369680404663,
				0.5
			],
			"min":[
				-0.4755282700061798,
				0.03694617748260498,
				-0.5
			],
			"type":"VEC3"
		},
		{
			"bufferView":1,
			"componentType":5126,
			"count":460,
			"type":"VEC3"
		},
		{
			"bufferView":2,
			"componentType":5126,
			"count":460,
			"type":"VEC2"
		},
		{
			"bufferView":3,
			"componentType":5123,
			"count":708,
			"type":"SCALAR"
		}
	],
	"bufferViews":[
		{
			"buffer":0,
			"byteLength":5520,
			"byteOffset":0,
			"target":34962
		},
		{
			"buffer":0,
			"byteLength":5520,
			"byteOffset":5520,
			"target":34962
		},
		{
			"buffer":0,
			"byteLength":3680,
			"byteOffset":11040,
			"target":34962
		},
		{
			"buffer":0,
			"byteLength":1416,
			"byteOffset":14720,
			"target":34963
		}
	],
	"buffers":[
		{
			"byteLength":16136,
			"uri":"data:application/octet-stream;base64,"
		}
	]
}
