{
	"asset":{
		"generator":"Khronos glTF Blender I/O v3.6.27",
		"version":"2.0"
	},
	"scene":0,
	"scenes":[
		{
			"name":"Scene",
			"nodes":[
				1,
				2
			]
		}
	],
	"nodes":[
		{
			"mesh":0,
			"name":"Knob",
			"rotation":[
				1,
				0,
				0,
				1.2022406681300168e-10
			],
			"scale":[
				-4.68105411529541,
				-0.3126377463340759,
				-0.5363210439682007
			],
			"translation":[
				-2.250140428543091,
				-0.004273229278624058,
				-0.7696714997291565
			]
		},
		{
			"children":[
				0
			],
			"mesh":1,
			"name":"Cube",
			"rotation":[
				0.5198345184326172,
				-0.0006262508104555309,
				-0.8542630076408386,
				0.0025706232991069555
			],
			"scale":[
				-0.0818295031785965,
				-2.197399139404297,
				-1.2809302806854248
			],
			"translation":[
				-1.2658673524856567,
				2.197286605834961,
				1.8534736633300781
			]
		},
		{
			"mesh":2,
			"name":"Frame",
			"scale":[
				0.20290827751159668,
				1,
				1
			]
		}
	],
	"animations":[
		{
			"channels":[
				{
					"sampler":0,
					"target":{
						"node":1,
						"path":"translation"
					}
				},
				{
					"sampler":1,
					"target":{
						"node":1,
						"path":"rotation"
					}
				}
			],
			"name":"Close",
			"samplers":[
				{
					"input":12,
					"interpolation":"LINEAR",
					"output":13
				},
				{
					"input":12,
					"interpolation":"LINEAR",
					"output":14
				}
			]
		},
		{
			"channels":[
				{
					"sampler":0,
					"target":{
						"node":1,
						"path":"translation"
					}
				},
				{
					"sampler":1,
					"target":{
						"node":1,
						"path":"rotation"
					}
				}
			],
			"name":"Open",
			"samplers":[
				{
					"input":12,
					"interpolation":"LINEAR",
					"output":15
				},
				{
					"input":12,
					"interpolation":"LINEAR",
					"output":16
				}
			]
		}
	],
	"materials":[
		{
			"doubleSided":true,
			"name":"Material.002",
			"pbrMetallicRoughness":{
				"baseColorFactor":[
					0.7461104393005371,
					0.8000000715255737,
					0.020763695240020752,
					1
				],
				"metallicFactor":0,
				"roughnessFactor":0.5
			}
		},
		{
			"doubleSided":true,
			"name":"Material",
			"pbrMetallicRoughness":{
				"baseColorFactor":[
					0.8000000715255737,
					0.07400712370872498,
					0.008722785860300064,
					1
				],
				"metallicFactor":0,
				"roughnessFactor":0.5
			}
		},
		{
			"doubleSided":true,
			"name":"Material.001",
			"pbrMetallicRoughness":{
				"baseColorFactor":[
					0.8000000715255737,
					0.3826957643032074,
					0.06492041796445847,
					1
				],
				"metallicFactor":0,
				"roughnessFactor":0.5
			}
		}
	],
	"meshes":[
		{
			"name":"Sphere",
			"primitives":[
				{
					"attributes":{
						"POSITION":0,
						"NORMAL":1,
						"TEXCOORD_0":2
					},
					"indices":3,
					"material":0
				}
			]
		},
		{
			"name":"Cube.002",
			"primitives":[
				{
					"attributes":{
						"POSITION":4,
						"NORMAL":5,
						"TEXCOORD_0":6
					},
					"indices":7,
					"material":1
				}
			]
		},
		{
			"name":"Cube.001",
			"primitives":[
				{
					"attributes":{
						"POSITION":8,
						"NORMAL":9,
						"TEXCOORD_0":10
					},
					"indices":11,
					"material":2
				}
			]
		}
	],
	"accessors":[
		{
			"bufferView":0,
			"componentType":5126,
			"count":208,
			"max":[
				0.20000000298023224,
				0.20000000298023224,
				0.20000000298023224
			],
			"min":[
				-0.3089868724346161,
				-0.20000000298023224,
				-0.20000000298023224
			],
			"type":"VEC3"
		},
		{
			"bufferView":1,
			"componentType":5126,
			"count":208,
			"type":"VEC3"
		},
		{
			"bufferView":2,
			"componentType":5126,
			"count":208,
			"type":"VEC2"
		},
		{
			"bufferView":3,
			"componentType":5123,
			"count":288,
			"type":"SCALAR"
		},
		{
			"bufferView":4,
			"componentType":5126,
			"count":24,
			"max":[
				1,
				0.9831959009170532,
				0.9893258810043335
			],
			"min":[
				-1,
				-1,
				-0.9928839206695557
			],
			"type":"VEC3"
		},
		{
			"bufferView":5,
			"componentType":5126,
			"count":24,
			"type":"VEC3"
		},
		{
			"bufferView":6,
			"componentType":5126,
			"count":24,
			"type":"VEC2"
		},
		{
			"bufferView":7,
			"componentType":5123,
			"count":36,
			"type":"SCALAR"
		},
		{
			"bufferView":8,
			"componentType":5126,
			"count":64,
			"max":[
				0.5486572980880737,
				4.59196662902832,
				1.4956026077270508
			],
			"min":[
				-0.5486572980880737,
				-0.035672903060913086,
				-1.4956026077270508
			],
			"type":"VEC3"
		},
		{
			"bufferView":9,
			"componentType":5126,
			"count":64,
			"type":"VEC3"
		},
		{
			"bufferView":10,
			"componentType":5126,
			"count":64,
			"type":"VEC2"
		},
		{
			"bufferView":11,
			"componentType":5123,
			"count":132,
			"type":"SCALAR"
		},
		{
			"bufferView":12,
			"componentType":5126,
			"count":40,
			"max":[
				1.6666666666666667
			],
			"min":[
				0.041666666666666664
			],
			"type":"SCALAR"
		},
		{
			"bufferView":13,
			"componentType":5126,
			"count":40,
			"type":"VEC3"
		},
		{
			"bufferView":14,
			"componentType":5126,
			"count":40,
			"type":"VEC4"
		},
		{
			"bufferView":15,
			"componentType":5126,
			"count":40,
			"type":"VEC3"
		},
		{
			"bufferView":16,
			"componentType":5126,
			"count":40,
			"type":"VEC4"
		}
	],
	"bufferViews":[
		{
			"buffer":0,
			"byteLength":2496,
			"byteOffset":0,
			"target":34962
		},
		{
			"buffer":0,
			"byteLength":2496,
			"byteOffset":2496,
			"target":34962
		},
		{
			"buffer":0,
			"byteLength":1664,
			"byteOffset":4992,
			"target":34962
		},
		{
			"buffer":0,
			"byteLength":576,
			"byteOffset":6656,
			"target":34963
		},
		{
			"buffer":0,
			"byteLength":288,
			"byteOffset":7232,
			"target":34962
		},
		{
			"buffer":0,
			"byteLength":288,
			"byteOffset":7520,
			"target":34962
		},
		{
			"buffer":0,
			"byteLength":192,
			"byteOffset":7808,
			"target":34962
		},
		{
			"buffer":0,
			"byteLength":72,
			"byteOffset":8000,
			"target":34963
		},
		{
			"buffer":0,
			"byteLength":768,
			"byteOffset":8072,
			"target":34962
		},
		{
			"buffer":0,
			"byteLength":768,
			"byteOffset":8840,
			"target":34962
		},
		{
			"buffer":0,
			"byteLength":512,
			"byteOffset":9608,
			"target":34962
		},
		{
			"buffer":0,
			"byteLength":264,
			"byteOffset":10120,
			"target":34963
		},
		{
			"buffer":0,
			"byteLength":160,
			"byteOffset":10384
		},
		{
			"buffer":0,
			"byteLength":480,
			"byteOffset":10544
		},
		{
			"buffer":0,
			"byteLength":640,
			"byteOffset":11024
		},
		{
			"buffer":0,
			"byteLength":480,
			"byteOffset":11664
		},
		{
			"buffer":0,
			"byteLength":640,
			"byteOffset":12144
		}
	],
	"buffers":[
		{
			"byteLength":12784,
			"uri":"data:application/octet-stream;base64,"
		}
	]
}
