{
	"asset":{
		"generator":"Khronos glTF Blender I/O v3.6.27",
		"version":"2.0"
	},
	"extensionsUsed":[
		"KHR_materials_transmission",
		"KHR_materials_specular",
		"KHR_materials_ior"
	],
	"scene":0,
	"scenes":[
		{
			"name":"Scene",
			"nodes":[
				0,
				1,
				2,
				3,
				4,
				5
			]
		}
	],
	"nodes":[
		{
			"mesh":0,
			"name":"Stem",
			"scale":[
				0.039773840457201004,
				0.5265284180641174,
				0.039773840457201004
			],
			"translation":[
				0,
				0.5989956855773926,
				-0.004972309339791536
			]
		},
		{
			"mesh":1,
			"name":"Shade",
			"scale":[
				0.3855772614479065,
				0.3855772614479065,
				0.3855772614479065
			],
			"translation":[
				0,
				1.1557161808013916,
				-0.004972309339791536
			]
		},
		{
			"mesh":2,
			"name":"Bulb",
			"scale":[
				0.15423090755939484,
				0.15423090755939484,
				0.15423090755939484
			],
			"translation":[
				0,
				1.2301573753356934,
				-0.004972309339791536
			]
		},
		{
			"mesh":3,
			"name":"Bar",
			"rotation":[
				0,
				0.7071068286895752,
				0,
				0.7071068286895752
			],
			"scale":[
				0.32061392068862915,
				0.016030695289373398,
				0.016030695289373398
			],
			"translation":[
				0,
				1.1566905975341797,
				-0.014333336614072323
			]
		},
		{
			"mesh":4,
			"name":"Bar.001",
			"scale":[
				0.32061392068862915,
				0.016030695289373398,
				0.016030695289373398
			],
			"translation":[
				0,
				1.1566905975341797,
				-0.014333336614072323
			]
		},
		{
			"mesh":5,
			"name":"Base",
			"scale":[
				0.3855772614479065,
				0.053980834782123566,
				0.3855772614479065
			],
			"translation":[
				0,
				0.039429664611816406,
				-0.004972309339791536
			]
		}
	],
	"materials":[
		{
			"doubleSided":true,
			"name":"Metal",
			"pbrMetallicRoughness":{
				"baseColorFactor":[
					0.800000011920929,
					0.800000011920929,
					0.800000011920929,
					1
				],
				"metallicFactor":0,
				"roughnessFactor":0.5
			}
		},
		{
			"doubleSided":true,
			"extensions":{
				"KHR_materials_transmission":{
					"transmissionFactor":0.4566929340362549
				},
				"KHR_materials_specular":{
					"specularColorFactor":[
						0.6443696452380121,
						0.6443696452380121,
						0.6443696452380121
					]
				},
				"KHR_materials_ior":{
					"ior":1.4500000476837158
				}
			},
			"name":"Shade",
			"pbrMetallicRoughness":{
				"baseColorFactor":[
					0.800000011920929,
					0.800000011920929,
					0.800000011920929,
					1
				],
				"metallicFactor":0,
				"roughnessFactor":0.5
			}
		},
		{
			"doubleSided":true,
			"extensions":{
				"KHR_materials_transmission":{
					"transmissionFactor":0.45669296383857727
				},
				"KHR_materials_ior":{
					"ior":1.4500000476837158
				}
			},
			"name":"Bulb",
			"pbrMetallicRoughness":{
				"baseColorFactor":[
					0.8000000715255737,
					0.7356240749359131,
					0.293024480342865,
					1
				],
				"metallicFactor":0,
				"roughnessFactor":0.5
			}
		}
	],
	"meshes":[
		{
			"name":"Cylinder.001",
			"primitives":[
				{
					"attributes":{
						"POSITION":0,
						"NORMAL":1,
						"TEXCOORD_0":2
					},
					"indices":3,
					"material":0
				}
			]
		},
		{
			"name":"Cylinder.002",
			"primitives":[
				{
					"attributes":{
						"POSITION":4,
						"NORMAL":5,
						"TEXCOORD_0":6
					},
					"indices":7,
					"material":1
				}
			]
		},
		{
			"name":"Icosphere",
			"primitives":[
				{
					"attributes":{
						"POSITION":8,
						"NORMAL":9,
						"TEXCOORD_0":10
					},
					"indices":11,
					"material":2
				}
			]
		},
		{
			"name":"Cube.001",
			"primitives":[
				{
					"attributes":{
						"POSITION":12,
						"NORMAL":13,
						"TEXCOORD_0":14
					},
					"indices":15,
					"material":0
				}
			]
		},
		{
			"name":"Cube.002",
			"primitives":[
				{
					"attributes":{
						"POSITION":16,
						"NORMAL":17,
						"TEXCOORD_0":18
					},
					"indices":15,
					"material":0
				}
			]
		},
		{
			"name":"Cylinder",
			"primitives":[
				{
					"attributes":{
						"POSITION":19,
						"NORMAL":20,
						"TEXCOORD_0":21
					},
					"indices":22,
					"material":0
				}
			]
		}
	],
	"accessors":[
		{
			"bufferView":0,
			"componentType":5126,
			"count":128,
			"max":[
				1,
				1,
				1
			],
			"min":[
				-1,
				-1,
				-1
			],
			"type":"VEC3"
		},
		{
			"bufferView":1,
			"componentType":5126,
			"count":128,
			"type":"VEC3"
		},
		{
			"bufferView":2,
			"componentType":5126,
			"count":128,
			"type":"VEC2"
		},
		{
			"bufferView":3,
			"componentType":5123,
			"count":192,
			"type":"SCALAR"
		},
		{
			"bufferView":4,
			"componentType":5126,
			"count":384,
			"max":[
				1,
				1,
				1
			],
			"min":[
				-1,
				-1,
				-1
			],
			"type":"VEC3"
		},
		{
			"bufferView":5,
			"componentType":5126,
			"count":384,
			"type":"VEC3"
		},
		{
			"bufferView":6,
			"componentType":5126,
			"count":384,
			"type":"VEC2"
		},
		{
			"bufferView":7,
			"componentType":5123,
			"count":768,
			"type":"SCALAR"
		},
		{
			"bufferView":8,
			"componentType":5126,
			"count":240,
			"max":[
				0.9510578513145447,
				1,
				0.9999999403953552
			],
			"min":[
				-0.9510578513145447,
				-1,
				-0.9999999403953552
			],
			"type":"VEC3"
		},
		{
			"bufferView":9,
			"componentType":5126,
			"count":240,
			"type":"VEC3"
		},
		{
			"bufferView":10,
			"componentType":5126,
			"count":240,
			"type":"VEC2"
		},
		{
			"bufferView":11,
			"componentType":5123,
			"count":240,
			"type":"SCALAR"
		},
		{
			"bufferView":12,
			"componentType":5126,
			"count":24,
			"max":[
				1,
				1,
				1
			],
			"min":[
				-1,
				-1,
				-1
			],
			"type":"VEC3"
		},
		{
			"bufferView":13,
			"componentType":5126,
			"count":24,
			"type":"VEC3"
		},
		{
			"bufferView":14,
			"componentType":5126,
			"count":24,
			"type":"VEC2"
		},
		{
			"bufferView":15,
			"componentType":5123,
			"count":36,
			"type":"SCALAR"
		},
		{
			"bufferView":16,
			"componentType":5126,
			"count":24,
			"max":[
				1,
				1,
				1
			],
			"min":[
				-1,
				-1,
				-1
			],
			"type":"VEC3"
		},
		{
			"bufferView":17,
			"componentType":5126,
			"count":24,
			"type":"VEC3"
		},
		{
			"bufferView":18,
			"componentType":5126,
			"count":24,
			"type":"VEC2"
		},
		{
			"bufferView":19,
			"componentType":5126,
			"count":192,
			"max":[
				1,
				1,
				1
			],
			"min":[
				-1,
				-1,
				-1
			],
			"type":"VEC3"
		},
		{
			"bufferView":20,
			"componentType":5126,
			"count":192,
			"type":"VEC3"
		},
		{
			"bufferView":21,
			"componentType":5126,
			"count":192,
			"type":"VEC2"
		},
		{
			"bufferView":22,
			"componentType":5123,
			"count":372,
			"type":"SCALAR"
		}
	],
	"bufferViews":[
		{
			"buffer":0,
			"byteLength":1536,
			"byteOffset":0,
			"target":34962
		},
		{
			"buffer":0,
			"byteLength":1536,
			"byteOffset":1536,
			"target":34962
		},
		{
			"buffer":0,
			"byteLength":1024,
			"byteOffset":3072,
			"target":34962
		},
		{
			"buffer":0,
			"byteLength":384,
			"byteOffset":4096,
			"target":34963
		},
		{
			"buffer":0,
			"byteLength":4608,
			"byteOffset":4480,
			"target":34962
		},
		{
			"buffer":0,
			"byteLength":4608,
			"byteOffset":9088,
			"target":34962
		},
		{
			"buffer":0,
			"byteLength":3072,
			"byteOffset":13696,
			"target":34962
		},
		{
			"buffer":0,
			"byteLength":1536,
			"byteOffset":16768,
			"target":34963
		},
		{
			"buffer":0,
			"byteLength":2880,
			"byteOffset":18304,
			"target":34962
		},
		{
			"buffer":0,
			"byteLength":2880,
			"byteOffset":21184,
			"target":34962
		},
		{
			"buffer":0,
			"byteLength":1920,
			"byteOffset":24064,
			"target":34962
		},
		{
			"buffer":0,
			"byteLength":480,
			"byteOffset":25984,
			"target":34963
		},
		{
			"buffer":0,
			"byteLength":288,
			"byteOffset":26464,
			"target":34962
		},
		{
			"buffer":0,
			"byteLength":288,
			"byteOffset":26752,
			"target":34962
		},
		{
			"buffer":0,
			"byteLength":192,
			"byteOffset":27040,
			"target":34962
		},
		{
			"buffer":0,
			"byteLength":72,
			"byteOffset":27232,
			"target":34963
		},
		{
			"buffer":0,
			"byteLength":288,
			"byteOffset":27304,
			"target":34962
		},
		{
			"buffer":0,
			"byteLength":288,
			"byteOffset":27592,
			"target":34962
		},
		{
			"buffer":0,
			"byteLength":192,
			"byteOffset":27880,
			"target":34962
		},
		{
			"buffer":0,
			"byteLength":2304,
			"byteOffset":28072,
			"target":34962
		},
		{
			"buffer":0,
			"byteLength":2304,
			"byteOffset":30376,
			"target":34962
		},
		{
			"buffer":0,
			"byteLength":1536,
			"byteOffset":32680,
			"target":34962
		},
		{
			"buffer":0,
			"byteLength":744,
			"byteOffset":34216,
			"target":34963
		}
	],
	"buffers":[
		{
			"byteLength":34960,
			"uri":"data:application/octet-stream;base64,"
		}
	]
}
