{
	"asset":{
		"generator":"Khronos glTF Blender I/O v5.0.21",
		"version":"2.0"
	},
	"scene":0,
	"scenes":[
		{
			"name":"Scene",
			"nodes":[
				0,
				1,
				2
			]
		}
	],
	"nodes":[
		{
			"mesh":0,
			"name":"Stand-col"
		},
		{
			"mesh":1,
			"name":"RFoot-col",
			"rotation":[
				0,
				-0.16062255203723907,
				0,
				0.9870160222053528
			],
			"translation":[
				0,
				1.0591652393341064,
				0
			]
		},
		{
			"mesh":2,
			"name":"LFoot-col",
			"rotation":[
				0,
				-0.02251632697880268,
				0,
				0.9997465014457703
			],
			"translation":[
				-0.06649293750524521,
				1.0591652393341064,
				-0.8343034386634827
			]
		}
	],
	"materials":[
		{
			"doubleSided":true,
			"name":"Material",
			"pbrMetallicRoughness":{
				"baseColorTexture":{
					"index":0
				},
				"metallicFactor":0,
				"roughnessFactor":0.5
			}
		}
	],
	"meshes":[
		{
			"name":"Cube.001",
			"primitives":[
				{
					"attributes":{
						"POSITION":0,
						"NORMAL":1,
						"TEXCOORD_0":2
					},
					"indices":3,
					"material":0
				}
			]
		},
		{
			"name":"Cylinder",
			"primitives":[
				{
					"attributes":{
						"POSITION":4,
						"NORMAL":5,
						"TEXCOORD_0":6
					},
					"indices":7,
					"material":0
				}
			]
		},
		{
			"name":"Cylinder.001",
			"primitives":[
				{
					"attributes":{
						"POSITION":8,
						"NORMAL":9,
						"TEXCOORD_0":10
					},
					"indices":11,
					"material":0
				}
			]
		}
	],
	"textures":[
		{
			"sampler":0,
			"source":0
		}
	],
	"images":[
		{
			"mimeType":"image/png",
			"name":"Concrete02",
			"uri":"Concrete02.png"
		}
	],
	"accessors":[
		{
			"bufferView":0,
			"componentType":5126,
			"count":112,
			"max":[
				1,
				0.17537206411361694,
				1
			],
			"min":[
				-1,
				-0.17537206411361694,
				-1
			],
			"type":"VEC3"
		},
		{
			"bufferView":1,
			"componentType":5126,
			"count":112,
			"type":"VEC3"
		},
		{
			"bufferView":2,
			"componentType":5126,
			"count":112,
			"type":"VEC2"
		},
		{
			"bufferView":3,
			"componentType":5123,
			"count":282,
			"type":"SCALAR"
		},
		{
			"bufferView":4,
			"componentType":5126,
			"count":143,
			"max":[
				0.5666072964668274,
				0.033267609775066376,
				0.6252685785293579
			],
			"min":[
				-0.19498559832572937,
				-0.8820737600326538,
				0.1602545529603958
			],
			"type":"VEC3"
		},
		{
			"bufferView":5,
			"componentType":5126,
			"count":143,
			"type":"VEC3"
		},
		{
			"bufferView":6,
			"componentType":5126,
			"count":143,
			"type":"VEC2"
		},
		{
			"bufferView":7,
			"componentType":5123,
			"count":261,
			"type":"SCALAR"
		},
		{
			"bufferView":8,
			"componentType":5126,
			"count":107,
			"max":[
				0.5666072964668274,
				-0.28799593448638916,
				0.629031777381897
			],
			"min":[
				-0.19504950940608978,
				-0.8820737600326538,
				0.1602545529603958
			],
			"type":"VEC3"
		},
		{
			"bufferView":9,
			"componentType":5126,
			"count":107,
			"type":"VEC3"
		},
		{
			"bufferView":10,
			"componentType":5126,
			"count":107,
			"type":"VEC2"
		},
		{
			"bufferView":11,
			"componentType":5123,
			"count":171,
			"type":"SCALAR"
		}
	],
	"bufferViews":[
		{
			"buffer":0,
			"byteLength":1344,
			"byteOffset":0,
			"target":34962
		},
		{
			"buffer":0,
			"byteLength":1344,
			"byteOffset":1344,
			"target":34962
		},
		{
			"buffer":0,
			"byteLength":896,
			"byteOffset":2688,
			"target":34962
		},
		{
			"buffer":0,
			"byteLength":564,
			"byteOffset":3584,
			"target":34963
		},
		{
			"buffer":0,
			"byteLength":1716,
			"byteOffset":4148,
			"target":34962
		},
		{
			"buffer":0,
			"byteLength":1716,
			"byteOffset":5864,
			"target":34962
		},
		{
			"buffer":0,
			"byteLength":1144,
			"byteOffset":7580,
			"target":34962
		},
		{
			"buffer":0,
			"byteLength":522,
			"byteOffset":8724,
			"target":34963
		},
		{
			"buffer":0,
			"byteLength":1284,
			"byteOffset":9248,
			"target":34962
		},
		{
			"buffer":0,
			"byteLength":1284,
			"byteOffset":10532,
			"target":34962
		},
		{
			"buffer":0,
			"byteLength":856,
			"byteOffset":11816,
			"target":34962
		},
		{
			"buffer":0,
			"byteLength":342,
			"byteOffset":12672,
			"target":34963
		}
	],
	"samplers":[
		{
			"magFilter":9728,
			"minFilter":9984
		}
	],
	"buffers":[
		{
			"byteLength":13016,
			"uri":"broken_statue.bin"
		}
	]
}
