{
	"asset":{
		"generator":"Khronos glTF Blender I/O v5.0.21",
		"version":"2.0"
	},
	"scene":0,
	"scenes":[
		{
			"name":"Scene",
			"nodes":[
				0,
				1,
				2,
				3,
				4
			]
		}
	],
	"nodes":[
		{
			"mesh":0,
			"name":"Body-col",
			"scale":[
				4.321878910064697,
				4.321878910064697,
				4.321878910064697
			],
			"translation":[
				0,
				3.9193925857543945,
				0
			]
		},
		{
			"mesh":1,
			"name":"Wheel-col",
			"rotation":[
				0,
				0,
				-0.7071068286895752,
				0.7071068286895752
			],
			"scale":[
				1.3574596643447876,
				0.4973897337913513,
				1.3574596643447876
			],
			"translation":[
				4.13372278213501,
				1.3325934410095215,
				-8.38750171661377
			]
		},
		{
			"mesh":2,
			"name":"Wheel.001-col",
			"rotation":[
				0,
				0,
				-0.7071068286895752,
				0.7071068286895752
			],
			"scale":[
				1.3574596643447876,
				0.4791628420352936,
				1.3574596643447876
			],
			"translation":[
				-4.13372278213501,
				1.3325934410095215,
				-8.38750171661377
			]
		},
		{
			"mesh":3,
			"name":"Wheel.002-col",
			"rotation":[
				0,
				0,
				-0.7071068286895752,
				0.7071068286895752
			],
			"scale":[
				1.3574596643447876,
				0.4791628420352936,
				1.3574596643447876
			],
			"translation":[
				-4.13372278213501,
				1.3325934410095215,
				6.3494157791137695
			]
		},
		{
			"mesh":4,
			"name":"Wheel.003-col",
			"rotation":[
				0,
				0,
				-0.7071068286895752,
				0.7071068286895752
			],
			"scale":[
				1.3574596643447876,
				0.4973897337913513,
				1.3574596643447876
			],
			"translation":[
				4.13372278213501,
				1.3325934410095215,
				6.3494157791137695
			]
		}
	],
	"materials":[
		{
			"doubleSided":true,
			"name":"Body",
			"pbrMetallicRoughness":{
				"metallicFactor":0,
				"roughnessFactor":0.5
			}
		},
		{
			"doubleSided":true,
			"name":"Wheel",
			"pbrMetallicRoughness":{
				"metallicFactor":0,
				"roughnessFactor":0.5
			}
		}
	],
	"meshes":[
		{
			"name":"Cube.001",
			"primitives":[
				{
					"attributes":{
						"POSITION":0,
						"NORMAL":1,
						"TEXCOORD_0":2
					},
					"indices":3,
					"material":0
				}
			]
		},
		{
			"name":"Cylinder",
			"primitives":[
				{
					"attributes":{
						"POSITION":4,
						"NORMAL":5,
						"TEXCOORD_0":6
					},
					"indices":7,
					"material":1
				}
			]
		},
		{
			"name":"Cylinder.001",
			"primitives":[
				{
					"attributes":{
						"POSITION":8,
						"NORMAL":9,
						"TEXCOORD_0":10
					},
					"indices":7,
					"material":1
				}
			]
		},
		{
			"name":"Cylinder.002",
			"primitives":[
				{
					"attributes":{
						"POSITION":11,
						"NORMAL":12,
						"TEXCOORD_0":13
					},
					"indices":7,
					"material":1
				}
			]
		},
		{
			"name":"Cylinder.003",
			"primitives":[
				{
					"attributes":{
						"POSITION":14,
						"NORMAL":15,
						"TEXCOORD_0":16
					},
					"indices":7,
					"material":1
				}
			]
		}
	],
	"accessors":[
		{
			"bufferView":0,
			"componentType":5126,
			"count":255,
			"max":[
				1.079430103302002,
				0.8041155934333801,
				2.130004644393921
			],
			"min":[
				-1.079430103302002,
				-0.6082311868667603,
				-2.6001272201538086
			],
			"type":"VEC3"
		},
		{
			"bufferView":1,
			"componentType":5126,
			"count":255,
			"type":"VEC3"
		},
		{
			"bufferView":2,
			"componentType":5126,
			"count":255,
			"type":"VEC2"
		},
		{
			"bufferView":3,
			"componentType":5123,
			"count":522,
			"type":"SCALAR"
		},
		{
			"bufferView":4,
			"componentType":5126,
			"count":72,
			"max":[
				1,
				1,
				1
			],
			"min":[
				-1,
				-1,
				-1
			],
			"type":"VEC3"
		},
		{
			"bufferView":5,
			"componentType":5126,
			"count":72,
			"type":"VEC3"
		},
		{
			"bufferView":6,
			"componentType":5126,
			"count":72,
			"type":"VEC2"
		},
		{
			"bufferView":7,
			"componentType":5123,
			"count":132,
			"type":"SCALAR"
		},
		{
			"bufferView":8,
			"componentType":5126,
			"count":72,
			"max":[
				1,
				1,
				1
			],
			"min":[
				-1,
				-1,
				-1
			],
			"type":"VEC3"
		},
		{
			"bufferView":9,
			"componentType":5126,
			"count":72,
			"type":"VEC3"
		},
		{
			"bufferView":10,
			"componentType":5126,
			"count":72,
			"type":"VEC2"
		},
		{
			"bufferView":11,
			"componentType":5126,
			"count":72,
			"max":[
				1,
				1,
				1
			],
			"min":[
				-1,
				-1,
				-1
			],
			"type":"VEC3"
		},
		{
			"bufferView":12,
			"componentType":5126,
			"count":72,
			"type":"VEC3"
		},
		{
			"bufferView":13,
			"componentType":5126,
			"count":72,
			"type":"VEC2"
		},
		{
			"bufferView":14,
			"componentType":5126,
			"count":72,
			"max":[
				1,
				1,
				1
			],
			"min":[
				-1,
				-1,
				-1
			],
			"type":"VEC3"
		},
		{
			"bufferView":15,
			"componentType":5126,
			"count":72,
			"type":"VEC3"
		},
		{
			"bufferView":16,
			"componentType":5126,
			"count":72,
			"type":"VEC2"
		}
	],
	"bufferViews":[
		{
			"buffer":0,
			"byteLength":3060,
			"byteOffset":0,
			"target":34962
		},
		{
			"buffer":0,
			"byteLength":3060,
			"byteOffset":3060,
			"target":34962
		},
		{
			"buffer":0,
			"byteLength":2040,
			"byteOffset":6120,
			"target":34962
		},
		{
			"buffer":0,
			"byteLength":1044,
			"byteOffset":8160,
			"target":34963
		},
		{
			"buffer":0,
			"byteLength":864,
			"byteOffset":9204,
			"target":34962
		},
		{
			"buffer":0,
			"byteLength":864,
			"byteOffset":10068,
			"target":34962
		},
		{
			"buffer":0,
			"byteLength":576,
			"byteOffset":10932,
			"target":34962
		},
		{
			"buffer":0,
			"byteLength":264,
			"byteOffset":11508,
			"target":34963
		},
		{
			"buffer":0,
			"byteLength":864,
			"byteOffset":11772,
			"target":34962
		},
		{
			"buffer":0,
			"byteLength":864,
			"byteOffset":12636,
			"target":34962
		},
		{
			"buffer":0,
			"byteLength":576,
			"byteOffset":13500,
			"target":34962
		},
		{
			"buffer":0,
			"byteLength":864,
			"byteOffset":14076,
			"target":34962
		},
		{
			"buffer":0,
			"byteLength":864,
			"byteOffset":14940,
			"target":34962
		},
		{
			"buffer":0,
			"byteLength":576,
			"byteOffset":15804,
			"target":34962
		},
		{
			"buffer":0,
			"byteLength":864,
			"byteOffset":16380,
			"target":34962
		},
		{
			"buffer":0,
			"byteLength":864,
			"byteOffset":17244,
			"target":34962
		},
		{
			"buffer":0,
			"byteLength":576,
			"byteOffset":18108,
			"target":34962
		}
	],
	"buffers":[
		{
			"byteLength":18684,
			"uri":"Car1.bin"
		}
	]
}
