{
	"asset":{
		"generator":"Khronos glTF Blender I/O v5.0.21",
		"version":"2.0"
	},
	"scene":0,
	"scenes":[
		{
			"name":"Scene",
			"nodes":[
				0,
				1,
				2,
				3,
				4
			]
		}
	],
	"nodes":[
		{
			"mesh":0,
			"name":"Body-col",
			"scale":[
				4.321878910064697,
				4.321878910064697,
				3.797976493835449
			],
			"translation":[
				0,
				3.9193925857543945,
				0
			]
		},
		{
			"mesh":1,
			"name":"Wheel-col",
			"rotation":[
				0,
				0,
				-0.7071068286895752,
				0.7071068286895752
			],
			"scale":[
				1.3574596643447876,
				0.4973897337913513,
				1.3574596643447876
			],
			"translation":[
				4.13372278213501,
				1.3325934410095215,
				-7.8513288497924805
			]
		},
		{
			"mesh":2,
			"name":"Wheel.001-col",
			"rotation":[
				0,
				0,
				-0.7071068286895752,
				0.7071068286895752
			],
			"scale":[
				1.3574596643447876,
				0.4791628420352936,
				1.3574596643447876
			],
			"translation":[
				-4.13372278213501,
				1.3325934410095215,
				-7.8513288497924805
			]
		},
		{
			"mesh":3,
			"name":"Wheel.002-col",
			"rotation":[
				0,
				0,
				-0.7071068286895752,
				0.7071068286895752
			],
			"scale":[
				1.3574596643447876,
				0.4791628420352936,
				1.3574596643447876
			],
			"translation":[
				-4.13372278213501,
				1.3325934410095215,
				6.885588645935059
			]
		},
		{
			"mesh":4,
			"name":"Wheel.003-col",
			"rotation":[
				0,
				0,
				-0.7071068286895752,
				0.7071068286895752
			],
			"scale":[
				1.3574596643447876,
				0.4973897337913513,
				1.3574596643447876
			],
			"translation":[
				4.13372278213501,
				1.3325934410095215,
				6.885588645935059
			]
		}
	],
	"materials":[
		{
			"doubleSided":true,
			"name":"Body",
			"pbrMetallicRoughness":{
				"metallicFactor":0,
				"roughnessFactor":0.5
			}
		},
		{
			"doubleSided":true,
			"name":"Wheel",
			"pbrMetallicRoughness":{
				"metallicFactor":0,
				"roughnessFactor":0.5
			}
		}
	],
	"meshes":[
		{
			"name":"Cube.001",
			"primitives":[
				{
					"attributes":{
						"POSITION":0,
						"NORMAL":1,
						"TEXCOORD_0":2
					},
					"indices":3,
					"material":0
				}
			]
		},
		{
			"name":"Cylinder",
			"primitives":[
				{
					"attributes":{
						"POSITION":4,
						"NORMAL":5,
						"TEXCOORD_0":6
					},
					"indices":7,
					"material":1
				}
			]
		},
		{
			"name":"Cylinder.001",
			"primitives":[
				{
					"attributes":{
						"POSITION":8,
						"NORMAL":9,
						"TEXCOORD_0":10
					},
					"indices":7,
					"material":1
				}
			]
		},
		{
			"name":"Cylinder.002",
			"primitives":[
				{
					"attributes":{
						"POSITION":11,
						"NORMAL":12,
						"TEXCOORD_0":13
					},
					"indices":7,
					"material":1
				}
			]
		},
		{
			"name":"Cylinder.003",
			"primitives":[
				{
					"attributes":{
						"POSITION":14,
						"NORMAL":15,
						"TEXCOORD_0":16
					},
					"indices":7,
					"material":1
				}
			]
		}
	],
	"accessors":[
		{
			"bufferView":0,
			"componentType":5126,
			"count":249,
			"max":[
				1,
				0.5726245641708374,
				2.3462610244750977
			],
			"min":[
				-1,
				-0.5010756850242615,
				-2.7599689960479736
			],
			"type":"VEC3"
		},
		{
			"bufferView":1,
			"componentType":5126,
			"count":249,
			"type":"VEC3"
		},
		{
			"bufferView":2,
			"componentType":5126,
			"count":249,
			"type":"VEC2"
		},
		{
			"bufferView":3,
			"componentType":5123,
			"count":498,
			"type":"SCALAR"
		},
		{
			"bufferView":4,
			"componentType":5126,
			"count":72,
			"max":[
				1,
				1,
				1
			],
			"min":[
				-1,
				-1,
				-1
			],
			"type":"VEC3"
		},
		{
			"bufferView":5,
			"componentType":5126,
			"count":72,
			"type":"VEC3"
		},
		{
			"bufferView":6,
			"componentType":5126,
			"count":72,
			"type":"VEC2"
		},
		{
			"bufferView":7,
			"componentType":5123,
			"count":132,
			"type":"SCALAR"
		},
		{
			"bufferView":8,
			"componentType":5126,
			"count":72,
			"max":[
				1,
				1,
				1
			],
			"min":[
				-1,
				-1,
				-1
			],
			"type":"VEC3"
		},
		{
			"bufferView":9,
			"componentType":5126,
			"count":72,
			"type":"VEC3"
		},
		{
			"bufferView":10,
			"componentType":5126,
			"count":72,
			"type":"VEC2"
		},
		{
			"bufferView":11,
			"componentType":5126,
			"count":72,
			"max":[
				1,
				1,
				1
			],
			"min":[
				-1,
				-1,
				-1
			],
			"type":"VEC3"
		},
		{
			"bufferView":12,
			"componentType":5126,
			"count":72,
			"type":"VEC3"
		},
		{
			"bufferView":13,
			"componentType":5126,
			"count":72,
			"type":"VEC2"
		},
		{
			"bufferView":14,
			"componentType":5126,
			"count":72,
			"max":[
				1,
				1,
				1
			],
			"min":[
				-1,
				-1,
				-1
			],
			"type":"VEC3"
		},
		{
			"bufferView":15,
			"componentType":5126,
			"count":72,
			"type":"VEC3"
		},
		{
			"bufferView":16,
			"componentType":5126,
			"count":72,
			"type":"VEC2"
		}
	],
	"bufferViews":[
		{
			"buffer":0,
			"byteLength":2988,
			"byteOffset":0,
			"target":34962
		},
		{
			"buffer":0,
			"byteLength":2988,
			"byteOffset":2988,
			"target":34962
		},
		{
			"buffer":0,
			"byteLength":1992,
			"byteOffset":5976,
			"target":34962
		},
		{
			"buffer":0,
			"byteLength":996,
			"byteOffset":7968,
			"target":34963
		},
		{
			"buffer":0,
			"byteLength":864,
			"byteOffset":8964,
			"target":34962
		},
		{
			"buffer":0,
			"byteLength":864,
			"byteOffset":9828,
			"target":34962
		},
		{
			"buffer":0,
			"byteLength":576,
			"byteOffset":10692,
			"target":34962
		},
		{
			"buffer":0,
			"byteLength":264,
			"byteOffset":11268,
			"target":34963
		},
		{
			"buffer":0,
			"byteLength":864,
			"byteOffset":11532,
			"target":34962
		},
		{
			"buffer":0,
			"byteLength":864,
			"byteOffset":12396,
			"target":34962
		},
		{
			"buffer":0,
			"byteLength":576,
			"byteOffset":13260,
			"target":34962
		},
		{
			"buffer":0,
			"byteLength":864,
			"byteOffset":13836,
			"target":34962
		},
		{
			"buffer":0,
			"byteLength":864,
			"byteOffset":14700,
			"target":34962
		},
		{
			"buffer":0,
			"byteLength":576,
			"byteOffset":15564,
			"target":34962
		},
		{
			"buffer":0,
			"byteLength":864,
			"byteOffset":16140,
			"target":34962
		},
		{
			"buffer":0,
			"byteLength":864,
			"byteOffset":17004,
			"target":34962
		},
		{
			"buffer":0,
			"byteLength":576,
			"byteOffset":17868,
			"target":34962
		}
	],
	"buffers":[
		{
			"byteLength":18444,
			"uri":"Car2.bin"
		}
	]
}
