{
	"asset":{
		"generator":"Khronos glTF Blender I/O v5.0.21",
		"version":"2.0"
	},
	"extensionsUsed":[
		"KHR_materials_specular",
		"KHR_materials_ior"
	],
	"scene":0,
	"scenes":[
		{
			"name":"Scene",
			"nodes":[
				0,
				1,
				2
			]
		}
	],
	"nodes":[
		{
			"mesh":0,
			"name":"Ground-col",
			"scale":[
				0.35647547245025635,
				0.35647547245025635,
				0.35647547245025635
			],
			"translation":[
				59.502281188964844,
				2.3929247856140137,
				206.8282012939453
			]
		},
		{
			"mesh":1,
			"name":"CulDeSac",
			"scale":[
				0.11587782204151154,
				0.17774033546447754,
				0.11587782204151154
			],
			"translation":[
				68.7355728149414,
				2.761462450027466,
				239.72802734375
			]
		},
		{
			"mesh":2,
			"name":"Boundary-col",
			"scale":[
				1.1585133075714111,
				1.1585133075714111,
				1.1585133075714111
			],
			"translation":[
				49.50665283203125,
				7.967010498046875,
				226.06494140625
			]
		}
	],
	"materials":[
		{
			"doubleSided":true,
			"extensions":{
				"KHR_materials_specular":{
					"specularFactor":0
				},
				"KHR_materials_ior":{
					"ior":1.4500000476837158
				}
			},
			"name":"Ground",
			"pbrMetallicRoughness":{
				"baseColorTexture":{
					"index":0
				},
				"metallicFactor":0,
				"roughnessFactor":0.5
			}
		},
		{
			"doubleSided":true,
			"extensions":{
				"KHR_materials_specular":{
					"specularFactor":0
				},
				"KHR_materials_ior":{
					"ior":1.4500000476837158
				}
			},
			"name":"Sidewalk",
			"pbrMetallicRoughness":{
				"baseColorTexture":{
					"index":1
				},
				"metallicFactor":0,
				"roughnessFactor":0.5
			}
		},
		{
			"doubleSided":true,
			"extensions":{
				"KHR_materials_specular":{
					"specularFactor":0
				},
				"KHR_materials_ior":{
					"ior":1.4500000476837158
				}
			},
			"name":"Asphalt",
			"pbrMetallicRoughness":{
				"baseColorTexture":{
					"index":2
				},
				"metallicFactor":0,
				"roughnessFactor":0.5
			}
		}
	],
	"meshes":[
		{
			"name":"Plane",
			"primitives":[
				{
					"attributes":{
						"POSITION":0,
						"NORMAL":1,
						"TEXCOORD_0":2
					},
					"indices":3,
					"material":0
				}
			]
		},
		{
			"name":"Cylinder",
			"primitives":[
				{
					"attributes":{
						"POSITION":4,
						"NORMAL":5,
						"TEXCOORD_0":6
					},
					"indices":7,
					"material":1
				},
				{
					"attributes":{
						"POSITION":8,
						"NORMAL":9,
						"TEXCOORD_0":10
					},
					"indices":11,
					"material":2
				}
			]
		},
		{
			"name":"Cylinder.035",
			"primitives":[
				{
					"attributes":{
						"POSITION":12,
						"NORMAL":13,
						"TEXCOORD_0":14
					},
					"indices":15
				}
			]
		}
	],
	"textures":[
		{
			"sampler":0,
			"source":0
		},
		{
			"sampler":0,
			"source":1
		},
		{
			"sampler":0,
			"source":2
		}
	],
	"images":[
		{
			"mimeType":"image/png",
			"name":"grass_1",
			"uri":"grass_1.png"
		},
		{
			"mimeType":"image/png",
			"name":"concrete_tile",
			"uri":"concrete_tile.png"
		},
		{
			"mimeType":"image/png",
			"name":"asphalt2",
			"uri":"asphalt2.png"
		}
	],
	"accessors":[
		{
			"bufferView":0,
			"componentType":5126,
			"count":8314,
			"max":[
				1034.7415771484375,
				143.1446075439453,
				1049.073486328125
			],
			"min":[
				-1009.7627563476562,
				0,
				-1000
			],
			"type":"VEC3"
		},
		{
			"bufferView":1,
			"componentType":5126,
			"count":8314,
			"type":"VEC3"
		},
		{
			"bufferView":2,
			"componentType":5126,
			"count":8314,
			"type":"VEC2"
		},
		{
			"bufferView":3,
			"componentType":5123,
			"count":19344,
			"type":"SCALAR"
		},
		{
			"bufferView":4,
			"componentType":5126,
			"count":512,
			"max":[
				600,
				1,
				600
			],
			"min":[
				-2293.056640625,
				-1,
				-3865.55322265625
			],
			"type":"VEC3"
		},
		{
			"bufferView":5,
			"componentType":5126,
			"count":512,
			"type":"VEC3"
		},
		{
			"bufferView":6,
			"componentType":5126,
			"count":512,
			"type":"VEC2"
		},
		{
			"bufferView":7,
			"componentType":5123,
			"count":1008,
			"type":"SCALAR"
		},
		{
			"bufferView":8,
			"componentType":5126,
			"count":41,
			"max":[
				600,
				-1,
				600
			],
			"min":[
				-2293.056640625,
				-1,
				-3865.55322265625
			],
			"type":"VEC3"
		},
		{
			"bufferView":9,
			"componentType":5126,
			"count":41,
			"type":"VEC3"
		},
		{
			"bufferView":10,
			"componentType":5126,
			"count":41,
			"type":"VEC2"
		},
		{
			"bufferView":11,
			"componentType":5123,
			"count":120,
			"type":"SCALAR"
		},
		{
			"bufferView":12,
			"componentType":5126,
			"count":128,
			"max":[
				202.72213745117188,
				15.107095718383789,
				206.65328979492188
			],
			"min":[
				-186.69586181640625,
				-5.182211399078369,
				-195.05978393554688
			],
			"type":"VEC3"
		},
		{
			"bufferView":13,
			"componentType":5126,
			"count":128,
			"type":"VEC3"
		},
		{
			"bufferView":14,
			"componentType":5126,
			"count":128,
			"type":"VEC2"
		},
		{
			"bufferView":15,
			"componentType":5123,
			"count":192,
			"type":"SCALAR"
		}
	],
	"bufferViews":[
		{
			"buffer":0,
			"byteLength":99768,
			"byteOffset":0,
			"target":34962
		},
		{
			"buffer":0,
			"byteLength":99768,
			"byteOffset":99768,
			"target":34962
		},
		{
			"buffer":0,
			"byteLength":66512,
			"byteOffset":199536,
			"target":34962
		},
		{
			"buffer":0,
			"byteLength":38688,
			"byteOffset":266048,
			"target":34963
		},
		{
			"buffer":0,
			"byteLength":6144,
			"byteOffset":304736,
			"target":34962
		},
		{
			"buffer":0,
			"byteLength":6144,
			"byteOffset":310880,
			"target":34962
		},
		{
			"buffer":0,
			"byteLength":4096,
			"byteOffset":317024,
			"target":34962
		},
		{
			"buffer":0,
			"byteLength":2016,
			"byteOffset":321120,
			"target":34963
		},
		{
			"buffer":0,
			"byteLength":492,
			"byteOffset":323136,
			"target":34962
		},
		{
			"buffer":0,
			"byteLength":492,
			"byteOffset":323628,
			"target":34962
		},
		{
			"buffer":0,
			"byteLength":328,
			"byteOffset":324120,
			"target":34962
		},
		{
			"buffer":0,
			"byteLength":240,
			"byteOffset":324448,
			"target":34963
		},
		{
			"buffer":0,
			"byteLength":1536,
			"byteOffset":324688,
			"target":34962
		},
		{
			"buffer":0,
			"byteLength":1536,
			"byteOffset":326224,
			"target":34962
		},
		{
			"buffer":0,
			"byteLength":1024,
			"byteOffset":327760,
			"target":34962
		},
		{
			"buffer":0,
			"byteLength":384,
			"byteOffset":328784,
			"target":34963
		}
	],
	"samplers":[
		{
			"magFilter":9728,
			"minFilter":9984
		}
	],
	"buffers":[
		{
			"byteLength":329168,
			"uri":"map_terrain.bin"
		}
	]
}
