{
	"asset":{
		"generator":"Khronos glTF Blender I/O v3.6.27",
		"version":"2.0"
	},
	"extensionsUsed":[
		"KHR_materials_specular",
		"KHR_materials_ior"
	],
	"scene":0,
	"scenes":[
		{
			"name":"Scene",
			"nodes":[
				0
			]
		}
	],
	"nodes":[
		{
			"mesh":0,
			"name":"MilitaryWallBlock",
			"scale":[
				1.8593533039093018,
				1.8593533039093018,
				1.8593533039093018
			],
			"translation":[
				0,
				1.8586363792419434,
				0
			]
		}
	],
	"materials":[
		{
			"doubleSided":true,
			"extensions":{
				"KHR_materials_specular":{
					"specularColorFactor":[
						0,
						0,
						0
					]
				},
				"KHR_materials_ior":{
					"ior":1.4500000476837158
				}
			},
			"name":"Brackets",
			"pbrMetallicRoughness":{
				"baseColorTexture":{
					"index":0
				},
				"metallicFactor":0.5118110179901123,
				"roughnessFactor":0.5
			}
		},
		{
			"doubleSided":true,
			"name":"Box",
			"pbrMetallicRoughness":{
				"baseColorTexture":{
					"index":1
				},
				"metallicFactor":0,
				"roughnessFactor":0.5
			}
		},
		{
			"doubleSided":true,
			"extensions":{
				"KHR_materials_specular":{
					"specularColorFactor":[
						0,
						0,
						0
					]
				},
				"KHR_materials_ior":{
					"ior":1.4500000476837158
				}
			},
			"name":"Sand",
			"pbrMetallicRoughness":{
				"baseColorTexture":{
					"index":2
				},
				"metallicFactor":0
			}
		}
	],
	"meshes":[
		{
			"name":"Cube.001",
			"primitives":[
				{
					"attributes":{
						"POSITION":0,
						"NORMAL":1,
						"TEXCOORD_0":2
					},
					"indices":3,
					"material":0
				},
				{
					"attributes":{
						"POSITION":4,
						"NORMAL":5,
						"TEXCOORD_0":6
					},
					"indices":7,
					"material":1
				},
				{
					"attributes":{
						"POSITION":8,
						"NORMAL":9,
						"TEXCOORD_0":10
					},
					"indices":11,
					"material":2
				}
			]
		}
	],
	"textures":[
		{
			"sampler":0,
			"source":0
		},
		{
			"sampler":1,
			"source":1
		},
		{
			"sampler":0,
			"source":2
		}
	],
	"images":[
		{
			"bufferView":4,
			"mimeType":"image/png",
			"name":"rusty_metal_2"
		},
		{
			"bufferView":9,
			"mimeType":"image/png",
			"name":"military_wall_block"
		},
		{
			"bufferView":14,
			"mimeType":"image/png",
			"name":"sand1"
		}
	],
	"accessors":[
		{
			"bufferView":0,
			"componentType":5126,
			"count":192,
			"max":[
				1,
				1,
				1
			],
			"min":[
				-1,
				-1,
				-1
			],
			"type":"VEC3"
		},
		{
			"bufferView":1,
			"componentType":5126,
			"count":192,
			"type":"VEC3"
		},
		{
			"bufferView":2,
			"componentType":5126,
			"count":192,
			"type":"VEC2"
		},
		{
			"bufferView":3,
			"componentType":5123,
			"count":432,
			"type":"SCALAR"
		},
		{
			"bufferView":5,
			"componentType":5126,
			"count":20,
			"max":[
				0.970422625541687,
				0.8414231538772583,
				0.970422625541687
			],
			"min":[
				-0.970422625541687,
				-0.9703808426856995,
				-0.970422625541687
			],
			"type":"VEC3"
		},
		{
			"bufferView":6,
			"componentType":5126,
			"count":20,
			"type":"VEC3"
		},
		{
			"bufferView":7,
			"componentType":5126,
			"count":20,
			"type":"VEC2"
		},
		{
			"bufferView":8,
			"componentType":5123,
			"count":30,
			"type":"SCALAR"
		},
		{
			"bufferView":10,
			"componentType":5126,
			"count":4,
			"max":[
				0.832706868648529,
				0.9704644083976746,
				0.8467907905578613
			],
			"min":[
				-0.832706868648529,
				0.9704644083976746,
				-0.8467907905578613
			],
			"type":"VEC3"
		},
		{
			"bufferView":11,
			"componentType":5126,
			"count":4,
			"type":"VEC3"
		},
		{
			"bufferView":12,
			"componentType":5126,
			"count":4,
			"type":"VEC2"
		},
		{
			"bufferView":13,
			"componentType":5123,
			"count":6,
			"type":"SCALAR"
		}
	],
	"bufferViews":[
		{
			"buffer":0,
			"byteLength":2304,
			"byteOffset":0,
			"target":34962
		},
		{
			"buffer":0,
			"byteLength":2304,
			"byteOffset":2304,
			"target":34962
		},
		{
			"buffer":0,
			"byteLength":1536,
			"byteOffset":4608,
			"target":34962
		},
		{
			"buffer":0,
			"byteLength":864,
			"byteOffset":6144,
			"target":34963
		},
		{
			"buffer":0,
			"byteLength":122004,
			"byteOffset":7008
		},
		{
			"buffer":0,
			"byteLength":240,
			"byteOffset":129012,
			"target":34962
		},
		{
			"buffer":0,
			"byteLength":240,
			"byteOffset":129252,
			"target":34962
		},
		{
			"buffer":0,
			"byteLength":160,
			"byteOffset":129492,
			"target":34962
		},
		{
			"buffer":0,
			"byteLength":60,
			"byteOffset":129652,
			"target":34963
		},
		{
			"buffer":0,
			"byteLength":269170,
			"byteOffset":129712
		},
		{
			"buffer":0,
			"byteLength":48,
			"byteOffset":398884,
			"target":34962
		},
		{
			"buffer":0,
			"byteLength":48,
			"byteOffset":398932,
			"target":34962
		},
		{
			"buffer":0,
			"byteLength":32,
			"byteOffset":398980,
			"target":34962
		},
		{
			"buffer":0,
			"byteLength":12,
			"byteOffset":399012,
			"target":34963
		},
		{
			"buffer":0,
			"byteLength":101308,
			"byteOffset":399024
		}
	],
	"samplers":[
		{
			"magFilter":9728,
			"minFilter":9984
		},
		{
			"magFilter":9729,
			"minFilter":9987
		}
	],
	"buffers":[
		{
			"byteLength":500332,
			"uri":"data:application/octet-stream;base64,"
		}
	]
}
