{
	"asset":{
		"generator":"Khronos glTF Blender I/O v5.0.21",
		"version":"2.0"
	},
	"scene":0,
	"scenes":[
		{
			"name":"Scene",
			"nodes":[
				0,
				1,
				2,
				3,
				4
			]
		}
	],
	"nodes":[
		{
			"mesh":0,
			"name":"Body-col",
			"scale":[
				4.942429542541504,
				4.942429542541504,
				4.942429542541504
			],
			"translation":[
				0,
				4.653102874755859,
				0
			]
		},
		{
			"mesh":1,
			"name":"Wheel-col",
			"rotation":[
				0,
				0,
				-0.7071068286895752,
				0.7071068286895752
			],
			"scale":[
				1.5939102172851562,
				0.5840281248092651,
				1.5939102172851562
			],
			"translation":[
				4.374026298522949,
				1.3325934410095215,
				-9.670984268188477
			]
		},
		{
			"mesh":2,
			"name":"Wheel.001-col",
			"rotation":[
				0,
				0,
				-0.7071068286895752,
				0.7071068286895752
			],
			"scale":[
				1.5939102172851562,
				0.562626302242279,
				1.5939102172851562
			],
			"translation":[
				-4.374026298522949,
				1.3325934410095215,
				-9.670984268188477
			]
		},
		{
			"mesh":3,
			"name":"Wheel.002-col",
			"rotation":[
				0,
				0,
				-0.7071068286895752,
				0.7071068286895752
			],
			"scale":[
				1.5939102172851562,
				0.562626302242279,
				1.5939102172851562
			],
			"translation":[
				-4.374026298522949,
				1.3325934410095215,
				7.632898330688477
			]
		},
		{
			"mesh":4,
			"name":"Wheel.003-col",
			"rotation":[
				0,
				0,
				-0.7071068286895752,
				0.7071068286895752
			],
			"scale":[
				1.5939102172851562,
				0.5840281248092651,
				1.5939102172851562
			],
			"translation":[
				4.374026298522949,
				1.3325934410095215,
				7.632898330688477
			]
		}
	],
	"materials":[
		{
			"doubleSided":true,
			"name":"Body",
			"pbrMetallicRoughness":{
				"metallicFactor":0,
				"roughnessFactor":0.5
			}
		},
		{
			"doubleSided":true,
			"name":"Wheel",
			"pbrMetallicRoughness":{
				"metallicFactor":0,
				"roughnessFactor":0.5
			}
		}
	],
	"meshes":[
		{
			"name":"Cube.001",
			"primitives":[
				{
					"attributes":{
						"POSITION":0,
						"NORMAL":1,
						"TEXCOORD_0":2
					},
					"indices":3,
					"material":0
				}
			]
		},
		{
			"name":"Cylinder",
			"primitives":[
				{
					"attributes":{
						"POSITION":4,
						"NORMAL":5,
						"TEXCOORD_0":6
					},
					"indices":7,
					"material":1
				}
			]
		},
		{
			"name":"Cylinder.001",
			"primitives":[
				{
					"attributes":{
						"POSITION":8,
						"NORMAL":9,
						"TEXCOORD_0":10
					},
					"indices":7,
					"material":1
				}
			]
		},
		{
			"name":"Cylinder.002",
			"primitives":[
				{
					"attributes":{
						"POSITION":11,
						"NORMAL":12,
						"TEXCOORD_0":13
					},
					"indices":7,
					"material":1
				}
			]
		},
		{
			"name":"Cylinder.003",
			"primitives":[
				{
					"attributes":{
						"POSITION":14,
						"NORMAL":15,
						"TEXCOORD_0":16
					},
					"indices":7,
					"material":1
				}
			]
		}
	],
	"accessors":[
		{
			"bufferView":0,
			"componentType":5126,
			"count":648,
			"max":[
				0.9753866791725159,
				0.6464155912399292,
				2.3462610244750977
			],
			"min":[
				-0.9753866791725159,
				-0.5010756850242615,
				-2.497324228286743
			],
			"type":"VEC3"
		},
		{
			"bufferView":1,
			"componentType":5126,
			"count":648,
			"type":"VEC3"
		},
		{
			"bufferView":2,
			"componentType":5126,
			"count":648,
			"type":"VEC2"
		},
		{
			"bufferView":3,
			"componentType":5123,
			"count":1422,
			"type":"SCALAR"
		},
		{
			"bufferView":4,
			"componentType":5126,
			"count":72,
			"max":[
				1,
				1,
				1
			],
			"min":[
				-1,
				-1,
				-1
			],
			"type":"VEC3"
		},
		{
			"bufferView":5,
			"componentType":5126,
			"count":72,
			"type":"VEC3"
		},
		{
			"bufferView":6,
			"componentType":5126,
			"count":72,
			"type":"VEC2"
		},
		{
			"bufferView":7,
			"componentType":5123,
			"count":132,
			"type":"SCALAR"
		},
		{
			"bufferView":8,
			"componentType":5126,
			"count":72,
			"max":[
				1,
				1,
				1
			],
			"min":[
				-1,
				-1,
				-1
			],
			"type":"VEC3"
		},
		{
			"bufferView":9,
			"componentType":5126,
			"count":72,
			"type":"VEC3"
		},
		{
			"bufferView":10,
			"componentType":5126,
			"count":72,
			"type":"VEC2"
		},
		{
			"bufferView":11,
			"componentType":5126,
			"count":72,
			"max":[
				1,
				1,
				1
			],
			"min":[
				-1,
				-1,
				-1
			],
			"type":"VEC3"
		},
		{
			"bufferView":12,
			"componentType":5126,
			"count":72,
			"type":"VEC3"
		},
		{
			"bufferView":13,
			"componentType":5126,
			"count":72,
			"type":"VEC2"
		},
		{
			"bufferView":14,
			"componentType":5126,
			"count":72,
			"max":[
				1,
				1,
				1
			],
			"min":[
				-1,
				-1,
				-1
			],
			"type":"VEC3"
		},
		{
			"bufferView":15,
			"componentType":5126,
			"count":72,
			"type":"VEC3"
		},
		{
			"bufferView":16,
			"componentType":5126,
			"count":72,
			"type":"VEC2"
		}
	],
	"bufferViews":[
		{
			"buffer":0,
			"byteLength":7776,
			"byteOffset":0,
			"target":34962
		},
		{
			"buffer":0,
			"byteLength":7776,
			"byteOffset":7776,
			"target":34962
		},
		{
			"buffer":0,
			"byteLength":5184,
			"byteOffset":15552,
			"target":34962
		},
		{
			"buffer":0,
			"byteLength":2844,
			"byteOffset":20736,
			"target":34963
		},
		{
			"buffer":0,
			"byteLength":864,
			"byteOffset":23580,
			"target":34962
		},
		{
			"buffer":0,
			"byteLength":864,
			"byteOffset":24444,
			"target":34962
		},
		{
			"buffer":0,
			"byteLength":576,
			"byteOffset":25308,
			"target":34962
		},
		{
			"buffer":0,
			"byteLength":264,
			"byteOffset":25884,
			"target":34963
		},
		{
			"buffer":0,
			"byteLength":864,
			"byteOffset":26148,
			"target":34962
		},
		{
			"buffer":0,
			"byteLength":864,
			"byteOffset":27012,
			"target":34962
		},
		{
			"buffer":0,
			"byteLength":576,
			"byteOffset":27876,
			"target":34962
		},
		{
			"buffer":0,
			"byteLength":864,
			"byteOffset":28452,
			"target":34962
		},
		{
			"buffer":0,
			"byteLength":864,
			"byteOffset":29316,
			"target":34962
		},
		{
			"buffer":0,
			"byteLength":576,
			"byteOffset":30180,
			"target":34962
		},
		{
			"buffer":0,
			"byteLength":864,
			"byteOffset":30756,
			"target":34962
		},
		{
			"buffer":0,
			"byteLength":864,
			"byteOffset":31620,
			"target":34962
		},
		{
			"buffer":0,
			"byteLength":576,
			"byteOffset":32484,
			"target":34962
		}
	],
	"buffers":[
		{
			"byteLength":33060,
			"uri":"pickup.bin"
		}
	]
}
