{
	"asset":{
		"generator":"Khronos glTF Blender I/O v5.0.21",
		"version":"2.0"
	},
	"extensionsUsed":[
		"KHR_materials_specular",
		"KHR_materials_ior"
	],
	"scene":0,
	"scenes":[
		{
			"name":"Scene",
			"nodes":[
				0,
				1,
				2,
				3
			]
		}
	],
	"nodes":[
		{
			"mesh":0,
			"name":"Base-col",
			"translation":[
				0,
				1.0159087181091309,
				0
			]
		},
		{
			"mesh":1,
			"name":"Pole-col",
			"translation":[
				0,
				5.895551681518555,
				0
			]
		},
		{
			"mesh":2,
			"name":"Head-col",
			"scale":[
				1.8205037117004395,
				0.2972099781036377,
				0.6633002758026123
			],
			"translation":[
				-2.351637840270996,
				11.433666229248047,
				0
			]
		},
		{
			"mesh":3,
			"name":"Bulb",
			"translation":[
				0,
				11.034337997436523,
				0
			]
		}
	],
	"materials":[
		{
			"doubleSided":true,
			"extensions":{
				"KHR_materials_specular":{
					"specularFactor":0
				},
				"KHR_materials_ior":{
					"ior":1.4500000476837158
				}
			},
			"name":"Base",
			"pbrMetallicRoughness":{
				"baseColorTexture":{
					"index":0
				},
				"metallicFactor":0.4409448802471161,
				"roughnessFactor":0.8307086229324341
			}
		},
		{
			"doubleSided":true,
			"extensions":{
				"KHR_materials_specular":{
					"specularFactor":0
				},
				"KHR_materials_ior":{
					"ior":1.4500000476837158
				}
			},
			"name":"Metal",
			"pbrMetallicRoughness":{
				"baseColorTexture":{
					"index":1
				},
				"metallicFactor":0.8267716765403748,
				"roughnessFactor":0.33464568853378296
			}
		},
		{
			"doubleSided":true,
			"name":"Bulb"
		}
	],
	"meshes":[
		{
			"name":"Cylinder",
			"primitives":[
				{
					"attributes":{
						"POSITION":0,
						"NORMAL":1,
						"TEXCOORD_0":2
					},
					"indices":3,
					"material":0
				}
			]
		},
		{
			"name":"Cylinder.001",
			"primitives":[
				{
					"attributes":{
						"POSITION":4,
						"NORMAL":5,
						"TEXCOORD_0":6
					},
					"indices":7,
					"material":1
				}
			]
		},
		{
			"name":"Cube.001",
			"primitives":[
				{
					"attributes":{
						"POSITION":8,
						"NORMAL":9,
						"TEXCOORD_0":10
					},
					"indices":11,
					"material":1
				}
			]
		},
		{
			"name":"Sphere",
			"primitives":[
				{
					"attributes":{
						"POSITION":12,
						"NORMAL":13,
						"TEXCOORD_0":14
					},
					"indices":15,
					"material":2
				}
			]
		}
	],
	"textures":[
		{
			"sampler":0,
			"source":0
		},
		{
			"sampler":0,
			"source":1
		}
	],
	"images":[
		{
			"mimeType":"image/png",
			"name":"RustyMetal02",
			"uri":"RustyMetal02.png"
		},
		{
			"mimeType":"image/png",
			"name":"GalvanizedSteel01",
			"uri":"GalvanizedSteel01.png"
		}
	],
	"accessors":[
		{
			"bufferView":0,
			"componentType":5126,
			"count":540,
			"max":[
				0.7856769561767578,
				0.9935787916183472,
				0.785173773765564
			],
			"min":[
				-0.7856769561767578,
				-1,
				-0.785173773765564
			],
			"type":"VEC3"
		},
		{
			"bufferView":1,
			"componentType":5126,
			"count":540,
			"type":"VEC3"
		},
		{
			"bufferView":2,
			"componentType":5126,
			"count":540,
			"type":"VEC2"
		},
		{
			"bufferView":3,
			"componentType":5123,
			"count":822,
			"type":"SCALAR"
		},
		{
			"bufferView":4,
			"componentType":5126,
			"count":576,
			"max":[
				0.2637246251106262,
				5.6142425537109375,
				0.26966339349746704
			],
			"min":[
				-1.814746618270874,
				-3.890103340148926,
				-0.26966339349746704
			],
			"type":"VEC3"
		},
		{
			"bufferView":5,
			"componentType":5126,
			"count":576,
			"type":"VEC3"
		},
		{
			"bufferView":6,
			"componentType":5126,
			"count":576,
			"type":"VEC2"
		},
		{
			"bufferView":7,
			"componentType":5123,
			"count":864,
			"type":"SCALAR"
		},
		{
			"bufferView":8,
			"componentType":5126,
			"count":264,
			"max":[
				0.49954769015312195,
				0.5,
				0.5000001192092896
			],
			"min":[
				-0.4896801710128784,
				-0.5,
				-0.5000001192092896
			],
			"type":"VEC3"
		},
		{
			"bufferView":9,
			"componentType":5126,
			"count":264,
			"type":"VEC3"
		},
		{
			"bufferView":10,
			"componentType":5126,
			"count":264,
			"type":"VEC2"
		},
		{
			"bufferView":11,
			"componentType":5123,
			"count":420,
			"type":"SCALAR"
		},
		{
			"bufferView":12,
			"componentType":5126,
			"count":210,
			"max":[
				-1.5888895988464355,
				0.25691497325897217,
				0.25411513447761536
			],
			"min":[
				-3.125528573989868,
				0.002799808979034424,
				-0.25411516427993774
			],
			"type":"VEC3"
		},
		{
			"bufferView":13,
			"componentType":5126,
			"count":210,
			"type":"VEC3"
		},
		{
			"bufferView":14,
			"componentType":5126,
			"count":210,
			"type":"VEC2"
		},
		{
			"bufferView":15,
			"componentType":5123,
			"count":294,
			"type":"SCALAR"
		}
	],
	"bufferViews":[
		{
			"buffer":0,
			"byteLength":6480,
			"byteOffset":0,
			"target":34962
		},
		{
			"buffer":0,
			"byteLength":6480,
			"byteOffset":6480,
			"target":34962
		},
		{
			"buffer":0,
			"byteLength":4320,
			"byteOffset":12960,
			"target":34962
		},
		{
			"buffer":0,
			"byteLength":1644,
			"byteOffset":17280,
			"target":34963
		},
		{
			"buffer":0,
			"byteLength":6912,
			"byteOffset":18924,
			"target":34962
		},
		{
			"buffer":0,
			"byteLength":6912,
			"byteOffset":25836,
			"target":34962
		},
		{
			"buffer":0,
			"byteLength":4608,
			"byteOffset":32748,
			"target":34962
		},
		{
			"buffer":0,
			"byteLength":1728,
			"byteOffset":37356,
			"target":34963
		},
		{
			"buffer":0,
			"byteLength":3168,
			"byteOffset":39084,
			"target":34962
		},
		{
			"buffer":0,
			"byteLength":3168,
			"byteOffset":42252,
			"target":34962
		},
		{
			"buffer":0,
			"byteLength":2112,
			"byteOffset":45420,
			"target":34962
		},
		{
			"buffer":0,
			"byteLength":840,
			"byteOffset":47532,
			"target":34963
		},
		{
			"buffer":0,
			"byteLength":2520,
			"byteOffset":48372,
			"target":34962
		},
		{
			"buffer":0,
			"byteLength":2520,
			"byteOffset":50892,
			"target":34962
		},
		{
			"buffer":0,
			"byteLength":1680,
			"byteOffset":53412,
			"target":34962
		},
		{
			"buffer":0,
			"byteLength":588,
			"byteOffset":55092,
			"target":34963
		}
	],
	"samplers":[
		{
			"magFilter":9728,
			"minFilter":9984
		}
	],
	"buffers":[
		{
			"byteLength":55680,
			"uri":"street_lamp_1.bin"
		}
	]
}
